<svg width="500" height="500" viewBox="0 0 500 500" fill="none" xmlns="http://www.w3.org/2000/svg">
<g clip-path="url(#clip0_3313_5)">
<g opacity="0.866667">
<path d="M71 168H71.25H136.75H137V169H138V170H139V171H140V172H141V173H142V174H143V175H144V176H145V177H146V178H147V179H148V180H149V181H151V179H153V178H153.25H165.75H166V179H168V180H169V181H170V182H171V182.25V184.75V185H172V186H172.25H185.75H186V187H188V186H188.25H204.75H205V187H207V186H207.25H222.75H223V187H224V188H225V187H226V186H226.25H239.75H240V185.75V183.25V183H241V181H242V180H243V179H243.25H245.75H246V178H246.25H258.75H259V179H261V180H262V181H263V182H264V181H265V180H266V179H268V178H268.25H278.75H279V179H280V178H280.25H293.75H294V179H296V180H297V181H298V182H299V182.25V185.75V186H299.25H313.75H314V187H314.25H316.75H317V186H317.25H331.75H332V187H332.25H334.75H335V186H335.25H348.75H349V185.75V181.25V181H350V179H351V178H351.25H357.75H358V179H358.25H360.75H361V178H361.25H367.75H368V179H370V181H371V181.25V184.75V185H370V186H370.25H375.75H376V185.75V181.25V181H377V179H379V178H379.25H386.75H387V179H389V178H389.25H392.75H393V179H393.25H397.75H398V178H398.25H404.75H405V179H407V181H409V180H409.25H417.75H418V181H419V182H420V182.25V185.75C419.917 186 420 186.083 420.25 186H438.75H439V187H439.25H441.75H442V186H442.25H456.75H457V188H459V190H460V190.25V195.75V196H459V198H460V198.25V208.75V209H459V211H458V212H457V213H456.75H441.25H441V212H439V213H438.75H410.25H410V212H409V211H408V209H407V211H406C406 211.25 406 211.833 406 212.75C406.083 213 406 213.083 405.75 213H334.25H334V212H332V213H331.75H316.25H316V212H315.75H313.25H313V213H312.75H298.25H298V212H297V211H296V210H295V209.75V207.25V207H294V206.75V202.25V202H293.75H290.25H290V203H289V203.25V210.75V211H288V212H287V213H286.75H278.25H278V212H277V211H275V212H274V213H273.75H264.25H264V212H263V211H261V212H260V213H259.75H244.25H244V212H243V213H242.75H226.25H226V212H225V211H224V212H223V213H222.75H188.25H188V212H186V213H185.75H180.25H180V215H179V215.25V218.75V219H177V220H176.75H168.25H168V219H167V217H166V216.75V213.25V213H165.75H151.25H151V213.25V215.75V216H150V216.25V219.75V220H149V221H148V222H147.75H112.25H112V221H111V219H110V218.75V200.25V200H111V198H110.75H98.25C98 197.917 97.9167 198 98 198.25V200.75V201H97V202H95V203H94V203.25V214.75V215H93V216H92V217H91V217.25V232.75V233H90V234C89.75 234 89.1667 234 88.25 234C88 233.917 87.9167 234 88 234.25V249.75C88.0833 250 88 250.083 87.75 250C86.5433 249.877 85.96 249.96 86 250.25V265.75V266H85V267H83V268H82V268.25V285.75C82.0833 286 82 286.083 81.75 286C80.8333 286 80.25 286 80 286V287H79V287.25V298.75V299H78V299.25V301.75V302H79V303H81V302H81.25H90.75H91C91 301.75 91 301.167 91 300.25V300H92V298H92.25H94.75H95V296H96V295.75V281.25C95.9167 281 96 280.917 96.25 281C97.1667 281 97.75 281 98 281V280H99V279.75V228.25V228H100V227H101V226H101.25H132.75H133V227H135V228H136V229H137V230H138V229H139V228H140V227H141V226H141.25H170.75H171V227H172V228H173V229H174V230H174.25H176.75H177V229H178V228H179V227H180V226H180.25H209.75H210V227H212V226H212.25H217.75H218V225.75V215.25V215H219V214H219.25H239.75H240V215H241V215.25V225.75V226H241.25H247.75H248V227H250V226H250.25H280.75H281V227H282V226H282.25H315.75H316V227H318V226H318.25H353.75H354V227H355V228H356V229H357V230H359V229H360V228H361V227H362V226H362.25H391.75H392V227H392.25H394.75H395V226H395.25H427.75H428V227H429V226H429.25H434.75H435V225.75V214.25V214H435.25H456.75H457V214.25V225.75V226H457.25H464.75H465V228H466V229H465V229.25V235.75V236H466V237H465V237.25V245.75V246H464.75H457.25H457V246.25V260.75V261H457.25H464.75H465V261.25V279.75V280H464.75H441.25H441V279H440V278H439V277H438V276H436V275H435V274.75V252.25V252H434V250H433.75H416.25H416V250.25V279.75V280H415.75H361.25H361V278H360V277H359.75H357.25H357V278H355C355 278.25 355 278.833 355 279.75C355.083 280 355 280.083 354.75 280H339.25H339V280.25V286.75V287H338V287.25V292.75V293H337.75H317.25H317V292.75V258.25V258H316V256H317V255.75V252.25V252H316C316 251.75 316 251.167 316 250.25C316.083 250 316 249.917 315.75 250H304.25H304V250.25V279.75V280H303.75H224.25H224V278H222V276H220V274H219V273H218V272.75V267.25V267H217V267.25V279.75V280H216.75H179.25H179V278H177V276H175V277H174V278H172C172 278.25 172 278.833 172 279.75C172.083 280 172 280.083 171.75 280H140.25H140V278H138V279H139V279.25V281.75V282H138V282.25V301.75V302H137V303C136.75 303 136.167 303 135.25 303C135 302.917 134.917 303 135 303.25V314.75V315H134V316H133V317H132V318H130V319H129V321H127V323H125V325H123V326H122V327H121V328H120V330H119V331H118V332H117.75H101.25H101V331H100.75H84.25H84V332H83.75H51.25H51V331H49V329H48V328H47V327H46V326H45V325H44V324H43V323H42V322H41V320H39V318H37V317H36V316H35V314H34V313.75V300.25V300H35V299.75V297.25V297H36V296H37V295.75V281.25C36.9167 281 37 280.917 37.25 281H38.75C39 281.083 39.0833 281 39 280.75V267.25V267H40V266C40.25 266 40.8333 266 41.75 266C42 266.083 42.0833 266 42 265.75V253.25V253H43V252H45V251H44V250.75V241.25V241H45V240.75V235.25V235H45.25H47.75C48 235.083 48.0833 235 48 234.75V217.25C47.9167 217 48 216.917 48.25 217H50.75C51 217.083 51.0833 217 51 216.75V199.25C50.9167 199 51 198.917 51.25 199H53.75H54V198.75V195.25V195H55V194.75V192.25V192H54V191.75V185.25V185H55V184H56V183H57V182H58V181H59V180H60V179H61V178H62V177H63V175H65V173H65.25H67.75H68V171H70V169H71V168ZM73 174V174.5V178H69.5H69V178.5V182H68V183H64.5H64V183.5V187H60.5C60.1667 187 60 187.167 60 187.5V202H57.5H57V203H56V203.5V220C55 220 54.3333 220 54 220V221H53V221.5V238H50.5C50.1667 238 50 238.167 50 238.5V255H48.5C48.1667 255 48 255.167 48 255.5V270H45.5C45.1667 270 45 270.167 45 270.5V284H42.5C42.1667 284 42 284.167 42 284.5V299C41 299 40.3333 299 40 299V299.5V313H40.5H44V313.5V317H44.5H48V317.5V321H49V322H49.5H53V322.5V326H53.5H115V325H116V324H115V323H116V322H116.5H119V321H120V317.5V317H120.5H124V313.5V313H124.5H129V299.5C129 299.167 129.167 299 129.5 299H133V285.5V285H132V284H101.5H101V284.5V303H97.5H97V303.5V307H96V308H74.5C74.1667 308 74 308 74 308V304.5V304H70.5H70V303H69V300.5V300H70V299H70.5H73V282.5V282H73.5H77V263.5C77 263.167 77.1667 263 77.5 263H80V247.5V247H80.5H83V230.5V230H84V229H85V213.5V213H86V212H86.5H89V197.5C89 197.167 89.1667 197 89.5 197H92V196H93V192.5V192H93.5H115C115 192 115 192.167 115 192.5V196H116V197H116.5H119V197.5V201H115.5C115.167 201 115 201.167 115 201.5V216H115.5H145V201.5C145 201.167 145.167 201 145.5 201H148V200H149V188.5V188H148V187H144.5H144V183.5V183H140.5H140V179.5V179H139V178H138V179H137V178H135V174.5C135 174.167 135 174 135 174H73.5H73ZM155 182V184H154V185H152V187H153V188H152V189H153V190H152V191H153V192H152V193H153V194H154V195H155V197H155.5H162V197.5V206H157.5H157V202.5V202H153.5H153V202.5V205H152V207H152.5H155V209H155.5H165C165 208 165 207.333 165 207H167V196.5V196H165C165 195.667 165 195.167 165 194.5C165 194.167 165 194 165 194H157.5H157V186.5V186H158V185H159V186H161V185H162V185.5V189H162.5H167V185.5C167 185.167 167 185 167 185C166 185 165.333 185 165 185V182.5V182H155.5H155ZM247 182V184H245V184.5V207C245 207 245.167 207 245.5 207C246.167 207 246.667 207 247 207V209H247.5H257C257 208 257 207.333 257 207H257.5H260V185.5V185H259V184H257C257 183.667 257 183.167 257 182.5C257 182.167 257 182 257 182H247.5H247ZM269 182V184H268V185H267V185.5V192H266V193H264V192H263V192.5V196H263.5H267C267 196 267 196.167 267 196.5V209H267.5H271V196.5V196H271.5H276V193.5V193H272.5H272V192H271V186.5V186H271.5H277V182.5V182H269.5H269ZM280 182V182.5V209H281V210H282V209H282.5H285V198.5V198H285.5H293C293 197 293 196.333 293 196H295V184.5V184H294V185H293V182.5C293 182.167 293 182 293 182H280.5H280ZM353 182V182.5V186H353.5H358V182.5V182H353.5H353ZM362 182V182.5V209H362.5H373V210H374V207.5V207H374.5H377V192.5V192H374.5H374C374 191.667 374 191.167 374 190.5C374 190.167 374 190 374 190H367.5H367V189H366V182.5V182H362.5H362ZM380 182V182.5V186H380.5H385V182.5V182H380.5H380ZM390 182V182.5V208H389V209H389.5H394V182.5C394 182.167 394 182 394 182H390.5H390ZM399 182V182.5V186H399.5H403V182.5V182H399.5H399ZM411 184V184.5V190H407.5H407V190.5V193H407.5H411C411 193 411 193.167 411 193.5V207H413C413 207.333 413 208 413 209C413 209 413.167 209 413.5 209H420V206.5V206H415.5H415V193.5V193H415.5H420V190.5V190H415.5H415V184.5V184H411.5H411ZM171 190V190.5V216H171.5H175V210.5V210H176V209H176.5H183C183 208 183 207.333 183 207H183.5H186V201.5V201H185V200H186V192.5C186 192.167 186 192 186 192H183.5H183V190H171.5H171ZM191 190V192H189V193H189.5H199V194H200V195H199V195.5V198H191.5C191.167 198 191 198.167 191 198.5C191 199.167 191 199.667 191 200H189V200.5V207C189 207 189.167 207 189.5 207C190.167 207 190.667 207 191 207V209H191.5H204V192.5V192H202C202 191.667 202 191.167 202 190.5C202 190.167 202 190 202 190H191.5H191ZM210 190V192H208V192.5V207H210C210 207.333 210 208 210 209C210 209 210.167 209 210.5 209H219V210H220V207.5V207H220.5H223V203.5V203H222V202H218.5H218V202.5V206H213.5H213V193.5V193H213.5H218V193.5V197H218.5H223V192.5V192H220.5H220V190H210.5H210ZM228 190V192H226V192.5V207C226 207 226.167 207 226.5 207C227.167 207 227.667 207 228 207V209H228.5H239V208H241C241 207.667 241 207.167 241 206.5C241 206.167 241 206 241 206H231.5H231V201.5V201H231.5H241V192.5C241 192.167 241 192 241 192C240 192 239.333 192 239 192V190H228.5H228ZM300 190V192H298V192.5V207C298 207 298.167 207 298.5 207H301V207.5V210H302V209H302.5H310V210H311V207.5V207H313V192.5V192H311C311 191.667 311 191.167 311 190.5C311 190.167 311 190 311 190H300.5H300ZM319 190V192H317V192.5V199H319C319 199.333 319 200 319 201C319 201 319.167 201 319.5 201H327V201.5V206H321.5C321.167 206 321 206 321 206C321 205 321 204.333 321 204H317.5H317V204.5V207H319V209H319.5H329C329 208 329 207.333 329 207H331V200.5V200H329C329 199.667 329 199.167 329 198.5C329 198.167 329 198 329 198H322.5H322V195.5V195H321V194H322V193H322.5H327V194H327.5H331V192H329C329 191.667 329 191.167 329 190.5C329 190.167 329 190 329 190H319.5H319ZM337 190V192H335V192.5V198C335 198 335.167 198 335.5 198C336.167 198 336.667 198 337 198V198.5V201H337.5H345V201.5V206H340.5H340V205H339V204H335.5H335V204.5V207H337V209H337.5H347C347 208 347 207.333 347 207H349V200.5V200H347C347 199.667 347 199.167 347 198.5C347 198.167 347 198 347 198H340.5H340V193.5V193H340.5H345V194H345.5H349V192H347C347 191.667 347 191.167 347 190.5C347 190.167 347 190 347 190H337.5H337ZM353 190V190.5V209C353 209 353.167 209 353.5 209H358V190.5C358 190.167 358 190 358 190H353.5H353ZM380 190V190.5V209C380 209 380.167 209 380.5 209H385V190.5C385 190.167 385 190 385 190H380.5H380ZM399 190V190.5V209C399 209 399.167 209 399.5 209H403V190.5C403 190.167 403 190 403 190H399.5H399ZM425 190V192H423V192.5V207H425C425 207.333 425 208 425 209C425 209 425.167 209 425.5 209H435V210H436V208H438C438 207.667 438 207.167 438 206.5C438 206.167 438 206 438 206H428.5H428V201.5V201H428.5H438V192.5C438 192.167 438 192 438 192C437 192 436.333 192 436 192V190H425.5H425ZM444 190V192H442V192.5V199H444C444 199.333 444 200 444 201C444 201 444.167 201 444.5 201H451V201.5V206H446.5C446.167 206 446 206 446 206C446 205 446 204.333 446 204H442.5H442V204.5V207H444V209H444.5H454C454 208 454 207.333 454 207H456V200.5V200H454C454 199.667 454 199.167 454 198.5C454 198.167 454 198 454 198H446.5H446V193.5V193H446.5H451V194H451.5H456V192H454C454 191.667 454 191.167 454 190.5C454 190.167 454 190 454 190H444.5H444ZM275 202V202.5V208H276V202.5V202H275ZM224 220V220.5V231H216.5H216V231.5V240H216.5H223V241H224V241.5V271H224.5H228V271.5V275C228 275 228.167 275 228.5 275H244V267.5V267H243V266H235.5H235V241.5V241H236V240H236.5H244V232.5V232H243V231H235.5H235V220.5V220H224.5H224ZM440 220V220.5V231H434.5H434V232H433V232.5V240H433.5H440C440 240 440 240.167 440 240.5V271H440.5H444V271.5V275C444 275 444.167 275 444.5 275H460V266.5V266H452.5H452V240.5C452 240.167 452.167 240 452.5 240H460V231.5V231H452.5H452V220.5V220H440.5H440ZM105 231V231.5V234H104V234.5V237H105V237.5V254H104V256H105V257H104V257.5V261H105V261.5V275H105.5H116V245.5C116 245.167 116.167 245 116.5 245H120V243H121V242H120V241H121V240H121.5H125V240.5V245H125.5H135V236.5V236H131.5H131V232.5V232H130V231H121.5H121V232H120V232.5V236H117.5H117V235H116V231.5C116 231.167 116 231 116 231H105.5H105ZM144 231V231.5V235H143V236H139.5H139V236.5V258H140V258.5V264H139V264.5V270H140V271H140.5H144V271.5V275H144.5H169V271.5V271H169.5H173V266.5C173 266.167 173 266 173 266H151.5H151V258.5V258H151.5H172V257H173V236.5C173 236.167 173 236 173 236H169.5H169V232.5V232H168V231H144.5H144ZM183 231V232H182V232.5V236H178.5H178V236.5V240C178 240 178.167 240 178.5 240H200V240.5V249H183.5C183.167 249 183 249.167 183 249.5C183 250.167 183 250.667 183 251H182V253H179.5H179V254H178V254.5V270H179V271H179.5H183V271.5V275H183.5H212V236.5V236H208.5H208V232.5V232H206V231H183.5H183ZM253 231V231.5V235H252V236H248.5H248V236.5V263H249V264H248V264.5V270H249V271H249.5H253V271.5V275H253.5H278V271.5V271H278.5H282V236.5V236H278.5H278V232.5V232H277V231H253.5H253ZM288 231V232H287V232.5V275H287.5H298V274H299V272H298V271H299V265.5V265H298V260.5V260H299V254.5V254H298V248.5V248H299V247H298V246H299V245H299.5H303V240.5V240H303.5H307V240.5V244H308V245H308.5H317V236.5C317 236.167 317 236 317 236H314.5H314V235H313V231.5V231H304.5H304V232H303V232.5V235H302V236H299.5H299V232.5V232H298V231H288.5H288ZM323 231V232H322V232.5V288H322.5H333V275.5V275H333.5H351V271.5V271H351.5H355V236.5V236H351.5H351V232.5V232H350V231H323.5H323ZM365 231V232H364V232.5V236H360.5H360V236.5V270H361V271H361.5H364V271.5V274H365V275H365.5H389V274H390V271.5V271H390.5H393V270H394V236.5V236H390.5H390V232.5V232H389V231H365.5H365ZM400 231V232H399V232.5V275H399.5H410V274H411V254.5V254H410V253H411V251H410V248.5V248H411V247H410V245H410.5H415V240.5V240H415.5H419V240.5V244H420V245H420.5H429V236.5V236H425.5H425V232.5V232H424V231H415.5H415V231.5V235H414V236H411.5H411V234H410V233H411V232H410V231H400.5H400ZM242 248V248.5V261H243V248.5V248H242ZM122 250V250.5V278H122.5H138V276H136V275H135V274H134V250.5V250H122.5H122Z" fill="#ECE9EA"/>
<path d="M138 278H140V280H140.25H171.75C172 280.083 172.083 280 172 279.75C172 278.833 172 278.25 172 278H174V277H175V276H177V278H179V280H179.25H216.75H217V279.75V267.25V267H218V267.25V272.75V273H219V274H220V276H222V278H224V280H224.25H303.75H304V279.75V250.25V250H304.25H315.75C316 249.917 316.083 250 316 250.25C316 251.167 316 251.75 316 252H317V252.25V255.75V256H316V258H317V258.25V292.75V293H317.25H337.75H338V292.75V287.25V287H339V286.75V280.25V280H339.25H354.75C355 280.083 355.083 280 355 279.75C355 278.833 355 278.25 355 278H357V277H357.25H359.75H360V278H361V280H361.25H415.75H416V279.75V250.25V250H416.25H433.75H434V252H435V252.25V274.75V275H436V276H438V277H439V278H440V279H441V280H441.25H464.75H465V279.75V261.25V261H464.75H457.25H457V260.75V246.25V246H457.25H464.75H465V245.75V237.25V237H466V236H465V235.75V229.25V229H466V228H465V226H464.75H457.25H457V225.75V214.25V214H456.75H435.25H435V214.25V225.75V226H434.75H429.25H429V227H428V226H427.75H395.25H395V227H394.75H392.25H392V226H391.75H362.25H362V227H361V228H360V229H359V230H357V229H356V228H355V227H354V226H353.75H318.25H318V227H316V226H315.75H282.25H282V227H281V226H280.75H250.25H250V227H248V226H247.75H241.25H241V225.75V215.25V215H240V214H239.75H219.25H219V215H218V215.25V225.75V226H217.75H212.25H212V227H210V226H209.75H180.25H180V227H179V228H178V229H177V230H176.75H174.25H174V229H173V228H172V227H171V226H170.75H141.25H141V227H140V228H139V229H138V230H137V229H136V228H135V227H133V226H132.75H101.25H101V227H100V228H99V228.25V279.75V280H98V281C97.75 281 97.1667 281 96.25 281C96 280.917 95.9167 281 96 281.25V295.75V296H95V298H94.75H92.25H92V300H91V300.25C91 301.167 91 301.75 91 302H90.75H81.25H81V303H79V302H78V301.75V299.25V299H79V298.75V287.25V287H80V286C80.25 286 80.8333 286 81.75 286C82 286.083 82.0833 286 82 285.75V268.25V268H83V267H85V266H86V265.75V250.25C85.96 249.96 86.5433 249.877 87.75 250C88 250.083 88.0833 250 88 249.75V234.25C87.9167 234 88 233.917 88.25 234C89.1667 234 89.75 234 90 234V233H91V232.75V217.25V217H92V216H93V215H94V214.75V203.25V203H95V202H97V201H98V200.75V198.25C97.9167 198 98 197.917 98.25 198H110.75H111V200H110V200.25V218.75V219H111V221H112V222H112.25H147.75H148V221H149V220H150V219.75V216.25V216H151V215.75V213.25V213H151.25H165.75H166V213.25V216.75V217H167V219H168V220H168.25H176.75H177V219H179V218.75V215.25V215H180V213H180.25H185.75H186V212H188V213H188.25H222.75H223V212H224V211H225V212H226V213H226.25H242.75H243V212H244V213H244.25H259.75H260V212H261V211H263V212H264V213H264.25H273.75H274V212H275V211H277V212H278V213H278.25H286.75H287V212H288V211H289V210.75V203.25V203H290V202H290.25H293.75H294V202.25V206.75V207H295V207.25V209.75V210H296V211H297V212H298V213H298.25H312.75H313V212H313.25H315.75H316V213H316.25H331.75H332V212H334V213H334.25H405.75C406 213.083 406.083 213 406 212.75C406 211.833 406 211.25 406 211H407V209H408V211H409V212H410V213H410.25H438.75H439V212H441V213H441.25H456.75H457V212H458V211H459V209H460V208.75V198.25V198H459V196H460V195.75V190.25V190H459V188H457V186H456.75H442.25H442V187H441.75H439.25H439V186H438.75H420.25C420 186.083 419.917 186 420 185.75V182.25V182H419V181H418V180H417.75H409.25H409V181H407V179H405V178H404.75H398.25H398V179H397.75H393.25H393V178H392.75H389.25H389V179H387V178H386.75H379.25H379V179H377V181H376V181.25V185.75V186H375.75H370.25H370V185H371V184.75V181.25V181H370V179H368V178H367.75H361.25H361V179H360.75H358.25H358V178H357.75H351.25H351V179H350V181H349V181.25V185.75V186H348.75H335.25H335V187H334.75H332.25H332V186H331.75H317.25H317V187H316.75H314.25H314V186H313.75H299.25H299V185.75V182.25V182H298V181H297V180H296V179H294V178H293.75H280.25H280V179H279V178H278.75H268.25H268V179H266V180H265V181H264V182H263V181H262V180H261V179H259V178H258.75H246.25H246V179H245.75H243.25H243V180H242V181H241V183H240V183.25V185.75V186H239.75H226.25H226V187H225V188H224V187H223V186H222.75H207.25H207V187H205V186H204.75H188.25H188V187H186V186H185.75H172.25H172V185H171V184.75V182.25V182H170V181H169V180H168V179H166V178H165.75H153.25H153V179H151V181H149V180H148V179H147V178H146V177H145V176H144V175H143V174H142V173H141V172H140V171H139V170H138V169H137V168H136.75H71.25H71V169H70V171H68V173H67.75H65.25H65V175H63V177H62V178H61V179H60V180H59V181H58V182H57V183H56V184H55V185H54V185.25V191.75V192H55V192.25V194.75V195H54V195.25V198.75V199H53.75H51.25C51 198.917 50.9167 199 51 199.25V216.75C51.0833 217 51 217.083 50.75 217H48.25C48 216.917 47.9167 217 48 217.25V234.75C48.0833 235 48 235.083 47.75 235H45.25H45V235.25V240.75V241H44V241.25V250.75V251H45V252H43V253H42V253.25V265.75C42.0833 266 42 266.083 41.75 266C40.8333 266 40.25 266 40 266V267H39V267.25V280.75C39.0833 281 39 281.083 38.75 281H37.25C37 280.917 36.9167 281 37 281.25V295.75V296H36V297H35V297.25V299.75V300H34V300.25V313.75V314H35V316H36V317H37V318H39V320H41V322H42V323H43V324H44V325H45V326H46V327H47V328H48V329H49V331H51V332H51.25H83.75H84V331H84.25H100.75H101V332H101.25H117.75H118V331H119V330H120V328H121V327H122V326H123V325H125V323H127V321H129V319H130V318H132V317H133V316H134V315H135V314.75V303.25C134.917 303 135 302.917 135.25 303C136.167 303 136.75 303 137 303V302H138V301.75V282.25V282H139V281.75V279.25V279H138V278ZM138 278H122.5H122V250.5V250H122.5H134V250.5V274H135V275H136V276H138V278ZM73 174V174.5V178H69.5H69V178.5V182H68V183H64.5H64V183.5V187H60.5C60.1667 187 60 187.167 60 187.5V202H57.5H57V203H56V203.5V220C55 220 54.3333 220 54 220V221H53V221.5V238H50.5C50.1667 238 50 238.167 50 238.5V255H48.5C48.1667 255 48 255.167 48 255.5V270H45.5C45.1667 270 45 270.167 45 270.5V284H42.5C42.1667 284 42 284.167 42 284.5V299C41 299 40.3333 299 40 299V299.5V313H40.5H44V313.5V317H44.5H48V317.5V321H49V322H49.5H53V322.5V326H53.5H115V325H116V324H115V323H116V322H116.5H119V321H120V317.5V317H120.5H124V313.5V313H124.5H129V299.5C129 299.167 129.167 299 129.5 299H133V285.5V285H132V284H101.5H101V284.5V303H97.5H97V303.5V307H96V308H74.5C74.1667 308 74 308 74 308V304.5V304H70.5H70V303H69V300.5V300H70V299H70.5H73V282.5V282H73.5H77V263.5C77 263.167 77.1667 263 77.5 263H80V247.5V247H80.5H83V230.5V230H84V229H85V213.5V213H86V212H86.5H89V197.5C89 197.167 89.1667 197 89.5 197H92V196H93V192.5V192H93.5H115C115 192 115 192.167 115 192.5V196H116V197H116.5H119V197.5V201H115.5C115.167 201 115 201.167 115 201.5V216H115.5H145V201.5C145 201.167 145.167 201 145.5 201H148V200H149V188.5V188H148V187H144.5H144V183.5V183H140.5H140V179.5V179H139V178H138V179H137V178H135V174.5C135 174.167 135 174 135 174H73.5H73ZM155 182V184H154V185H152V187H153V188H152V189H153V190H152V191H153V192H152V193H153V194H154V195H155V197H155.5H162V197.5V206H157.5H157V202.5V202H153.5H153V202.5V205H152V207H152.5H155V209H155.5H165C165 208 165 207.333 165 207H167V196.5V196H165C165 195.667 165 195.167 165 194.5C165 194.167 165 194 165 194H157.5H157V186.5V186H158V185H159V186H161V185H162V185.5V189H162.5H167V185.5C167 185.167 167 185 167 185C166 185 165.333 185 165 185V182.5V182H155.5H155ZM247 182V184H245V184.5V207C245 207 245.167 207 245.5 207C246.167 207 246.667 207 247 207V209H247.5H257C257 208 257 207.333 257 207H257.5H260V185.5V185H259V184H257C257 183.667 257 183.167 257 182.5C257 182.167 257 182 257 182H247.5H247ZM269 182V184H268V185H267V185.5V192H266V193H264V192H263V192.5V196H263.5H267C267 196 267 196.167 267 196.5V209H267.5H271V196.5V196H271.5H276V193.5V193H272.5H272V192H271V186.5V186H271.5H277V182.5V182H269.5H269ZM280 182V182.5V209H281V210H282V209H282.5H285V198.5V198H285.5H293C293 197 293 196.333 293 196H295V184.5V184H294V185H293V182.5C293 182.167 293 182 293 182H280.5H280ZM353 182V182.5V186H353.5H358V182.5V182H353.5H353ZM362 182V182.5V209H362.5H373V210H374V207.5V207H374.5H377V192.5V192H374.5H374C374 191.667 374 191.167 374 190.5C374 190.167 374 190 374 190H367.5H367V189H366V182.5V182H362.5H362ZM380 182V182.5V186H380.5H385V182.5V182H380.5H380ZM390 182V182.5V208H389V209H389.5H394V182.5C394 182.167 394 182 394 182H390.5H390ZM399 182V182.5V186H399.5H403V182.5V182H399.5H399ZM411 184V184.5V190H407.5H407V190.5V193H407.5H411C411 193 411 193.167 411 193.5V207H413C413 207.333 413 208 413 209C413 209 413.167 209 413.5 209H420V206.5V206H415.5H415V193.5V193H415.5H420V190.5V190H415.5H415V184.5V184H411.5H411ZM171 190V190.5V216H171.5H175V210.5V210H176V209H176.5H183C183 208 183 207.333 183 207H183.5H186V201.5V201H185V200H186V192.5C186 192.167 186 192 186 192H183.5H183V190H171.5H171ZM191 190V192H189V193H189.5H199V194H200V195H199V195.5V198H191.5C191.167 198 191 198.167 191 198.5C191 199.167 191 199.667 191 200H189V200.5V207C189 207 189.167 207 189.5 207C190.167 207 190.667 207 191 207V209H191.5H204V192.5V192H202C202 191.667 202 191.167 202 190.5C202 190.167 202 190 202 190H191.5H191ZM210 190V192H208V192.5V207H210C210 207.333 210 208 210 209C210 209 210.167 209 210.5 209H219V210H220V207.5V207H220.5H223V203.5V203H222V202H218.5H218V202.5V206H213.5H213V193.5V193H213.5H218V193.5V197H218.5H223V192.5V192H220.5H220V190H210.5H210ZM228 190V192H226V192.5V207C226 207 226.167 207 226.5 207C227.167 207 227.667 207 228 207V209H228.5H239V208H241C241 207.667 241 207.167 241 206.5C241 206.167 241 206 241 206H231.5H231V201.5V201H231.5H241V192.5C241 192.167 241 192 241 192C240 192 239.333 192 239 192V190H228.5H228ZM300 190V192H298V192.5V207C298 207 298.167 207 298.5 207H301V207.5V210H302V209H302.5H310V210H311V207.5V207H313V192.5V192H311C311 191.667 311 191.167 311 190.5C311 190.167 311 190 311 190H300.5H300ZM319 190V192H317V192.5V199H319C319 199.333 319 200 319 201C319 201 319.167 201 319.5 201H327V201.5V206H321.5C321.167 206 321 206 321 206C321 205 321 204.333 321 204H317.5H317V204.5V207H319V209H319.5H329C329 208 329 207.333 329 207H331V200.5V200H329C329 199.667 329 199.167 329 198.5C329 198.167 329 198 329 198H322.5H322V195.5V195H321V194H322V193H322.5H327V194H327.5H331V192H329C329 191.667 329 191.167 329 190.5C329 190.167 329 190 329 190H319.5H319ZM337 190V192H335V192.5V198C335 198 335.167 198 335.5 198C336.167 198 336.667 198 337 198V198.5V201H337.5H345V201.5V206H340.5H340V205H339V204H335.5H335V204.5V207H337V209H337.5H347C347 208 347 207.333 347 207H349V200.5V200H347C347 199.667 347 199.167 347 198.5C347 198.167 347 198 347 198H340.5H340V193.5V193H340.5H345V194H345.5H349V192H347C347 191.667 347 191.167 347 190.5C347 190.167 347 190 347 190H337.5H337ZM353 190V190.5V209C353 209 353.167 209 353.5 209H358V190.5C358 190.167 358 190 358 190H353.5H353ZM380 190V190.5V209C380 209 380.167 209 380.5 209H385V190.5C385 190.167 385 190 385 190H380.5H380ZM399 190V190.5V209C399 209 399.167 209 399.5 209H403V190.5C403 190.167 403 190 403 190H399.5H399ZM425 190V192H423V192.5V207H425C425 207.333 425 208 425 209C425 209 425.167 209 425.5 209H435V210H436V208H438C438 207.667 438 207.167 438 206.5C438 206.167 438 206 438 206H428.5H428V201.5V201H428.5H438V192.5C438 192.167 438 192 438 192C437 192 436.333 192 436 192V190H425.5H425ZM444 190V192H442V192.5V199H444C444 199.333 444 200 444 201C444 201 444.167 201 444.5 201H451V201.5V206H446.5C446.167 206 446 206 446 206C446 205 446 204.333 446 204H442.5H442V204.5V207H444V209H444.5H454C454 208 454 207.333 454 207H456V200.5V200H454C454 199.667 454 199.167 454 198.5C454 198.167 454 198 454 198H446.5H446V193.5V193H446.5H451V194H451.5H456V192H454C454 191.667 454 191.167 454 190.5C454 190.167 454 190 454 190H444.5H444ZM275 202V202.5V208H276V202.5V202H275ZM224 220V220.5V231H216.5H216V231.5V240H216.5H223V241H224V241.5V271H224.5H228V271.5V275C228 275 228.167 275 228.5 275H244V267.5V267H243V266H235.5H235V241.5V241H236V240H236.5H244V232.5V232H243V231H235.5H235V220.5V220H224.5H224ZM440 220V220.5V231H434.5H434V232H433V232.5V240H433.5H440C440 240 440 240.167 440 240.5V271H440.5H444V271.5V275C444 275 444.167 275 444.5 275H460V266.5V266H452.5H452V240.5C452 240.167 452.167 240 452.5 240H460V231.5V231H452.5H452V220.5V220H440.5H440ZM105 231V231.5V234H104V234.5V237H105V237.5V254H104V256H105V257H104V257.5V261H105V261.5V275H105.5H116V245.5C116 245.167 116.167 245 116.5 245H120V243H121V242H120V241H121V240H121.5H125V240.5V245H125.5H135V236.5V236H131.5H131V232.5V232H130V231H121.5H121V232H120V232.5V236H117.5H117V235H116V231.5C116 231.167 116 231 116 231H105.5H105ZM144 231V231.5V235H143V236H139.5H139V236.5V258H140V258.5V264H139V264.5V270H140V271H140.5H144V271.5V275H144.5H169V271.5V271H169.5H173V266.5C173 266.167 173 266 173 266H151.5H151V258.5V258H151.5H172V257H173V236.5C173 236.167 173 236 173 236H169.5H169V232.5V232H168V231H144.5H144ZM183 231V232H182V232.5V236H178.5H178V236.5V240C178 240 178.167 240 178.5 240H200V240.5V249H183.5C183.167 249 183 249.167 183 249.5C183 250.167 183 250.667 183 251H182V253H179.5H179V254H178V254.5V270H179V271H179.5H183V271.5V275H183.5H212V236.5V236H208.5H208V232.5V232H206V231H183.5H183ZM253 231V231.5V235H252V236H248.5H248V236.5V263H249V264H248V264.5V270H249V271H249.5H253V271.5V275H253.5H278V271.5V271H278.5H282V236.5V236H278.5H278V232.5V232H277V231H253.5H253ZM288 231V232H287V232.5V275H287.5H298V274H299V272H298V271H299V265.5V265H298V260.5V260H299V254.5V254H298V248.5V248H299V247H298V246H299V245H299.5H303V240.5V240H303.5H307V240.5V244H308V245H308.5H317V236.5C317 236.167 317 236 317 236H314.5H314V235H313V231.5V231H304.5H304V232H303V232.5V235H302V236H299.5H299V232.5V232H298V231H288.5H288ZM323 231V232H322V232.5V288H322.5H333V275.5V275H333.5H351V271.5V271H351.5H355V236.5V236H351.5H351V232.5V232H350V231H323.5H323ZM365 231V232H364V232.5V236H360.5H360V236.5V270H361V271H361.5H364V271.5V274H365V275H365.5H389V274H390V271.5V271H390.5H393V270H394V236.5V236H390.5H390V232.5V232H389V231H365.5H365ZM400 231V232H399V232.5V275H399.5H410V274H411V254.5V254H410V253H411V251H410V248.5V248H411V247H410V245H410.5H415V240.5V240H415.5H419V240.5V244H420V245H420.5H429V236.5V236H425.5H425V232.5V232H424V231H415.5H415V231.5V235H414V236H411.5H411V234H410V233H411V232H410V231H400.5H400ZM242 248V248.5V261H243V248.5V248H242Z" stroke="#ECE9EA"/>
</g>
<path opacity="0.866667" d="M285 185C285.25 185 285.833 185 286.75 185H287V186H289V185H290V186H291V187H290V187.25V194.75V195H289.75H285.25H285V194.75V185.25V185Z" fill="#ECE9EA" stroke="#ECE9EA"/>
<path opacity="0.866667" d="M249 186H249.25H254.75C255 185.917 255.083 186 255 186.25V205.75V206H254.75H249.25C249 206.083 248.917 206 249 205.75V186.25V186Z" fill="#ECE9EA" stroke="#ECE9EA"/>
<path opacity="0.866667" d="M175 193H175.25H180.75H181V193.25V205.75V206H180.75H175.25H175V205.75V193.25V193Z" fill="#ECE9EA" stroke="#ECE9EA"/>
<path opacity="0.866667" d="M231 193H231.25H235.75H236V193.25V197.75V198H235.75H231.25H231V197.75V193.25V193Z" fill="#ECE9EA" stroke="#ECE9EA"/>
<path opacity="0.866667" d="M303 193H303.25H307.75H308V193.25V205.75V206H307.75H303.25H303V205.75V193.25V193Z" fill="#ECE9EA" stroke="#ECE9EA"/>
<path opacity="0.866667" d="M366 193H366.25H371.75H372V193.25V205.75V206H371.75H366.25H366V205.75V193.25V193Z" fill="#ECE9EA" stroke="#ECE9EA"/>
<path opacity="0.866667" d="M428 193H428.25H432.75H433V193.25V197.75V198H432.75H428.25H428V197.75V193.25V193Z" fill="#ECE9EA" stroke="#ECE9EA"/>
<path opacity="0.866667" d="M194 201H194.25H198.75H199V201.25V205.75V206H198.75H194.25H194V205.75V201.25V201Z" fill="#ECE9EA" stroke="#ECE9EA"/>
<path opacity="0.866667" d="M151 240H151.25H160.75H161V240.25V248.75V249H160.75H151.25H151V248.75V240.25V240Z" fill="#ECE9EA" stroke="#ECE9EA"/>
<path opacity="0.866667" d="M260 240H260.25H269.75H270V240.25V265.75V266H269.75H260.25H260V265.75V240.25V240Z" fill="#ECE9EA" stroke="#ECE9EA"/>
<path opacity="0.866667" d="M334 240H334.25H342.75H343V241H344V241.25V265.75V266H343.75H333.25H333V265.75V241.25V241H334V240Z" fill="#ECE9EA" stroke="#ECE9EA"/>
<path opacity="0.866667" d="M372 240H372.25H381.75H382V240.25V265.75V266H381.75H372.25H372V265.75V240.25V240Z" fill="#ECE9EA" stroke="#ECE9EA"/>
<path opacity="0.866667" d="M190 258H190.25H199.75H200V258.25V265.75V266H199.75H190.25H190V265.75V258.25V258Z" fill="#ECE9EA" stroke="#ECE9EA"/>
<path opacity="0.996078" d="M73 174H73.25H134.75C135 173.917 135.083 174 135 174.25V177.75V178H137V179H138V178H139V179H140V179.25V182.75V183H140.25H143.75H144V183.25V186.75V187H144.25H147.75H148V188H149V188.25V199.75V200H148V201H147.75H145.25C145 200.917 144.917 201 145 201.25V215.75V216H144.75H115.25H115V215.75V201.25C114.917 201 115 200.917 115.25 201H118.75H119V200.75V197.25V197H118.75H116.25H116V196H115V195.75V192.25C115.083 192 115 191.917 114.75 192H93.25H93V192.25V195.75V196H92V197H91.75H89.25C89 196.917 88.9167 197 89 197.25V211.75V212H88.75H86.25H86V213H85V213.25V228.75V229H84V230H83V230.25V246.75C83.0833 247 83 247.083 82.75 247H80.25H80V247.25V262.75C80.0833 263 80 263.083 79.75 263H77.25C77 262.917 76.9167 263 77 263.25V281.75C77.0833 282 77 282.083 76.75 282H73.25H73V282.25V298.75C73.0833 299 73 299.083 72.75 299H70.25H70V300H69V300.25V302.75V303H70V304H70.25H73.75H74V304.25V307.75C73.9167 308 74 308.083 74.25 308H95.75H96V307H97V306.75V303.25V303H97.25H100.75C101 303.083 101.083 303 101 302.75V284.25V284H101.25H131.75H132V285H133V285.25V298.75V299H132.75H129.25C129 298.917 128.917 299 129 299.25V312.75V313H128.75H124.25H124V313.25V316.75V317H123.75H120.25H120V317.25V320.75V321H119V322H118.75H116.25H116V323H115V324H116V325H115V326H114.75H53.25H53V325.75V322.25V322H52.75H49.25H49V321H48V320.75V317.25V317H47.75H44.25H44V316.75V313.25V313H43.75H40.25H40V312.75V299.25V299C40.25 299 40.8333 299 41.75 299C42 299.083 42.0833 299 42 298.75V284.25C41.9167 284 42 283.917 42.25 284H44.75C45 284.083 45.0833 284 45 283.75V270.25C44.9167 270 45 269.917 45.25 270H47.75C48 270.083 48.0833 270 48 269.75V255.25C47.9167 255 48 254.917 48.25 255H49.75C50 255.083 50.0833 255 50 254.75V238.25C49.9167 238 50 237.917 50.25 238H52.75C53 238.083 53.0833 238 53 237.75V221.25V221H54V220C54.25 220 54.8333 220 55.75 220C56 220.083 56.0833 220 56 219.75V203.25V203H57V202H57.25H59.75C60 202.083 60.0833 202 60 201.75V187.25C59.9167 187 60 186.917 60.25 187H63.75H64V186.75V183.25V183H64.25H67.75H68V182H69V181.75V178.25V178H69.25H72.75H73V177.75V174.25V174Z" fill="#C71B27" stroke="#C71B27"/>
<path opacity="0.996078" d="M155 182H155.25H164.75H165V182.25V184.75V185C165.25 185 165.833 185 166.75 185C167 184.917 167.083 185 167 185.25V188.75V189H166.75H162.25H162V188.75V185.25V185H161V186H159V185H158V186H157V186.25V193.75V194H157.25H164.75C165 193.917 165.083 194 165 194.25C165 195.167 165 195.75 165 196H167V196.25V206.75V207H165C165 207.25 165 207.833 165 208.75C165.083 209 165 209.083 164.75 209H155.25H155V207H154.75H152.25H152V205H153V204.75V202.25V202H153.25H156.75H157V202.25V205.75V206H157.25H161.75H162V205.75V197.25V197H161.75H155.25H155V195H154V194H153V193H152V192H153V191H152V190H153V189H152V188H153V187H152V185H154V184H155V182Z" fill="#C71B27" stroke="#C71B27"/>
<path opacity="0.996078" d="M247 182H247.25H256.75C257 181.917 257.083 182 257 182.25C257 183.167 257 183.75 257 184H259V185H260V185.25V206.75V207H259.75H257.25H257C257 207.25 257 207.833 257 208.75C257.083 209 257 209.083 256.75 209H247.25H247V207C246.75 207 246.167 207 245.25 207C245 207.083 244.917 207 245 206.75V184.25V184H247V182ZM249 186V186.5V206C249 206 249.167 206 249.5 206H255V186.5C255 186.167 255 186 255 186H249.5H249Z" fill="#C71B27" stroke="#C71B27"/>
<path opacity="0.996078" d="M269 182H269.25H276.75H277V182.25V185.75V186H276.75H271.25H271V186.25V191.75V192H272V193H272.25H275.75H276V193.25V195.75V196H275.75H271.25H271V196.25V208.75C271.083 209 271 209.083 270.75 209H267.25H267V208.75V196.25C267.083 196 267 195.917 266.75 196H263.25H263V195.75V192.25V192H264V193H266V192H267V191.75V185.25V185H268V184H269V182Z" fill="#C71B27" stroke="#C71B27"/>
<path opacity="0.996078" d="M280 182H280.25H292.75C293 181.917 293.083 182 293 182.25V184.75V185H294V184H295V184.25V195.75V196H293C293 196.25 293 196.833 293 197.75C293.083 198 293 198.083 292.75 198H285.25H285V198.25V208.75C285.083 209 285 209.083 284.75 209H282.25H282V210H281V209H280V208.75V182.25V182ZM285 185V185.5V195H285.5H290V187.5V187H291V186H290V185H289V186H287V185C286 185 285.333 185 285 185Z" fill="#C71B27" stroke="#C71B27"/>
<path opacity="0.996078" d="M353 182H353.25H357.75H358V182.25V185.75V186H357.75H353.25H353V185.75V182.25V182Z" fill="#C71B27" stroke="#C71B27"/>
<path opacity="0.996078" d="M362 182H362.25H365.75H366V182.25V188.75V189H367V190H367.25H373.75C374 189.917 374.083 190 374 190.25C374 191.167 374 191.75 374 192H374.25H376.75H377V192.25V206.75V207H376.75H374.25H374V207.25V209.75V210H373V209H372.75H362.25H362V208.75V182.25V182ZM366 193V193.5V206H366.5H372V193.5V193H366.5H366Z" fill="#C71B27" stroke="#C71B27"/>
<path opacity="0.996078" d="M380 182H380.25H384.75H385V182.25V185.75V186H384.75H380.25H380V185.75V182.25V182Z" fill="#C71B27" stroke="#C71B27"/>
<path opacity="0.996078" d="M390 182H390.25H393.75C394 181.917 394.083 182 394 182.25V208.75V209H393.75H389.25H389V208H390V207.75V182.25V182Z" fill="#C71B27" stroke="#C71B27"/>
<path opacity="0.996078" d="M399 182H399.25H402.75H403V182.25V185.75V186H402.75H399.25H399V185.75V182.25V182Z" fill="#C71B27" stroke="#C71B27"/>
<path opacity="0.996078" d="M411 184H411.25H414.75H415V184.25V189.75V190H415.25H419.75H420V190.25V192.75V193H419.75H415.25H415V193.25V205.75V206H415.25H419.75H420V206.25V208.75V209H419.75H413.25C413 209.083 412.917 209 413 208.75C413 207.833 413 207.25 413 207H411V206.75V193.25C411.083 193 411 192.917 410.75 193H407.25H407V192.75V190.25V190H407.25H410.75H411V189.75V184.25V184Z" fill="#C71B27" stroke="#C71B27"/>
<path opacity="0.996078" d="M171 190H171.25H182.75H183V192H183.25H185.75C186 191.917 186.083 192 186 192.25V199.75V200H185V201H186V201.25V206.75V207H185.75H183.25H183C183 207.25 183 207.833 183 208.75C183.083 209 183 209.083 182.75 209H176.25H176V210H175V210.25V215.75V216H174.75H171.25H171V215.75V190.25V190ZM175 193V193.5V206H175.5H181V193.5V193H175.5H175Z" fill="#C71B27" stroke="#C71B27"/>
<path opacity="0.996078" d="M191 190H191.25H201.75C202 189.917 202.083 190 202 190.25C202 191.167 202 191.75 202 192H204V192.25V208.75V209H203.75H191.25H191V207C190.75 207 190.167 207 189.25 207C189 207.083 188.917 207 189 206.75V200.25V200H191C191 199.75 191 199.167 191 198.25C190.917 198 191 197.917 191.25 198H198.75H199V197.75V195.25V195H200V194H199V193H198.75H189.25H189V192H191V190ZM194 201V201.5V206H194.5H199V201.5V201H194.5H194Z" fill="#C71B27" stroke="#C71B27"/>
<path opacity="0.996078" d="M210 190H210.25H219.75H220V192H220.25H222.75H223V192.25V196.75V197H222.75H218.25H218V196.75V193.25V193H217.75H213.25H213V193.25V205.75V206H213.25H217.75H218V205.75V202.25V202H218.25H221.75H222V203H223V203.25V206.75V207H222.75H220.25H220V207.25V209.75V210H219V209H218.75H210.25C210 209.083 209.917 209 210 208.75C210 207.833 210 207.25 210 207H208V206.75V192.25V192H210V190Z" fill="#C71B27" stroke="#C71B27"/>
<path opacity="0.996078" d="M228 190H228.25H238.75H239V192C239.25 192 239.833 192 240.75 192C241 191.917 241.083 192 241 192.25V200.75V201H240.75H231.25H231V201.25V205.75V206H231.25H240.75C241 205.917 241.083 206 241 206.25C241 207.167 241 207.75 241 208H239V209H238.75H228.25H228V207C227.75 207 227.167 207 226.25 207C226 207.083 225.917 207 226 206.75V192.25V192H228V190ZM231 193V193.5V198H231.5H236V193.5V193H231.5H231Z" fill="#C71B27" stroke="#C71B27"/>
<path opacity="0.996078" d="M300 190H300.25H310.75C311 189.917 311.083 190 311 190.25C311 191.167 311 191.75 311 192H313V192.25V206.75V207H311V207.25V209.75V210H310V209H309.75H302.25H302V210H301V209.75V207.25V207H300.75H298.25C298 207.083 297.917 207 298 206.75V192.25V192H300V190ZM303 193V193.5V206H303.5H308V193.5V193H303.5H303Z" fill="#C71B27" stroke="#C71B27"/>
<path opacity="0.996078" d="M319 190H319.25H328.75C329 189.917 329.083 190 329 190.25C329 191.167 329 191.75 329 192H331V194H330.75H327.25H327V193H326.75H322.25H322V194H321V195H322V195.25V197.75V198H322.25H328.75C329 197.917 329.083 198 329 198.25C329 199.167 329 199.75 329 200H331V200.25V206.75V207H329C329 207.25 329 207.833 329 208.75C329.083 209 329 209.083 328.75 209H319.25H319V207H317V206.75V204.25V204H317.25H320.75H321C321 204.25 321 204.833 321 205.75C320.917 206 321 206.083 321.25 206H326.75H327V205.75V201.25V201H326.75H319.25C319 201.083 318.917 201 319 200.75C319 199.833 319 199.25 319 199H317V198.75V192.25V192H319V190Z" fill="#C71B27" stroke="#C71B27"/>
<path opacity="0.996078" d="M337 190H337.25H346.75C347 189.917 347.083 190 347 190.25C347 191.167 347 191.75 347 192H349V194H348.75H345.25H345V193H344.75H340.25H340V193.25V197.75V198H340.25H346.75C347 197.917 347.083 198 347 198.25C347 199.167 347 199.75 347 200H349V200.25V206.75V207H347C347 207.25 347 207.833 347 208.75C347.083 209 347 209.083 346.75 209H337.25H337V207H335V206.75V204.25V204H335.25H338.75H339V205H340V206H340.25H344.75H345V205.75V201.25V201H344.75H337.25H337V200.75V198.25V198C336.75 198 336.167 198 335.25 198C335 198.083 334.917 198 335 197.75V192.25V192H337V190Z" fill="#C71B27" stroke="#C71B27"/>
<path opacity="0.996078" d="M353 190H353.25H357.75C358 189.917 358.083 190 358 190.25V208.75V209H357.75H353.25C353 209.083 352.917 209 353 208.75V190.25V190Z" fill="#C71B27" stroke="#C71B27"/>
<path opacity="0.996078" d="M380 190H380.25H384.75C385 189.917 385.083 190 385 190.25V208.75V209H384.75H380.25C380 209.083 379.917 209 380 208.75V190.25V190Z" fill="#C71B27" stroke="#C71B27"/>
<path opacity="0.996078" d="M399 190H399.25H402.75C403 189.917 403.083 190 403 190.25V208.75V209H402.75H399.25C399 209.083 398.917 209 399 208.75V190.25V190Z" fill="#C71B27" stroke="#C71B27"/>
<path opacity="0.996078" d="M425 190H425.25H435.75H436V192C436.25 192 436.833 192 437.75 192C438 191.917 438.083 192 438 192.25V200.75V201H437.75H428.25H428V201.25V205.75V206H428.25H437.75C438 205.917 438.083 206 438 206.25C438 207.167 438 207.75 438 208H436V210H435V209H434.75H425.25C425 209.083 424.917 209 425 208.75C425 207.833 425 207.25 425 207H423V206.75V192.25V192H425V190ZM428 193V193.5V198H428.5H433V193.5V193H428.5H428Z" fill="#C71B27" stroke="#C71B27"/>
<path opacity="0.996078" d="M444 190H444.25H453.75C454 189.917 454.083 190 454 190.25C454 191.167 454 191.75 454 192H456V194H455.75H451.25H451V193H450.75H446.25H446V193.25V197.75V198H446.25H453.75C454 197.917 454.083 198 454 198.25C454 199.167 454 199.75 454 200H456V200.25V206.75V207H454C454 207.25 454 207.833 454 208.75C454.083 209 454 209.083 453.75 209H444.25H444V207H442V206.75V204.25V204H442.25H445.75H446C446 204.25 446 204.833 446 205.75C445.917 206 446 206.083 446.25 206H450.75H451V205.75V201.25V201H450.75H444.25C444 201.083 443.917 201 444 200.75C444 199.833 444 199.25 444 199H442V198.75V192.25V192H444V190Z" fill="#C71B27" stroke="#C71B27"/>
<path opacity="0.996078" d="M224 220H224.25H234.75H235V220.25V230.75V231H235.25H242.75H243V232H244V232.25V239.75V240H243.75H236.25H236V241H235V241.25V265.75V266H235.25H242.75H243V267H244V267.25V274.75V275H243.75H228.25C228 275.083 227.917 275 228 274.75V271.25V271H227.75H224.25H224V270.75V241.25V241H223V240H222.75H216.25H216V239.75V231.25V231H216.25H223.75H224V230.75V220.25V220Z" fill="#C71B27" stroke="#C71B27"/>
<path opacity="0.996078" d="M440 220H440.25H451.75H452V220.25V230.75V231H452.25H459.75H460V231.25V239.75V240H459.75H452.25C452 239.917 451.917 240 452 240.25V265.75V266H452.25H459.75H460V266.25V274.75V275H459.75H444.25C444 275.083 443.917 275 444 274.75V271.25V271H443.75H440.25H440V270.75V240.25C440.083 240 440 239.917 439.75 240H433.25H433V239.75V232.25V232H434V231H434.25H439.75H440V230.75V220.25V220Z" fill="#C71B27" stroke="#C71B27"/>
<path opacity="0.996078" d="M105 231H105.25H115.75C116 230.917 116.083 231 116 231.25V234.75V235H117V236H117.25H119.75H120V235.75V232.25V232H121V231H121.25H129.75H130V232H131V232.25V235.75V236H131.25H134.75H135V236.25V244.75V245H134.75H125.25H125V244.75V240.25V240H124.75H121.25H121V241H120V242H121V243H120V245H119.75H116.25C116 244.917 115.917 245 116 245.25V274.75V275H115.75H105.25H105V274.75V261.25V261H104V260.75V257.25V257H105V256H104V254H105V253.75V237.25V237H104V236.75V234.25V234H105V233.75V231.25V231Z" fill="#C71B27" stroke="#C71B27"/>
<path opacity="0.996078" d="M144 231H144.25H167.75H168V232H169V232.25V235.75V236H169.25H172.75C173 235.917 173.083 236 173 236.25V256.75V257H172V258H171.75H151.25H151V258.25V265.75V266H151.25H172.75C173 265.917 173.083 266 173 266.25V270.75V271H172.75H169.25H169V271.25V274.75C169.083 275 169 275.083 168.75 275H144.25H144V274.75V271.25V271H143.75H140.25H140V270H139V269.75V264.25V264H140V263.75V258.25V258H139V257.75V236.25V236H139.25H142.75H143V235H144V234.75V231.25V231ZM151 240V240.5V249H151.5H161V240.5V240H151.5H151Z" fill="#C71B27" stroke="#C71B27"/>
<path opacity="0.996078" d="M183 231H183.25H205.75H206V232H208V232.25V235.75V236H208.25H211.75H212V236.25V274.75V275H211.75H183.25H183V274.75V271.25V271H182.75H179.25H179V270H178V269.75V254.25V254H179V253H179.25H181.75H182V251H183C183 250.75 183 250.167 183 249.25C182.917 249 183 248.917 183.25 249H199.75H200V248.75V240.25V240H199.75H178.25C178 240.083 177.917 240 178 239.75V236.25V236H178.25H181.75H182V235.75V232.25V232H183V231ZM190 258V258.5V266H190.5H200V258.5V258H190.5H190Z" fill="#C71B27" stroke="#C71B27"/>
<path opacity="0.996078" d="M253 231H253.25H276.75H277V232H278V232.25V235.75V236H278.25H281.75H282V236.25V270.75V271H281.75H278.25H278V271.25V274.75C278.083 275 278 275.083 277.75 275H253.25H253V274.75V271.25V271H252.75H249.25H249V270H248V269.75V264.25V264H249V263H248V262.75V236.25V236H248.25H251.75H252V235H253V234.75V231.25V231ZM260 240V240.5V266H260.5H270V240.5V240H260.5H260Z" fill="#C71B27" stroke="#C71B27"/>
<path opacity="0.996078" d="M288 231H288.25H297.75H298V232H299V232.25V235.75V236H299.25H301.75H302V235H303V234.75V232.25V232H304V231H304.25H312.75H313V231.25V234.75V235H314V236H314.25H316.75C317 235.917 317.083 236 317 236.25V244.75V245H316.75H308.25H308V244H307V243.75V240.25V240H306.75H303.25H303V240.25V244.75V245H302.75H299.25H299V246H298V247H299V248H298V248.25V253.75V254H299V254.25V259.75V260H298V260.25V264.75V265H299V265.25V270.75V271H298V272H299V274H298V275H297.75H287.25H287V274.75V232.25V232H288V231Z" fill="#C71B27" stroke="#C71B27"/>
<path opacity="0.996078" d="M323 231H323.25H349.75H350V232H351V232.25V235.75V236H351.25H354.75H355V236.25V270.75V271H354.75H351.25H351V271.25V274.75C351.083 275 351 275.083 350.75 275H333.25H333V275.25V287.75V288H332.75H322.25H322V287.75V232.25V232H323V231ZM334 240V241H333V241.5V266H333.5H344V241.5V241H343V240H334.5H334Z" fill="#C71B27" stroke="#C71B27"/>
<path opacity="0.996078" d="M365 231H365.25H388.75H389V232H390V232.25V235.75V236H390.25H393.75H394V236.25V269.75V270H393V271H392.75H390.25H390V271.25V273.75V274H389V275H388.75H365.25H365V274H364V273.75V271.25V271H363.75H361.25H361V270H360V269.75V236.25V236H360.25H363.75H364V235.75V232.25V232H365V231ZM372 240V240.5V266H372.5H382V240.5V240H372.5H372Z" fill="#C71B27" stroke="#C71B27"/>
<path opacity="0.996078" d="M400 231H400.25H409.75H410V232H411V233H410V234H411V236H411.25H413.75H414V235H415V234.75V231.25V231H415.25H423.75H424V232H425V232.25V235.75V236H425.25H428.75H429V236.25V244.75V245H428.75H420.25H420V244H419V243.75V240.25V240H418.75H415.25H415V240.25V244.75V245H414.75H410.25H410V247H411V248H410V248.25V250.75V251H411V253H410V254H411V254.25V273.75V274H410V275H409.75H399.25H399V274.75V232.25V232H400V231Z" fill="#C71B27" stroke="#C71B27"/>
</g>
<defs>
<clipPath id="clip0_3313_5">
<rect width="500" height="500" fill="white"/>
</clipPath>
</defs>
</svg>
