<?xml version="1.0" encoding="UTF-8" standalone="no"?>
<!-- Created with Inkscape (http://www.inkscape.org/) -->

<svg
   version="1.1"
   id="svg1"
   width="1696.8951"
   height="737.88464"
   viewBox="0 0 1696.8951 737.88464"
   sodipodi:docname="234234.png"
   xmlns:inkscape="http://www.inkscape.org/namespaces/inkscape"
   xmlns:sodipodi="http://sodipodi.sourceforge.net/DTD/sodipodi-0.dtd"
   xmlns="http://www.w3.org/2000/svg"
   xmlns:svg="http://www.w3.org/2000/svg">
  <defs
     id="defs1" />
  <sodipodi:namedview
     id="namedview1"
     pagecolor="#ffffff"
     bordercolor="#000000"
     borderopacity="0.25"
     inkscape:showpageshadow="2"
     inkscape:pageopacity="0.0"
     inkscape:pagecheckerboard="0"
     inkscape:deskcolor="#d1d1d1"
     showgrid="false">
    <inkscape:page
       x="0"
       y="0"
       width="1696.8951"
       height="737.88464"
       id="page2"
       margin="0"
       bleed="0" />
  </sodipodi:namedview>
  <g
     inkscape:groupmode="layer"
     inkscape:label="Image"
     id="g1"
     transform="translate(1998.7445,358.09744)">
    <path
       style="fill:#ffffff"
       d="m -1902.35,378.8312 c -4.675,-0.4292 -13,-1.7641 -18.5,-2.9663 -31.1971,-6.8195 -52.4882,-22.1187 -65.3352,-46.9481 -9.8391,-19.016 -12.6779,-31.5705 -12.5556,-55.5263 0.076,-14.7813 0.4908,-19.0229 3.1827,-32.5 4.1486,-20.7704 11.0288,-56.579 17.1963,-89.5 4.8788,-26.042 13.0621,-68.611398 26.5284,-137.999998 3.5224,-18.1500001 7.1251,-37.05 8.0061,-42 1.8701,-10.5069 14.3909,-75.712502 21.6024,-112.500002 5.1985,-26.5192 6.6222,-34.0779 9.8883,-52.49997 3.2761,-18.47883 11.9905,-61.6682 13.6197,-67.5 5.8909,-21.08757 13.9152,-37.00991 26.5011,-52.58555 19.3082,-23.89469 49.0901,-39.57706 82.3658,-43.37171 5.4997,-0.62717 44.0028,-1.02795 99,-1.03051 97.3362,-0.005 98.0694,0.0299 116.9302,5.49559 35.6348,10.32654 57.8908,34.71944 64.0846,70.23756 3.0855,17.69335 1.9502,35.12662 -4.4773,68.75462 -1.0512,5.5 -3.5523,19 -5.5579,30 -2.0056,10.99997 -5.4089,28.98017 -7.563,39.95587 -2.1541,10.9757 -3.9166,20.0882 -3.9166,20.25 0,0.1618 -29.25,0.2941 -65,0.2941 -58.767,0 -65,-0.1525 -65,-1.5912 0,-2.194 5.37,-32.9668 9.7563,-55.90877 6.1114,-31.96429 4.7776,-45.06417 -5.6496,-55.48631 -3.5996,-3.59793 -6.1985,-5.11609 -11.8879,-6.94455 l -7.2812,-2.34 -30.7188,-0.0631 c -27.2593,-0.056 -31.3382,0.1439 -36.2188,1.77462 -24.1146,8.05718 -34.0058,21.06515 -39.0426,51.34514 -1.0717,6.44279 -3.2925,18.68917 -4.9352,27.21417 -1.6426,8.525 -5.0503,26.75 -7.5725,40.5 -8.0094,43.663002 -15.4679,83.767402 -16.9238,91.000002 -1.497,7.4367 -2.4981,12.8387 -7.9686,42.9999999 -1.8953,10.4500001 -4.8071,25.9750001 -6.4705,34.5000001 -1.6634,8.525 -4.365,22.925 -6.0037,32 -1.6387,9.075 -4.1012,22.575 -5.4722,29.999998 -1.3711,7.425 -3.1674,17.325 -3.9917,22 -1.4594,8.2761 -10.1747,54.9634 -13.0673,70 -6.3309,32.9104 -6.7232,40.2901 -2.6344,49.5612 2.8308,6.4185 9.0887,12.7358 15.4837,15.6307 l 5.0988,2.3081 33.75,0.321 c 36.4909,0.347 38.614,0.1199 50.2654,-5.3778 9.5788,-4.5197 18.7427,-15.3267 24.0175,-28.324 2.6231,-6.4635 3.6514,-11.2127 11.934,-55.1192 2.5419,-13.475 5.0837,-26.8625 5.6483,-29.75 l 1.0266,-5.25 h 65.3355 c 61.7044,0 65.314,0.097 64.95,1.75 -0.212,0.9625 -1.7714,9.625 -3.4653,19.25 -1.6939,9.625 -4.1974,23.125 -5.5634,30 -1.366,6.875 -3.6011,19.025 -4.967,27 -2.7858,16.266 -3.3021,19.0132 -10.4314,55.5 -5.7115,29.2314 -7.3472,35.0016 -13.7306,48.4377 -5.6336,11.8579 -10.418,18.4426 -20.7529,28.5623 -9.9128,9.7063 -21.114,16.6049 -34.2542,21.0963 -18.6043,6.3591 -19.8048,6.419 -125.5059,6.2643 -52.3911,-0.077 -99.0816,-0.4907 -103.7566,-0.9199 z m 706.2507,-269.4372 c -12.2555,-3.4136 -19.3172,-9.832198 -23.3496,-21.223098 l -2.4003,-6.7804 -0.2955,-69.4557 c -0.3123,-73.4201 -0.028,-79.413 4.1989,-88.5443 7.1141,-15.3681 20.6434,-20.2752 53.0661,-19.247 13.1571,0.4173 17.0427,0.8945 21.6823,2.6631 11.7838,4.4919 18.4924,12.4142 20.8179,24.5839 0.8161,4.2703 1.0576,27.3393 0.8381,80.0224 l -0.3086,74.0224 -3.292,6.6856 c -3.8675,7.8546 -8.9367,12.575098 -16.9903,15.821798 -5.246,2.1149 -7.4914,2.3301 -27.2177,2.6093 -16.5574,0.2342 -22.7067,-0.032 -26.7493,-1.158 z m 32.4125,-35.065698 c 2.8384,-1.7978 2.846,-1.9938 2.7962,-72.1122001 -0.033,-46.7426999 -0.2932,-57.6465999 -1.4256,-59.7624999 -2.8622,-5.3479 -14.0488,-5.902 -17.9905,-0.891 l -2.0433,2.5977 V 7.8343019 c 0,49.3923001 0.2806,64.0578001 1.2512,65.3850001 2.656,3.6324 12.4436,4.2557 17.412,1.109 z m 305.83678,35.138198 c -12.4429,-3.1207 -18.1162,-7.4977 -22.7408,-17.544798 -4.1641,-9.0467 -4.4284,-15.0442 -4.0551,-92.03120011 0.3523,-72.65069989 0.4056,-73.29449989 6.7817,-81.98059989 2.2843,-3.1119 5.4192,-5.7329 9.2361,-7.7223 9.7799,-5.0973 13.9778,-5.7971 34.7781,-5.7971 17.1384,0 19.6859,0.2256 26,2.3024 10.4353,3.4324 16.0105,7.9381 19.8226,16.0201 l 3.1496,6.6775 0.5139,19 c 0.2827,10.45 0.2847,45.5499999 0,78 -0.4619,53.4991 -0.6755,59.4196 -2.291,63.5 -4.2124,10.639898 -10.2259,15.750798 -22.5551,19.169598 -5.3707,1.4892 -10.0535,1.8146 -25.1228,1.7454 -11.2323,-0.052 -20.4895,-0.5786 -23.5217,-1.339 z m 30.416,-34.032498 c 1.8604,-0.9621 3.0318,-2.5322 3.4503,-4.625 1.1755,-5.8771 0.7306,-124.6117 -0.4767,-127.2615 -1.549,-3.3996 -5.3409,-5.157 -11.1275,-5.157 -4.1743,0 -5.3095,0.4351 -7.3626,2.822 l -2.4273,2.822 0.043,62.9442999 c 0.031,44.9866001 0.3687,63.6597001 1.1853,65.4520001 0.6349,1.3933 2.2885,2.7581 3.7212,3.0712 1.4182,0.3099 3.0285,0.7136 3.5785,0.8971 2.457,0.8196 6.8319,0.3712 9.416,-0.9651 z M -1622.35,7.3008019 V -94.288898 l 35.25,0.4193 c 31.6604,0.3766 35.7776,0.6148 40.4305,2.3397 11.4889,4.259 17.7006,11.1027 20.7675,22.8805 1.8367,7.0533 2.2281,50.6857 0.5351,59.6533999 -1.3242,7.0146 -5.4195,13.5427 -11.1761,17.8154 l -4.6198,3.4289001 5.1229,3.0711 c 5.5682,3.3381 9.1009,7.7908 10.6739,13.4535 0.5921,2.1317 1.0071,19.3292 1.0104,41.8676 l 0.01,38.249998 h -20.0586 -20.0586 l 0.1226,-9.249998 c 0.067,-5.0875 0.094,-21.4511 0.059,-36.3636 l -0.064,-27.1136 -2.6364,-2.6364 c -2.3342,-2.3342 -3.4197,-2.6364 -9.4712,-2.6364 h -6.8348 l 0.2212,39.0003 0.2212,39.000398 -19.75,-4e-4 -19.75,-3e-4 z m 55.7387,-13.8928 2.2613,-2.629 V -31.665198 c 0,-21.0146 -0.1258,-22.57 -1.9746,-24.4188 -2.5176,-2.5177 -5.4207,-3.2284 -11.5917,-2.8378 l -4.9337,0.3123 -0.2426,26.4065 c -0.1795,19.5405 0.073,26.7866999 0.9711,27.8687999 0.9215,1.1104 2.6623,1.3311 7.2313,0.9168 4.8733,-0.4419 6.4476,-1.0456 8.2789,-3.1746 z m 57.2613,13.9705 V -94.133498 l 37.75,0.262 37.75,0.262 0.2969,14.9953 c 0.1632,8.2473 0.042,16.0098 -0.2691,17.25 l -0.5659,2.2547 h -16.8585 c -12.3417,0 -17.0989,0.3349 -17.7556,1.25 -0.6901,0.9616 -1.022,32.8775 -0.4472,43 0.091,1.5943 1.6146,1.75 17.1225,1.75 h 17.0231 l -0.2731,17.7499999 -0.2731,17.7500001 -15,0.2424 c -8.25,0.1333 -16.0209,0.4815 -17.2687,0.7738 l -2.2687,0.5313 0.1347,22.2263 c 0.074,12.2244 0.3432,23.4637 0.5981,24.9762 l 0.4635,2.75 h 17.9206 17.9205 v 17.5 17.499998 h -38 -38 z m 84.3842,95.7619981 c 0.3391,-3.162498 1.5075,-11.824998 2.5964,-19.249998 1.6955,-11.5604 6.9787,-50.2942 10.0253,-73.5 1.2822,-9.76700011 4.2213,-31.1258 8.8756,-64.5 2.186,-15.675 4.2838,-31.0875 4.6617,-34.25 l 0.6873,-5.75 h 26.8173 c 24.6713,0 26.86,0.1401 27.3489,1.75 1.0999,3.6221 9.2475,61.1688 13.1318,92.74999989 0.2706,2.20000001 0.9292,6.70000001 1.4635,10.00000011 2.6478,16.3531 12.988,92.910398 12.9999,96.249998 l 0.01,2.25 h -19.4809 -19.481 l -0.4822,-2.25 c -0.2653,-1.2375 -0.9744,-7.199998 -1.5758,-13.249998 -0.6014,-6.05 -1.3417,-12.0125 -1.6452,-13.25 l -0.5517,-2.25 h -12.8916 c -7.0903,0 -12.925,0.3375 -12.9659,0.75 -0.041,0.4125 -0.2191,1.65 -0.396,2.75 -0.177,1.1 -0.8803,7.7375 -1.5629,14.75 l -1.2412,12.749998 h -18.479 -18.479 z m 61.8223,-61.369498 c 0.2052,-0.6157 -0.1747,-5.6782 -0.8442,-11.25 -0.6696,-5.5717 -2.1494,-19.5805 -3.2884,-31.13050011 -3.2718,-33.17529989 -4.3747,-42.49999989 -5.027,-42.49999989 -0.3343,0 -1.6676,10.9125 -2.9629,24.25 -1.2952,13.3374999 -3.3233,32.4833 -4.5067,42.5461 -1.1835,10.0629 -1.9475,18.5004 -1.6979,18.75 1.0284,1.0284 17.9675,0.4133 18.3271,-0.6656 z m 66.5492,-16.6305 -0.2557,-83.75 -12.2735,-0.2809 -12.2735,-0.281 0.2735,-17.219 0.2735,-17.2191 44.75,-0.2603 44.75,-0.2603 v 17.4805 17.4804 l -12.75,0.2799 -12.75,0.2798 -0.174,81.5 c -0.096,44.825 -0.2083,82.512498 -0.25,83.749998 l -0.076,2.25 h -19.4943 -19.4943 z M -1106.35,7.3905019 V -94.109498 l 32.25,0.015 c 25.4005,0.012 33.6277,0.3395 38.7365,1.5436 12.8319,3.0243 20.8211,9.9083 24.3039,20.9417 2.0654,6.543 2.2069,8.8276 2.1677,35 l -0.042,27.9999999 -2.2574,5.6896 c -2.2408,5.6479 -6.9247,10.8353 -11.7819,13.0484001 -3.1375,1.4295 -2.998,2.262 0.6308,3.7652 4.4749,1.8535 10.6898,8.3495 12.1344,12.6829 0.9162,2.7487 1.3653,14.7754 1.6081,43.0639 l 0.3369,39.249998 h -20.0435 -20.0436 v -36.825698 -36.8257 l -2.25,-2.094 c -2.1237,-1.9765 -5.9786,-2.6347 -13.75,-2.3479 l -2.5,0.092 0.2784,39.0005 0.2784,39.000498 h -20.0284 -20.0284 z m 55.5,-13.6401 c 1.8666,-1.784 2.0201,-3.4306 2.3009,-24.6847999 l 0.3008,-22.7733 -2.5031,-2.7009 c -1.5071,-1.6262 -3.6163,-2.7313 -5.3008,-2.7774 -1.5388,-0.042 -3.6343,-0.2344 -4.6567,-0.4275 -1.0223,-0.193 -2.7755,-0.012 -3.8959,0.4026 l -2.0371,0.7536 0.1055,26.9239 0.1054,26.9238999 2.2905,0.5726 c 3.977,0.9942 11.1918,-0.207 13.2905,-2.2127 z m 56.74658,13.8901 0.2534,-101.2499999 h 33.5 33.5 l 7.2527,2.3763 c 13.5013,4.4235 20.1941,13.221 22.1944,29.1736 1.2963,10.3382 1.3736,54.5302999 0.1145,65.4777999 -2.089,18.1638001 -9.1087,27.9329001 -23.5331,32.7505001 -1.6657,0.5563 -9.7785,1.2838 -18.0285,1.6167 l -15,0.6051 -0.2628,35.25 -0.2627,35.249998 h -19.9907 -19.9907 z m 55.9647,-6.76260001 c 1.6168,-1.99659999 1.7887,-4.73259999 1.7887,-28.46329989 0,-24.817 -0.1104,-26.3948 -2.0177,-28.8195 -1.5506,-1.9712 -3.2886,-2.7239 -7.5075,-3.251 -8.8917,-1.1109 -8.4748,-2.6855 -8.4748,32.0022 0,16.616 0.3375,30.5583999 0.75,30.9831999 0.4125,0.4248 3.6576,0.5439 7.2113,0.2649 5.0806,-0.399 6.8435,-0.9795 8.25,-2.71650001 z m 168.8118,8.69800001 c 0.037,-54.6230999 0.3244,-100.2980999 0.6387,-101.4999999 l 0.5715,-2.1854 h 31.2469 c 33.2492,0 38.4252,0.4991 47.5234,4.5821 7.1667,3.2162 11.0808,7.1905 14.6923,14.9179 l 2.8041,6 v 31 30.9999999 l -2.6857,5.0901 c -2.4763,4.693 -7.0667,9.6244 -11.5042,12.3586001 l -1.8101,1.1154 1.8945,1.218 c 7.7188,4.9624 10.2189,7.5908 12.3848,13.0205 l 2.2793,5.7139 0.2107,38.2418 0.2107,38.241698 -19.74,0.2712 -19.74,0.2711 V 73.862002 c 0,-43.2558 0.086,-42.9715 -12.9342,-42.9715 h -6.0658 v 39 38.999998 h -20.022 -20.0221 z m 52.9733,-13.9918 c 5.4724,-1.8681 6.1785,-5.4356 5.8123,-29.3645999 l -0.3087,-20.171 -2.3859,-2.5381 c -2.8187,-2.9985 -9.9984,-4.4492 -13.6916,-2.7665 l -2.4225,1.1038 v 26.8547 c 0,14.7702 0.3,27.1547999 0.6667,27.5214999 1.0553,1.0553 8.495,0.6693 12.3297,-0.6398 z m 78.7594,29.5776001 -0.2558,-83.7712 -12.25,-0.2807 -12.25,-0.2808 v -17.4794 -17.4794 l 45.25,0.2601 45.25,0.2602 0.2737,17.25 0.2736,17.25 h -12.4646 c -8.7076,0 -12.6912,0.3666 -13.2162,1.2161 -0.4134,0.6689 -0.7779,38.3564 -0.81,83.75 l -0.058,82.533898 -19.7434,0.2712 -19.7433,0.2711 z M -522.35002,7.3905019 V -94.109498 h 19.5 19.5 l 0.1063,38.25 c 0.058,21.0375 0.171,39.15 0.25,40.25 0.134,1.8639 0.8583,2 10.6437,2 h 10.5 l 0.2614,-40.25 0.2613,-40.25 h 19.4887 19.4886 V 7.3905019 108.8905 h -19.4892 -19.4893 l -0.2607,-42.749998 -0.2608,-42.75 h -10.5 -10.5 l -0.2607,42.75 -0.2607,42.749998 h -19.4893 -19.4893 z m 116,0 V -94.109498 h 19.5 19.5 v 44.7 c 0,24.8831 0.3798,44.2788999 0.8566,43.7499999 0.4711,-0.5225 4.5631,-15.7999999 9.0933,-33.9499999 4.5302,-18.15 9.6129,-37.8375 11.2949,-43.75 l 3.0581,-10.75 h 20.3485 c 18.7123,0 20.3488,0.1408 20.3504,1.75 0.001,0.9625 -1.5722,6.925 -3.496,13.25 -6.1812,20.3227 -20.2828,68.2402 -22.581,76.7303999 l -2.2278,8.2304 2.093,7.2696001 c 1.1511,3.9983 7.3547,26.6196 13.7856,50.2696 6.4309,23.65 11.9054,43.562498 12.1655,44.249998 0.369,0.9754 -4.1415,1.25 -20.5271,1.25 -19.0593,0 -21.0665,-0.1617 -21.7193,-1.75 -1.1039,-2.686 -12.1227,-49.526698 -18.6426,-79.249998 -1.1461,-5.225 -2.4817,-9.9275 -2.968,-10.45 -0.513,-0.5513 -0.8841,18.4382 -0.8841,45.25 V 108.8905 h -19.5 -19.5 z M -1469.9853,-123.0621 c -4.3868,-1.0464 -8.8173,-4.4296 -11.5442,-8.8153 -2.1513,-3.46 -2.3447,-4.9896 -2.6531,-20.9821 l -0.3326,-17.25 h 11.5826 11.5826 v 12.4286 c 0,9.9654 0.3115,12.74 1.5714,14 1.8552,1.8552 7.517,2.0831 9.2286,0.3714 1.4345,-1.4344 1.658,-18.5072 0.2879,-21.9849 -0.5017,-1.2733 -5.0521,-5.2401 -10.112,-8.8151 -15.0039,-10.60062 -19.1914,-14.25809 -21.6475,-18.90725 -2.1316,-4.03471 -2.3284,-5.6467 -2.3284,-19.0685 0,-10.19131 0.4623,-16.21807 1.5165,-19.76767 2.8561,-9.61781 10.6671,-13.26034 28.415,-13.25097 16.32,0.009 22.1175,2.33269 26.042,10.43967 1.8505,3.82267 2.1713,6.39696 2.3358,18.74302 l 0.1907,14.31173 -11.75,0.28174 -11.75,0.28173 v -9.46663 c 0,-5.20665 -0.4341,-10.60837 -0.9646,-12.00381 -1.1286,-2.96845 -4.9549,-4.24168 -7.9422,-2.64288 -1.8931,1.01314 -2.0932,2.0062 -2.0932,10.38887 v 9.26865 l 3.25,3.04759 c 1.7875,1.67618 7.38,5.84138 12.4278,9.25599 17.6318,11.9272 19.3222,15.33532 19.3222,38.95652 0,20.2455 -2.5082,26.5232 -12.2179,30.5792 -3.9865,1.6653 -26.2264,2.0772 -32.4174,0.6004 z m 202.7785,-0.5403 c -4.8557,-1.5148 -8.5054,-4.5064 -10.9882,-9.0071 -1.4747,-2.6731 -1.655,-8.1759 -1.655,-50.49997 v -47.5 l 2.3033,-4.01718 c 4.7612,-8.304 13.0745,-10.99597 31.6967,-10.26381 8.7138,0.3426 11.8658,0.87967 15.1658,2.5841 8.4903,4.38523 10.3209,9.87008 10.3286,30.94689 l 0.01,15.25 h -11.5 -11.5 v -12.27749 c 0,-14.54587 -0.8925,-16.72251 -6.8567,-16.72251 -2.0588,0 -4.2833,0.54 -4.9433,1.2 -0.8926,0.89259 -1.2,11.25885 -1.2,40.46482 v 39.26485 l 1.9343,1.0352 c 1.0638,0.5693 3.55,1.0351 5.5247,1.0351 4.9933,0 5.663,-2.3744 5.4812,-19.4335 -0.1317,-12.3543 0.045,-14.05125 1.4549,-13.94147 0.8827,0.0687 6.1049,0.18125 11.6049,0.25 l 10,0.125 -0.022,18.74997 c -0.019,16.0253 -0.2887,19.3373 -1.8577,22.7914 -2.2402,4.9319 -6.9269,9.0331 -11.9014,10.4146 -5.3789,1.4939 -27.8245,1.1893 -33.0757,-0.4489 z m 128.8933,0.3619 c -5.1336,-1.5367 -8.8094,-4.528 -11.3091,-9.2032 l -2.2274,-4.1658 v -46.99997 -47 l 2.2965,-4 c 4.7896,-8.34269 12.8107,-10.95426 31.7119,-10.32501 15.4752,0.51519 20.4881,2.63435 24.4524,10.337 l 2.5392,4.93362 v 46.5272 46.52716 l -2.7411,4.663 c -1.5077,2.5646 -4.4327,5.7146 -6.5,7 -3.4714,2.1583 -4.9443,2.3525 -19.2589,2.5399 -8.525,0.1115 -17.0585,-0.2637 -18.9635,-0.8339 z m 22.3921,-20.4404 c 1.3739,-1.3739 1.5714,-6.3918 1.5714,-39.92857 0,-43.28403 0.324,-41.5 -7.5362,-41.5 -3.3202,0 -4.6463,0.47251 -5.4286,1.93426 -0.6615,1.23602 -1.0352,15.65505 -1.0352,39.9433 v 38.00901 l 2.2225,1.5567 c 2.8639,2.0059 8.1931,1.9983 10.2061,-0.015 z m 173.36278,20.583 c -4.748,-1.4312 -8.9802,-5.1904 -11.1674,-9.9194 l -2.124,-4.5922 -0.3084,-42.70782 c -0.1921,-26.58594 0.083,-44.82441 0.728,-48.31476 1.3213,-7.14747 3.8934,-10.71428 9.8374,-13.64156 4.2859,-2.11068 6.0925,-2.33583 18.743,-2.33583 7.7,0 15.6743,0.35541 17.7206,0.78979 4.7026,0.99826 9.2394,4.78828 12.0733,10.086 l 2.2061,4.12421 v 45 c 0,41.07587 -0.1582,45.41017 -1.8149,49.70337 -2.1407,5.5479 -7.1354,10.2724 -12.4077,11.7365 -4.391,1.2194 -29.5004,1.2732 -33.486,0.072 z m 22.6335,-21.2078 c 1.3659,-1.95 1.5751,-7.2578 1.5751,-39.95485 0,-42.44543 0.2881,-40.84892 -7.3714,-40.84892 -2.3257,0 -4.7686,0.54 -5.4286,1.2 -0.892,0.89204 -1.2,11.14296 -1.2,39.9433 v 38.74327 l 1.9234,1.3472 c 3.3511,2.3472 8.71,2.1278 10.5015,-0.43 z m 47.6799,20.3919 c -9.5573,-3.6871 -12.0886,-10.6913 -12.099,-33.4774 l -0.01,-12.7817 11.75,0.2817 11.75,0.2817 0.095,12.2104 c 0.1083,13.967 0.6751,15.2896 6.5525,15.2896 3.2688,0 4.0607,-0.4164 4.8776,-2.5651 1.2086,-3.1789 1.2272,-12.6434 0.035,-17.7815 -1.1748,-5.0627 -3.6163,-7.5073 -15.0311,-15.05028 -10.3059,-6.81018 -17.4991,-13.83049 -18.7447,-18.29398 -0.4311,-1.54501 -0.7839,-9.79694 -0.7839,-18.33763 0,-14.66601 0.1411,-15.80248 2.5392,-20.46081 3.7778,-7.33832 8.7838,-9.60056 22.7047,-10.26038 17.5213,-0.83047 25.7448,1.93683 30.4075,10.23253 1.9904,3.54119 2.3077,5.76878 2.6779,18.8 l 0.4201,14.78281 -11.8747,-0.28281 -11.8747,-0.28282 -0.2735,-10.92585 c -0.1513,-6.04686 -0.7642,-11.51715 -1.3724,-12.25 -1.7234,-2.07653 -7.5986,-1.67007 -8.8189,0.61011 -1.535,2.86828 -1.2796,15.69714 0.3756,18.8654 1.3933,2.66689 4.7274,5.39246 17.7501,14.51052 7.9258,5.54933 13.4765,11.74757 14.9628,16.70819 0.6664,2.2241 0.9358,10.2987 0.7021,21.0452 -0.4156,19.1205 -1.003,21.3834 -6.8209,26.2789 -4.4537,3.7475 -8.981,4.6523 -23.0049,4.5976 -9.2631,-0.036 -13.6381,-0.4879 -16.8952,-1.7444 z m 69.52,0.3352 c -4.7949,-1.7091 -10.2573,-6.8748 -11.5883,-10.9588 -1.0333,-3.1706 -2.0023,-29.2997 -1.2354,-33.3117 l 0.4321,-2.2604 h 11.3834 11.3834 v 12.3089 c 0,13.8091 0.7048,15.7596 5.7463,15.903 5.5092,0.1566 6.2537,-1.3026 6.2537,-12.2576 0,-9.1441 -0.1776,-10.0119 -2.651,-12.9514 -1.458,-1.7328 -7.4205,-6.4543 -13.25,-10.49224 -18.6508,-12.91904 -19.4456,-14.42252 -19.2335,-36.38213 0.122,-12.62929 0.4828,-16.12735 2.0226,-19.60846 4.0017,-9.04636 12.1721,-12.02763 31.0234,-11.32007 14.9732,0.562 19.7632,2.99056 23.4897,11.90935 1.2501,2.99186 2.1274,19.27235 1.6512,30.64068 -0.039,0.9245 -3.047,1.25 -11.5524,1.25 h -11.5 l -0.1183,-8.75 c -0.17,-12.57407 -0.7368,-14.4902 -4.6153,-15.60253 -5.3195,-1.52562 -6.2664,0.10309 -6.2664,10.77881 v 9.18139 l 3.25,3.13648 c 1.7875,1.72507 8.1859,6.65085 14.2186,10.94617 8.1233,5.78383 11.7459,9.07176 13.9652,12.67501 l 2.9967,4.86534 0.4042,15.8819 c 0.4488,17.6374 -0.4597,23.3851 -4.5438,28.7463 -4.4203,5.8026 -8.8756,7.1003 -24.2909,7.0753 -8.8954,-0.014 -14.8217,-0.4931 -17.3752,-1.4033 z m 453.8667,-0.3958 c -5.1978,-2.3613 -10.2121,-8.1292 -11.0775,-12.7422 -0.7624,-4.0635 -1.1805,-26.3512 -0.575,-30.6429 l 0.388,-2.75 h 11.3865 11.3865 v 12.4286 c 0,13.9934 0.6624,15.5714 6.5363,15.5714 2.3315,0 3.7173,-0.6053 4.4286,-1.9342 1.3114,-2.4505 1.3534,-17.0986 0.059,-20.504 -0.5875,-1.5454 -5.2675,-5.6538 -11.75,-10.31507 -14.1349,-10.16371 -20.5967,-16.75777 -22.2667,-22.7224 -1.9514,-6.96999 -0.8473,-32.14246 1.6318,-37.20019 3.6584,-7.46395 11.4752,-10.32812 28.1607,-10.31853 15.1729,0.009 21.8389,2.82515 25.9507,10.96438 2.0206,3.99961 2.25,5.91095 2.25,18.74193 v 14.28811 h -11.5 -11.5 v -10.5 c 0,-9.26956 -0.2414,-10.74147 -2.0605,-12.56058 -2.7525,-2.75243 -6.9939,-2.23248 -8.6516,1.06058 -1.6061,3.19082 -1.6565,14.09677 -0.081,17.55447 0.6787,1.4895 5.6019,5.72912 11.25,9.68783 11.2767,7.90377 18.9072,14.79434 21.3257,19.2577 1.3293,2.45317 1.634,6.38597 1.6716,21.57757 l 0.046,18.5776 -3.0116,4.9224 c -4.8947,8.0002 -8.834,9.4273 -25.9503,9.4005 -11.4109,-0.018 -14.7882,-0.3628 -18.0466,-1.843 z m -1065.85348,-0.6362 c -0.3169,-0.8256 -0.5969,-28.109 -0.6223,-60.62977 l -0.046,-59.12866 21.7653,0.45727 c 25.355,0.53267 29.0407,1.48361 33.8361,8.72996 3.4384,5.19573 4.7867,17.80068 4.2329,39.57233 -0.6556,25.77897 -3.8283,28.89477 -31.2935,30.73297 l -3.9897,0.267 0.3249,20.75 0.325,20.75 h -11.9782 c -9.7289,0 -12.0864,-0.2819 -12.5543,-1.5011 z m 32.7906,-63.0703 c 1.2908,-1.29078 1.5714,-4.28713 1.5714,-16.77749 0,-17.88417 -0.7322,-19.96538 -6.845,-19.45578 l -3.655,0.3047 0.2079,18 c 0.1143,9.9 0.2268,18.3375 0.25,18.75 0.079,1.41278 6.8977,0.75158 8.4707,-0.82143 z m 27.5748,63.8214 c 0,-0.7631 5.4188,-39.937 11.0247,-79.74997 1.7037,-12.1 3.6054,-25.89845 4.2259,-30.66322 1.0565,-8.11197 1.2911,-8.69557 3.6871,-9.17144 2.8523,-0.56648 30.2002,0.1426 30.8577,0.80008 0.3881,0.38812 17.0994,115.51575 17.1696,118.28455 0.024,0.9318 -2.9994,1.25 -11.8746,1.25 h -11.9061 l -0.6355,-5.25 c -0.3496,-2.8875 -0.8814,-6.9375 -1.1818,-9 l -0.5462,-3.75 h -7.9435 c -5.4506,0 -8.0832,0.3923 -8.3887,1.25 -0.5998,1.6839 -1.3332,8.3944 -1.4207,13 l -0.071,3.75 h -11.5 c -6.325,0 -11.4985,-0.3375 -11.4967,-0.75 z m 37.9966,-41.7299 c 0,-2.3235 -3.3287,-33.87738 -4.5668,-43.28942 -0.6996,-5.31877 -1.9583,-4.78796 -2.265,0.9552 -0.1267,2.37278 -1.1164,12.77721 -2.1993,23.12094 -1.0829,10.34374 -1.9689,19.45628 -1.9689,20.24998 0,1.0827 1.374,1.4432 5.5,1.4432 5.1882,0 5.5,-0.1406 5.5,-2.4799 z m 107.5656,-17.77035 0.066,-60.24972 h 22.9344 22.9344 v 10.5 10.5 l -10.4027,0.23612 c -5.7216,0.12986 -10.6426,0.47592 -10.9357,0.76901 -1.1141,1.1141 -0.9013,24.65837 0.2263,25.02907 0.6117,0.2011 5.2783,0.54184 10.3703,0.7572 5.092,0.21536 9.367,0.57539 9.5,0.80008 0.133,0.22469 0.1,5.02102 -0.075,10.65852 l -0.3164,10.24997 h -9.8266 c -6.9681,0 -9.9502,0.3637 -10.2514,1.25 -0.364,1.0714 -0.294,25.8763 0.079,28 0.072,0.4125 5.0818,0.75 11.1318,0.75 h 11 v 10.5 10.5 l -23.25,-2e-4 -23.25,-3e-4 z m 129.6766,2.8e-4 0.2578,-60.25 h 22.5 22.5 v 10.5 10.5 l -9.5,0.13986 c -5.225,0.0769 -10.0625,0.18942 -10.75,0.25 -0.9322,0.0821 -1.25,3.51223 -1.25,13.49351 v 13.38337 l 2.25,0.60298 c 1.2375,0.33163 5.9625,0.60912 10.5,0.61663 l 8.25,0.0136 v 10.5 10.50002 h -10.5 -10.5 v 25 25 h -12.0078 -12.0078 z m 54.7578,-0.3585 v -60.60851 l 22.25,0.3734 22.24998,0.3734 4.4613,2.48511 c 5.7048,3.17777 8.7371,7.72298 9.5632,14.33447 0.3606,2.88665 0.5027,14.67644 0.3156,26.19954 l -0.3401,20.95109 -2.3421,4.08631 c -4.0185,7.01106 -8.5595,9.14156 -21.2358,9.96316 l -10.92208,0.7078 v 20.8714 20.8713 h -12 -12 z m 33.06578,-3.42668 c 1.7883,-0.9571 1.9342,-2.23951 1.9342,-17 0,-14.78388 -0.1523,-16.11712 -2.0589,-18.02378 -1.412,-1.41195 -3.0617,-1.96187 -5.25,-1.75 l -3.19106,0.30896 -0.27202,18.75 -0.2721,18.75 h 3.58778 c 1.9733,0 4.4582,-0.46583 5.5221,-1.03518 z m 244.9342,4.14217 c 0,-46.99609 0.2692,-59.99461 1.25,-60.36486 0.9538,-0.36001 17.2952,-0.21696 22,0.19258 0.4125,0.0359 0.75,27.06529 0.75,60.06529 v 59.99997 h -12 -12 z m 36.7479,58.03668 c -0.267,-1.021 -0.5071,-27.9051 -0.5335,-59.74241 -0.036,-43.06191 0.2509,-58.07616 1.1188,-58.62835 1.8331,-1.16613 36.9899,-0.89698 42.6965,0.32686 6.4561,1.38459 11.266,5.50467 13.6554,11.69683 1.4197,3.67912 1.8143,7.53447 1.812,17.7034 0,16.46641 -0.678,19.60827 -5.1385,23.94026 l -3.5527,3.45036 3.5847,3.14743 c 5.1865,4.55382 5.8263,7.89943 5.444,28.46582 -0.3736,20.0933 -1.1345,22.7599 -7.771,27.2323 -5.4592,3.6789 -9.5932,4.2524 -30.6969,4.2583 -18.7756,0.01 -20.1661,-0.1197 -20.6188,-1.8508 z m 33.6703,-19.7507 c 1.3319,-0.511 1.5818,-2.6929 1.5818,-13.8088 0,-15.73492 -0.4863,-16.86865 -7.0362,-16.40211 l -4.4638,0.31794 -0.276,15.24997 -0.2761,15.25 h 4.4443 c 2.4443,0 5.1561,-0.2731 6.026,-0.607 z m -0.2469,-52.04796 c 1.5656,-1.41688 1.8287,-3.27689 1.8287,-12.92857 0,-13.26167 -0.7469,-14.70198 -7.3729,-14.21793 l -4.1271,0.30149 -0.2813,12.94712 c -0.1548,7.12091 -0.056,13.53341 0.2186,14.25 0.7176,1.87012 7.5516,1.62292 9.734,-0.35211 z m 36.8287,13.62326 v -60.03174 l 11.5733,0.28174 11.5733,0.28173 0.2941,59.75 0.2942,59.74997 h -11.8674 -11.8675 z m 36,0.0195 v -60.05124 l 11.75,0.28174 c 9.5797,0.22969 11.7749,0.5588 11.8847,1.78173 0.074,0.825 0.1865,22.9875 0.25,49.25 l 0.1153,47.74997 h 9.5 9.5 l 0.1008,7.25 c 0.055,3.9875 0.1679,8.6 0.25,10.25 l 0.1492,3 -21.75,0.2695 -21.75,0.2695 z m 52.9269,37.7622 c -0.078,-23.7367 -0.074,-42.42052 0.017,-76.49997 l 0.056,-21.25 h 11.5 11.5 l 0.1108,18.75 c 0.4133,69.95117 0.4372,98.91147 0.083,99.99997 -0.2943,0.9031 -3.5698,1.25 -11.8004,1.25 h -11.393 z m 47.8325,-27.5 -0.2594,-49.74997 -7.25,-0.29381 -7.25,-0.29381 v -9.84678 -9.84679 l 3.2527,-0.37973 c 1.789,-0.20885 14.0515,-0.37058 27.25,-0.3594 l 23.9973,0.0203 v 10 10 l -7.5,0.5 -7.5,0.5 -0.2593,49.74999 -0.2593,49.75 h -11.9814 -11.9813 z m 49.4828,-10.49997 0.2578,-60.25 10.5,-0.009 c 5.775,-0.005 11.0625,0.15568 11.75,0.35699 0.982,0.28756 1.25,13.20651 1.25,60.25904 v 59.89304 h -12.0078 -12.0078 z m 36,0 0.2578,-60.25 18,0.12469 c 9.9,0.0686 20.1533,0.18107 22.785,0.25 l 4.785,0.12531 -0.285,10.25 -0.285,10.25 -10,0.20644 c -5.5,0.11354 -10.3375,0.22604 -10.75,0.25 -0.4125,0.024 -0.75,5.85026 -0.75,12.94733 v 12.90377 l 10.5,0.71568 10.5,0.71568 v 10.38055 10.38052 h -10.5267 -10.5267 l 0.2767,14.75 0.2767,14.75 11.25,0.2828 11.25,0.2827 v 10.4673 10.4672 h -23.5078 -23.5078 z"
       id="path5" />
  </g>
</svg>
