<svg width="1699" height="740" viewBox="0 0 1699 740" fill="none" xmlns="http://www.w3.org/2000/svg">
<rect width="1699" height="740" fill="#E5E5E5"/>
<path d="M109.5 55.5H111.5V56.5H109.5V55.5Z" fill="#ECF7F9" stroke="#ECF7F9"/>
<path d="M211.5 0.5H211.75H404.25H404.5V1.5H404.75H411.25H411.5V2.5H411.75H416.25H416.5V3.5H416.75H420.25H420.5V4.5H420.75H424.25H424.5V5.5H424.75H427.25H427.5V6.5H427.75H430.25H430.5V7.5H430.75H433.25H433.5V8.5H433.75H436.25H436.5V9.5H438.5V10.5H440.5V11.5H442.5V12.5H444.5V13.5H446.5V14.5H448.5V15.5C448.75 15.5 449.333 15.5 450.25 15.5H450.5V16.5H452.5V17.5H453.5V18.5H454.5V19.5H456.5V20.5H457.5V21.5H459.5V22.5H460.5V23.5H461.5V24.5H462.5V25.5H463.5V26.5H464.5V27.5H466.5V28.5H467.5V29.5H468.5V31.5H469.5V32.5H470.5V33.5H471.5V34.5H472.5V35.5H473.5V37.5H474.5V38.5H475.5V39.5H476.5C476.5 39.75 476.5 40.3333 476.5 41.25V41.5H477.5V43.5H478.5V44.5H479.5V46.5H480.5V48.5H481.5V50.5H482.5V52.5H483.5C483.5 52.75 483.5 53.3333 483.5 54.25V54.5H484.5V56.5H485.5V56.75V59.25V59.5H486.5V59.75V62.25V62.5H487.5V62.75V65.25V65.5H488.5V65.75V69.25V69.5H489.5V69.75V74.25V74.5H490.5V74.75V81.25V81.5H491.5V81.75V93.25V93.5H492.5V93.75V100.25V100.5H491.5V101.5H492.5V102.5H491.5V102.75V115.25V115.5H490.5V115.75V122.25V122.5H489.5V122.75V127.25V127.5H488.5V127.75V133.25V133.5H487.5V133.75V137.25V137.5H486.5V137.75V143.25V143.5H485.5V143.75V149.25V149.5H484.5V149.75V154.25V154.5H483.5V154.75V160.25V160.5H482.5V160.75V166.25V166.5H481.5V166.75V171.25V171.5H480.5V171.75V176.25V176.5H479.5V176.75V181.25V181.5H478.5V181.75V187.25V187.5H477.5V187.75V192.25V192.5H476.5V192.75V197.25V197.5H475.5V197.75V203.25V203.5H474.5V203.75V208.25V208.5H473.5V208.75V213.25V213.5H472.5V213.75V218.25V218.5H471.5V218.75V224.25V224.5H470.5V224.75V229.25V229.5H469.5V229.75V233.25V233.5H468.5V235.5H466.5V236.5H466.25H338.75H338.5V234.5H337.5V233.5H338.5V233.25V227.75V227.5H339.5V227.25V222.75V222.5H340.5V222.25V216.75V216.5H341.5V216.25V210.75V210.5H342.5V210.25V205.75V205.5H343.5V205.25V199.75V199.5H344.5V199.25V193.75V193.5H345.5V193.25V187.75V187.5H346.5V187.25V182.75V182.5H347.5V182.25V177.75V177.5H348.5V177.25V172.75V172.5H349.5V172.25V166.75V166.5H350.5V166.25V160.75V160.5H351.5V160.25V152.75V152.5H352.5V152.25V144.75V144.5H351.5V144.25V138.75V138.5H350.5V138.25V135.75V135.5H349.5V135.25V132.75V132.5H348.5V130.5H347.5C347.5 130.25 347.5 129.667 347.5 128.75V128.5H346.5V126.5H345.5V125.5H344.5V124.5H343.5V122.5H342.5V121.5H341.5V120.5H339.5V119.5H338.5V118.5H336.5V117.5H334.5V116.5H334.25H331.75H331.5V115.5H331.25H328.75H328.5V114.5H328.25H322.75H322.5V113.5H322.25H262.75H262.5V114.5H262.25H257.75H257.5V115.5H257.25H254.75H254.5V116.5H254.25H251.75H251.5V117.5H251.25H248.75H248.5V118.5H246.5V119.5C246.25 119.5 245.667 119.5 244.75 119.5H244.5V120.5H242.5V121.5H241.5V122.5H239.5V123.5H238.5V124.5H237.5V125.5H235.5V126.5H234.5V127.5H233.5V128.5H232.5V129.5H231.5V131.5H230.5V132.5H229.5V133.5H228.5V135.5H227.5V136.5H226.5V138.5H225.5V140.5H224.5V142.5H223.5V142.75V145.25V145.5H222.5V147.5H221.5V147.75V150.25V150.5H220.5V150.75V154.25V154.5H219.5V154.75V159.25V159.5H218.5V159.75V165.25V165.5H217.5V165.75V170.25V170.5H216.5V170.75V176.25V176.5H215.5V176.75V181.25V181.5H214.5V181.75V186.25V186.5H213.5V186.75V192.25V192.5H212.5V192.75V197.25V197.5H211.5V197.75V203.25V203.5H210.5V203.75V208.25V208.5H209.5V208.75V213.25V213.5H208.5V213.75V218.25V218.5H207.5V218.75V224.25V224.5H206.5V224.75V229.25V229.5H205.5V229.75V234.25V234.5H204.5V234.75V239.25V239.5H203.5V239.75V245.25V245.5H202.5V245.75V250.25V250.5H201.5V250.75V256.25V256.5H200.5V256.75V262.25V262.5H199.5V262.75V267.25V267.5H198.5V267.75V273.25V273.5H197.5V273.75V278.25V278.5H196.5V278.75V284.25V284.5H195.5V284.75V290.25V290.5H194.5V290.75V295.25V295.5H193.5V295.75V299.25V299.5H192.5V299.75V305.25V305.5H191.5V305.75V309.25V309.5H190.5V309.75V315.25V315.5H189.5V315.75V321.25V321.5H188.5V321.75V326.25V326.5H187.5V326.75V331.25V331.5H186.5V331.75V337.25V337.5H185.5V337.75V342.25V342.5H184.5V342.75V348.25V348.5H183.5V348.75V353.25V353.5H182.5V353.75V359.25V359.5H181.5V359.75V364.25V364.5H180.5V364.75V369.25V369.5H179.5V369.75V375.25V375.5H178.5V375.75V381.25V381.5H177.5V381.75V385.25V385.5H176.5V385.75V391.25V391.5H175.5V391.75V396.25V396.5H174.5V396.75V401.25V401.5H173.5V401.75V406.25V406.5H172.5V406.75V412.25V412.5H171.5V412.75V416.25V416.5H170.5V416.75V422.25V422.5H169.5V422.75V428.25V428.5H168.5V428.75V433.25V433.5H167.5V433.75V438.25V438.5H166.5V438.75V444.25V444.5H165.5V444.75V450.25V450.5H164.5V450.75V455.25V455.5H163.5V455.75V460.25V460.5H162.5V460.75V466.25V466.5H161.5V466.75V471.25V471.5H160.5V471.75V477.25V477.5H159.5V477.75V482.25V482.5H158.5V482.75V488.25V488.5H157.5V488.75V493.25V493.5H156.5V493.75V499.25V499.5H155.5V499.75V504.25V504.5H154.5V504.75V509.25V509.5H153.5V509.75V515.25V515.5H152.5V515.75V521.25V521.5H151.5V521.75V526.25V526.5H150.5V526.75V531.25V531.5H149.5V531.75V536.25V536.5H148.5V536.75V541.25V541.5H147.5V541.75V547.25V547.5H146.5V547.75V552.25V552.5H145.5V552.75V558.25V558.5H144.5V558.75V563.25V563.5H143.5V563.75V568.25V568.5H142.5V568.75V575.25V575.5H141.5V575.75V579.25V579.5H140.5V579.75V586.25V586.5H139.5V586.75V597.25V597.5H140.5V597.75V601.25V601.5H141.5V601.75V605.25V605.5H142.5V607.5H143.5V609.5H144.5V610.5H145.5V611.5H146.5V613.5H147.5V614.5H148.5V615.5H149.5V616.5H150.5V617.5H151.5V618.5H153.5V619.5H154.5V620.5H156.5V621.5H158.5V622.5H158.75H162.25H162.5V623.5H162.75H169.25H169.5V624.5H169.75H229.25H229.5V623.5H229.75H235.25H235.5V622.5H235.75H238.25H238.5V621.5H238.75H241.25H241.5V620.5H241.75H244.25H244.5V619.5C244.75 619.5 245.333 619.5 246.25 619.5H246.5V618.5H248.5V617.5H249.5V616.5H251.5V615.5H252.5V614.5H254.5V613.5H255.5V612.5H256.5V611.5H257.5V610.5H258.5V609.5H259.5V608.5H260.5V607.5H261.5V606.5H262.5V605.5H263.5V603.5H264.5V602.5H265.5V600.5H266.5V598.5H267.5V596.5H268.5V594.5H269.5V592.5H270.5V590.5H271.5V590.25V587.75V587.5H272.5V587.25V584.75V584.5H273.5V584.25V580.75V580.5H274.5V580.25V576.75V576.5H275.5V576.25V571.75V571.5H276.5V571.25V565.75V565.5H277.5V565.25V561.75V561.5H278.5V561.25V555.75V555.5H279.5V555.25V549.75V549.5H280.5V549.25V544.75V544.5H281.5V544.25V539.75V539.5H282.5V539.25V534.75V534.5H283.5V534.25V528.75V528.5H284.5V528.25V523.75V523.5H285.5V523.25V518.75V518.5H286.5V518.25V512.75V512.5H287.5V512.25V507.75V507.5H288.5V507.25V502.75V502.5H289.5V500.5H289.75H419.25H419.5V501.5H420.5V503.5H419.5V503.75V509.25V509.5H418.5V509.75V515.25V515.5H417.5V515.75V520.25V520.5H416.5V520.75V525.25V525.5H415.5V525.75V530.25V530.5H414.5V530.75V536.25V536.5H413.5V536.75V542.25V542.5H412.5V542.75V547.25V547.5H411.5V547.75V553.25V553.5H410.5V553.75V557.25V557.5H409.5V557.75V563.25V563.5H408.5V563.75V568.25V568.5H407.5V568.75V574.25V574.5H406.5V574.75V580.25V580.5H405.5V580.75V585.25V585.5H404.5V585.75V591.25V591.5H403.5V591.75V597.25V597.5H402.5V597.75V602.25V602.5H401.5V602.75V607.25V607.5H400.5V607.75V612.25V612.5H399.5V612.75V617.25V617.5H398.5V617.75V623.25V623.5H397.5V623.75V628.25V628.5H396.5V628.75V633.25V633.5H395.5V633.75V638.25V638.5H394.5V638.75V643.25V643.5H393.5V643.75V648.25V648.5H392.5V648.75V653.25V653.5H391.5V653.75V658.25V658.5H390.5V658.75V662.25V662.5H389.5V662.75V665.25V665.5H388.5V665.75V668.25V668.5H387.5V668.75V671.25V671.5H386.5V671.75V674.25V674.5H385.5V676.5H384.5V678.5H383.5V678.75V681.25V681.5H382.5V683.5H381.5V685.5H380.5C380.5 685.75 380.5 686.333 380.5 687.25V687.5H379.5V689.5H378.5V690.5H377.5V692.5H376.5V693.5H375.5V695.5H374.5V696.5H373.5V698.5H372.5V699.5H371.5V701.5H370.5V702.5H369.5V703.5H368.5V704.5H367.5V705.5H366.5V706.5H365.5V707.5H364.5V708.5H363.5V709.5H362.5V710.5H361.5V711.5H360.5V712.5H359.5V713.5H358.5V714.5H357.5V715.5H356.5V716.5H355.5V717.5H353.5V718.5H352.5V719.5H351.5V720.5H349.5V721.5H348.5V722.5H346.5V723.5H345.5V724.5H343.5V725.5H341.5V726.5H339.5V727.5H337.5V728.5H335.5V729.5H333.5V730.5H333.25H330.75H330.5V731.5H328.5V732.5H328.25H325.75H325.5V733.5H325.25H322.75H322.5V734.5H322.25H318.75H318.5V735.5H318.25H314.75H314.5V736.5H314.25H309.75H309.5V737.5H309.25H301.75H301.5V738.5H301.25H288.75H288.5V739.5H288.25H121.75H121.5V738.5H120.5V739.5H118.5V738.5H118.25H102.75H102.5V737.5H102.25H90.75H90.5V736.5H90.25H85.75H85.5V735.5H85.25H79.75H79.5V734.5H79.25H75.75H75.5V733.5H75.25H70.75H70.5V732.5H70.25H67.75H67.5V731.5H67.25H64.75H64.5V730.5H64.25H61.75H61.5V729.5H59.5V728.5H57.5V727.5H57.25H54.75H54.5V726.5H52.5V725.5H50.5V724.5C50.25 724.5 49.6667 724.5 48.75 724.5H48.5V723.5H46.5V722.5H45.5V721.5C45.25 721.5 44.6667 721.5 43.75 721.5H43.5V720.5H41.5V719.5H40.5V718.5H39.5V717.5H37.5V716.5H36.5V715.5H35.5V714.5H33.5V713.5H32.5V712.5H31.5V711.5H30.5V710.5H29.5V709.5H28.5V708.5H27.5V707.5H26.5V706.5H25.5V704.5H24.5V703.5H23.5V702.5H22.5V701.5H21.5V699.5H20.5V698.5H19.5V697.5H18.5V695.5H17.5V694.5H16.5C16.5 694.25 16.5 693.667 16.5 692.75V692.5H15.5V690.5H14.5V689.5H13.5V687.5H12.5V685.5H11.5V683.5H10.5V681.5H9.5V681.25V678.75V678.5H8.5V676.5H7.5V676.25V673.75V673.5H6.5V671.5H5.5V671.25V668.75V668.5H4.5V668.25V664.75V664.5H3.5V664.25V659.75V659.5H2.5V659.25V654.75V654.5H1.5V654.25V646.75V646.5H0.5V646.25V618.75V618.5H1.5V618.25V610.75V610.5H2.5V610.25V604.75V604.5H3.5V604.25V599.75V599.5H4.5V599.25V594.75V594.5H5.5V594.25V590.75V590.5H6.5V590.25V585.75V585.5H7.5V585.25V580.75V580.5H8.5V580.25V574.75V574.5H9.5V574.25V568.75V568.5H10.5V568.25V563.75V563.5H11.5V563.25V558.75V558.5H12.5V558.25V553.75V553.5H13.5V553.25V548.75V548.5H14.5V548.25V542.75V542.5H15.5V542.25V537.75V537.5H16.5V537.25V532.75V532.5H17.5V532.25V527.75V527.5H18.5V527.25V521.75V521.5H19.5V521.25V516.75V516.5H20.5V516.25V511.75V511.5H21.5V511.25V506.75V506.5H22.5V506.25V501.75V501.5H23.5V501.25V495.75V495.5H24.5V495.25V489.75V489.5H25.5V489.25V484.75V484.5H26.5V484.25V478.75V478.5H27.5V478.25V474.75V474.5H28.5V474.25V469.75V469.5H29.5V469.25V464.75V464.5H30.5V464.25V458.75V458.5H31.5V458.25V452.75V452.5H32.5V452.25V448.75V448.5H33.5V448.25V443.75V443.5H34.5V443.25V437.75V437.5H35.5V437.25V432.75V432.5H36.5V432.25V427.75V427.5H37.5V427.25V422.75V422.5H38.5V422.25V418.75V418.5H39.5V418.25V412.75V412.5H40.5V412.25V406.75V406.5H41.5V406.25V401.75V401.5H42.5V401.25V396.75V396.5H43.5V396.25V391.75V391.5H44.5V391.25V385.75V385.5H45.5V385.25V381.75V381.5H46.5V381.25V375.75V375.5H47.5V375.25V370.75V370.5H48.5V370.25V365.75V365.5H49.5V365.25V360.75V360.5H50.5V360.25V355.75V355.5H51.5V355.25V350.75V350.5H52.5V350.25V345.75V345.5H53.5V345.25V339.75V339.5H54.5V339.25V334.75V334.5H55.5V334.25V328.75V328.5H56.5V328.25V323.75V323.5H57.5V323.25V317.75V317.5H58.5V317.25V312.75V312.5H59.5V312.25V307.75V307.5H60.5V307.25V302.75V302.5H61.5V302.25V296.75V296.5H62.5V296.25V291.75V291.5H63.5V291.25V286.75V286.5H64.5V286.25V281.75V281.5H65.5V281.25V276.75V276.5H66.5V276.25V270.75V270.5H67.5V270.25V265.75V265.5H68.5V265.25V260.75V260.5H69.5V260.25V255.75V255.5H70.5V255.25V250.75V250.5H71.5V250.25V244.75V244.5H72.5V244.25V239.75V239.5H73.5V239.25V234.75V234.5H74.5V234.25V229.75V229.5H75.5V229.25V224.75V224.5H76.5V224.25V218.75V218.5H77.5V218.25V213.75V213.5H78.5V213.25V208.75V208.5H79.5V208.25V203.75V203.5H80.5V203.25V198.75V198.5H81.5V198.25V194.75V194.5H82.5V194.25V187.75V187.5H83.5V187.25V182.75V182.5H84.5V182.25V177.75V177.5H85.5V177.25V171.75V171.5H86.5V171.25V166.75V166.5H87.5V166.25V160.75V160.5H88.5V160.25V155.75V155.5H89.5V155.25V150.75V150.5H90.5V150.25V145.75V145.5H91.5V145.25V140.75V140.5H92.5V140.25V134.75V134.5H93.5V134.25V130.75V130.5H94.5V130.25V124.75V124.5H95.5V124.25V118.75V118.5H96.5V118.25V114.75V114.5H97.5V114.25V109.75V109.5H98.5V109.25V104.75V104.5H99.5V104.25V100.75V100.5H100.5V100.25V96.75V96.5H101.5V96.25V93.75V93.5H102.5V93.25V89.75V89.5H103.5V89.25V86.75V86.5H104.5V84.5H105.5V84.25V81.75V81.5H106.5V79.5H107.5V79.25V76.75V76.5H108.5V74.5H109.5V72.5H110.5V70.5H111.5V68.5H112.5V66.5H113.5V64.5H114.5C114.5 64.25 114.5 63.6667 114.5 62.75V62.5H115.5V60.5H116.5V59.5H117.5C117.5 59.25 117.5 58.6667 117.5 57.75V57.5H118.5V55.5H119.5V54.5H120.5V53.5H121.5V51.5H122.5V50.5H123.5V48.5H124.5V47.5H125.5V46.5H126.5V45.5H127.5V43.5H128.5V42.5H129.5V41.5H130.5V40.5H131.5V39.5H132.5V38.5H133.5V37.5H134.5V36.5H135.5V35.5H136.5V34.5H137.5V33.5H138.5V32.5H139.5V31.5H140.5V30.5H141.5V29.5H142.5V28.5H143.5V27.5H145.5V26.5H146.5V25.5H147.5V24.5H149.5V23.5H150.5V22.5H152.5V21.5H153.5V20.5H155.5V19.5H156.5V18.5H158.5V17.5C158.75 17.5 159.333 17.5 160.25 17.5H160.5V16.5H162.5V15.5H163.5V14.5H163.75H166.25H166.5V13.5H168.5V12.5H170.5V11.5H172.5V10.5H174.5V9.5H174.75H177.25H177.5V8.5H179.5V7.5H179.75H182.25H182.5V6.5H182.75H185.25H185.5V5.5H185.75H189.25H189.5V4.5H189.75H193.25H193.5V3.5H193.75H197.25H197.5V2.5H197.75H204.25H204.5V1.5H204.75H211.25H211.5V0.5Z" fill="#DA0714" stroke="#DA0714"/>
<path d="M809.5 262.5H809.75H847.25H847.5V263.5H847.75H853.25H853.5V264.5H853.75H856.25H856.5V265.5H856.75H859.25H859.5V266.5C859.75 266.5 860.333 266.5 861.25 266.5H861.5V267.5H863.5V268.5H864.5V269.5H866.5V270.5H867.5V271.5H868.5V272.5H869.5V273.5H870.5V274.5H871.5V275.5H872.5V277.5H873.5V278.5H874.5V280.5H875.5V280.75V283.25V283.5H876.5V285.5H877.5V285.75V290.25V290.5H878.5V290.75V440.25V440.5H877.5V440.75V445.25V445.5H876.5V445.75V448.25V448.5H875.5V448.75V451.25V451.5H874.5V453.5H873.5V454.5H872.5V456.5H871.5V457.5H870.5V458.5H869.5V459.5H868.5V460.5H867.5V461.5H866.5V462.5H865.5V463.5H863.5V464.5H861.5V465.5H859.5V466.5H857.5V467.5H857.25H853.75H853.5V468.5H853.25H850.75H850.5V469.5H850.25H806.75H806.5V468.5H806.25H802.75H802.5V467.5H802.25H799.75H799.5V466.5H799.25H796.75H796.5V465.5C796.25 465.5 795.667 465.5 794.75 465.5H794.5V464.5H792.5V463.5H791.5V462.5H789.5V461.5H788.5V460.5H787.5V459.5H786.5V457.5H785.5V456.5H784.5V455.5H783.5V453.5H782.5V451.5H781.5V449.5H780.5V449.25V446.75V446.5H779.5V446.25V443.75V443.5H778.5V443.25V437.75V437.5H777.5V437.25V294.75V294.5H778.5V294.25V289.75V289.5H779.5V289.25V285.75V285.5H780.5V285.25V282.75V282.5H781.5V280.5H782.5V279.5H783.5V277.5H784.5V276.5H785.5V274.5H786.5V273.5H787.5V272.5H788.5V271.5H789.5V270.5H791.5V269.5H792.5V268.5H794.5V267.5H796.5V266.5H798.5V265.5H798.75H801.25H801.5V264.5H801.75H804.25H804.5V263.5H804.75H809.25H809.5V262.5ZM825.5 296.5V297.5H823H822.5V298.5H820.5V299.5H819.5V301.5H818.5V302V305.5H817.5V306V320.5H818.5V321.5H817.5V322V325.5H818.5V326.5H817.5V328.5H818.5V329.5H817.5V330V335.5H818.5V336.5H817.5V338.5H818.5V339.5H817.5V341.5H818.5V342.5H817.5V344.5H818.5V345.5H817.5V346V354.5H818.5V355.5H817.5V357.5H818.5V358.5H817.5V359V429.5H818.5V431.5H819.5V432.5H820.5V433.5H822.5V434.5H823H834.5V433.5H836.5V432.5H837.5V430.5H838.5V303V302.5H837.5V300.5H836.5V299.5H835.5V298.5H833.5V297.5H831H830.5V296.5H826H825.5Z" fill="#DA0714" stroke="#DA0714"/>
<path d="M1148.5 262.5H1148.75H1183.25H1183.5V263.5H1183.75H1188.25H1188.5V264.5H1188.75H1192.25H1192.5V265.5H1192.75H1195.25H1195.5V266.5H1197.5V267.5H1199.5V268.5C1199.75 268.5 1200.33 268.5 1201.25 268.5H1201.5V269.5H1203.5V270.5H1204.5V271.5H1205.5V272.5H1206.5V273.5H1207.5V274.5H1208.5V275.5H1209.5V277.5H1210.5V278.5H1211.5V280.5H1212.5V280.75V283.25V283.5H1213.5V283.75V286.25V286.5H1214.5V286.75V290.25V290.5H1215.5V290.75V297.25V297.5H1216.5V298.5H1215.5V299.5H1216.5V299.75V434.25V434.5H1215.5V434.75V442.25V442.5H1214.5V442.75V447.25V447.5H1213.5V449.5H1212.5V451.5H1211.5V453.5H1210.5V455.5H1209.5V456.5H1208.5V458.5H1207.5V459.5H1206.5V460.5H1205.5V461.5H1204.5V462.5H1202.5V463.5H1201.5V464.5H1199.5V465.5H1197.5V466.5H1197.25H1194.75H1194.5V467.5H1194.25H1191.75H1191.5V468.5H1191.25H1186.75H1186.5V469.5H1186.25H1144.75H1144.5V468.5H1144.25H1140.75H1140.5V467.5H1140.25H1136.75H1136.5V466.5H1134.5V465.5H1134.25H1131.75H1131.5V464.5H1129.5V463.5H1128.5V462.5H1127.5V461.5H1125.5V460.5H1124.5V459.5H1123.5V457.5H1122.5V456.5H1121.5V455.5H1120.5V453.5H1119.5V451.5H1118.5V451.25V448.75V448.5H1117.5V446.5H1116.5V446.25V442.75V442.5H1115.5V442.25V433.75V433.5H1114.5V433.25V299.75V299.5H1115.5V299.25V290.75V290.5H1116.5V290.25V285.75V285.5H1117.5V285.25V282.75V282.5H1118.5C1118.5 282.25 1118.5 281.667 1118.5 280.75V280.5H1119.5V278.5H1120.5V277.5H1121.5V275.5H1122.5V274.5H1123.5V273.5H1124.5V272.5H1125.5V271.5H1126.5V270.5H1127.5V269.5H1129.5V268.5H1131.5V267.5H1133.5V266.5H1135.5V265.5H1135.75H1138.25H1138.5V264.5H1138.75H1142.25H1142.5V263.5H1142.75H1148.25H1148.5V262.5ZM1159.5 297.5V298.5H1157.5V299.5H1156.5V301.5H1155.5V302C1155.5 302.667 1155.5 303.167 1155.5 303.5H1154.5V304V379.5H1155.5V380.5H1154.5V381V385.5H1155.5V386.5H1154.5V388.5H1155.5V389.5H1154.5V390V400.5H1155.5V401.5H1154.5V402.5H1155.5V403.5H1154.5V405.5H1155.5V406.5H1154.5V407V409.5H1155.5V410.5H1154.5V412.5H1155.5V413.5H1154.5V415.5H1155.5V416.5H1154.5V418.5H1155.5V420.5H1154.5V421.5H1155.5V422V431.5H1156.5V432.5H1157.5V433.5H1159.5V434.5H1160H1171.5V433.5H1173.5V432.5H1174.5V431.5H1175.5V318V317.5H1176.5V316.5H1175.5V310V309.5H1176.5V308.5H1175.5V303V302.5H1174.5V300.5H1173.5V299.5H1172.5V298.5H1170.5V297.5H1160H1159.5Z" fill="#DA0714" stroke="#DA0714"/>
<path d="M377.5 264.5H377.75H444.25H444.5V265.5H444.75H450.25H450.5V266.5H450.75H453.25H453.5V267.5H453.75H456.25H456.5V268.5C456.75 268.5 457.333 268.5 458.25 268.5H458.5V269.5H460.5V270.5H461.5V271.5H463.5V272.5H464.5V273.5H465.5V274.5H466.5V275.5H467.5V276.5H468.5V277.5H469.5V279.5H470.5V280.5H471.5V280.75V283.25V283.5H472.5V285.5H473.5V285.75V288.25V288.5H474.5V288.75V292.25V292.5H475.5V292.75V303.25V303.5H476.5V304.5H475.5V306.5H476.5V307.5H475.5V309.5H476.5V311.5H475.5V312.5H476.5V314.5H475.5V315.5H476.5V315.75V336.25V336.5H475.5V338.5H476.5V339.5H475.5V339.75V349.25V349.5H474.5V349.75V353.25V353.5H473.5V353.75V356.25V356.5H472.5C472.5 356.75 472.5 357.333 472.5 358.25V358.5H471.5V360.5H470.5V361.5H469.5V362.5H468.5V363.5H467.5V365.5H465.5V366.5H464.5V367.5H463.5V368.5H461.5V369.5H460.5V370.5H459.5V371.5H461.5V372.5H463.5V373.5H464.5V374.5H466.5V375.5H467.5V376.5H468.5V377.5H469.5V378.5H470.5V379.5H471.5V381.5H472.5V383.5H473.5V385.5H474.5V385.75V388.25V388.5H475.5V388.75V402.25V402.5H476.5V403.5H475.5V403.75V406.25V406.5H476.5V407.5H475.5V407.75V413.25V413.5H476.5V414.5H475.5V416.5H476.5V417.5H475.5V419.5H476.5V420.5H475.5V420.75V423.25V423.5H476.5V424.5H475.5V426.5H476.5V427.5H475.5V429.5H476.5V430.5H475.5V432.5H476.5V433.5H475.5V435.5H476.5V436.5H475.5V437.5H476.5V438.5H475.5V440.5H476.5V441.5H475.5V443.5H476.5V444.5H475.5V446.5H476.5V447.5H475.5V448.5H476.5V449.5H475.5V451.5H476.5V453.5H475.5V454.5H476.5V454.75V458.25V458.5H475.5V459.5H476.5V459.75V464.25V464.5H475.5V465.5H476.5V467.5H476.25H435.75H435.5V467.25V395.75V395.5H434.5V393.5H433.5V392.5H432.5V391.5H431.5V390.5H431.25H428.75H428.5V389.5H428.25H417.75H417.5V389.75V467.25V467.5H417.25H377.75H377.5V467.25V457.75V457.5H376.5V456.5H377.5V456.25V449.75V449.5H376.5V448.5H377.5V447.5H376.5V446.5H377.5V444.5H376.5V443.5H377.5V443.25V439.75V439.5H376.5V438.5H377.5V438.25V431.75V431.5H376.5V430.5H377.5V428.5H376.5V427.5H377.5V425.5H376.5V424.5H377.5V422.5H376.5V421.5H377.5V420.5H376.5V418.5H377.5V417.5H376.5V416.5H377.5V415.5H376.5V414.5H377.5V412.5H376.5V411.5H377.5V409.5H376.5V408.5H377.5V406.5H376.5V405.5H377.5V403.5H376.5V402.5H377.5V402.25V399.75V399.5H376.5V398.5H377.5V396.5H376.5V395.5H377.5V393.5H376.5V392.5H377.5V391.5H376.5V390.5H377.5V389.5H376.5V388.5H377.5V386.5H376.5V384.5H377.5V383.5H376.5V382.5H377.5V380.5H376.5V379.5H377.5V377.5H376.5V376.5H377.5V374.5H376.5V373.5H377.5V371.5H376.5V370.5H377.5V369.5H376.5V368.5H377.5V367.5H376.5V366.5H377.5V364.5H376.5V362.5H377.5V361.5H376.5V361.25V352.75V352.5H377.5V351.5H376.5V349.5H377.5V348.5H376.5V346.5H377.5V345.5H376.5V344.5H377.5V343.5H376.5V342.5H377.5V340.5H376.5V338.5H377.5V337.5H376.5V336.5H377.5V335.5H376.5V333.5H377.5V332.5H376.5V331.5H377.5V330.5H376.5V328.5H377.5V326.5H376.5V325.5H377.5V324.5H376.5V323.5H377.5V322.5H376.5V320.5H377.5V318.5H376.5V317.5H377.5V316.5H376.5V315.5H377.5V313.5H376.5V312.5H377.5V310.5H376.5V309.5H377.5V307.5H376.5V306.5H377.5V305.5H376.5V304.5H377.5V303.5H376.5V302.5H377.5V301.5H376.5V299.5H377.5V298.5H376.5V298.25V295.75V295.5H377.5V294.5H376.5V292.5H377.5V291.5H376.5V289.5H377.5V288.5H376.5V286.5H377.5V285.5H376.5V283.5H377.5V282.5H376.5V280.5H377.5V279.5H376.5V278.5H377.5V276.5H376.5V274.5H377.5V273.5H376.5V272.5H377.5V271.5H376.5V270.5H377.5V268.5H376.5V267.5H377.5V267.25V264.75V264.5ZM417.5 299.5V300V302.5H416.5V303.5H417.5V304V354.5H418H430.5V353.5H432.5V352.5H433.5V351.5H434.5V349V348.5H435.5V307V306.5H434.5V304V303.5H433.5V302.5H432.5V301.5H431.5V300.5H429H428.5V299.5H418H417.5Z" fill="#DA0714" stroke="#DA0714"/>
<path d="M490.5 264.5H490.75H566.25H566.5V264.75V299.25V299.5H565.5V300.5H564.5V299.5H563.5V300.5H562.5V299.5H561.5V300.5H561.25H530.75H530.5V300.75V344.25V344.5H531.5V345.5H531.75H564.25H564.5V345.75V380.25V380.5H563.5V381.5H563.25H531.75H531.5V382.5H530.5V382.75V431.25V431.5H532.5V432.5H532.75H561.25H561.5V431.5H563.5V432.5H564.5V431.5H565.5V432.5H566.5V432.75V443.25V443.5H567.5V444.5H566.5V445.5H567.5V447.5H566.5V448.5H567.5V448.75V454.25V454.5H566.5V455.5H567.5V455.75V460.25V460.5H566.5V461.5H567.5V463.5H566.5V464.5H567.5V466.5H566.5V467.5H566.25H490.75H490.5V467.25V456.75V456.5H489.5V455.5H490.5V453.5H489.5V452.5H490.5V452.25V425.75V425.5H489.5V424.5H490.5V422.5H489.5V421.5H490.5V419.5H489.5V418.5H490.5V417.5H489.5V416.5H490.5V415.5H489.5V413.5H490.5V412.5H489.5V411.5H490.5V410.5H489.5V408.5H490.5V407.5H489.5V407.25V402.75V402.5H490.5V400.5H489.5V400.25V395.75V395.5H490.5V394.5H489.5V392.5H490.5V391.5H489.5V389.5H490.5V387.5H489.5V386.5H490.5V384.5H489.5V383.5H490.5V383.25V358.75V358.5H489.5V357.5H490.5V357.25V351.75V351.5H489.5V350.5H490.5V348.5H489.5V347.5H490.5V347.25V343.75V343.5H489.5V342.5H490.5V340.5H489.5V339.5H490.5V337.5H489.5V336.5H490.5V336.25V332.75V332.5H489.5V331.5H490.5V329.5H489.5V328.5H490.5V326.5H489.5V325.5H490.5V324.5H489.5V323.5H490.5V321.5H489.5V320.5H490.5V319.5H489.5V317.5H490.5V316.5H489.5V315.5H490.5V313.5H489.5V312.5H490.5V311.5H489.5V310.5H490.5V308.5H489.5V307.5H490.5V305.5H489.5V304.5H490.5V303.5H489.5V302.5H490.5V302.25V275.75V275.5H489.5V274.5H490.5V274.25V271.75V271.5H489.5V270.5H490.5V270.25V264.75V264.5Z" fill="#DA0714" stroke="#DA0714"/>
<path d="M601.5 264.5H601.75H655.25H655.5V265.5H656.5V265.75V270.25V270.5H657.5V270.75V276.25V276.5H658.5V276.75V283.25V283.5H659.5V283.75V290.25V290.5H660.5V290.75V296.25V296.5H661.5V296.75V303.25V303.5H662.5V303.75V310.25V310.5H663.5V310.75V317.25V317.5H664.5V317.75V325.25V325.5H665.5V325.75V332.25V332.5H666.5V332.75V341.25V341.5H667.5V341.75V348.25V348.5H668.5V348.75V356.25V356.5H669.5V356.75V363.25V363.5H670.5V363.75V370.25V370.5H671.5V370.75V377.25V377.5H672.5V377.75V384.25V384.5H673.5V384.75V391.25V391.5H674.5V391.75V398.25V398.5H675.5V398.75V405.25V405.5H676.5V405.75V413.25V413.5H677.5V413.75V419.25V419.5H678.5V419.75V427.25V427.5H679.5V427.75V434.25V434.5H680.5V434.75V441.25V441.5H681.5V441.75V449.25V449.5H682.5V449.75V457.25V457.5H683.5V457.75V465.25V465.5H684.5V466.5H683.5V467.5H683.25H644.75H644.5V466.5H643.5V466.25V458.75V458.5H642.5V458.25V449.75V449.5H641.5V449.25V441.75V441.5H640.5V441.25V437.75V437.5H639.5V436.5H639.25H615.75H615.5V437.5H614.5V437.75V443.25V443.5H613.5V443.75V453.25V453.5H612.5V453.75V463.25V463.5H611.5V463.75V467.25V467.5H611.25H574.75H574.5V467.25V458.75V458.5H575.5V458.25V450.75V450.5H576.5V450.25V443.75V443.5H577.5V443.25V437.75V437.5H578.5V437.25V430.75V430.5H579.5V430.25V422.75V422.5H580.5V422.25V414.75V414.5H581.5V414.25V408.75V408.5H582.5V408.25V400.75V400.5H583.5V400.25V392.75V392.5H584.5V392.25V384.75V384.5H585.5V384.25V377.75V377.5H586.5V377.25V370.75V370.5H587.5V370.25V363.75V363.5H588.5V363.25V356.75V356.5H589.5V356.25V349.75V349.5H590.5V349.25V340.75V340.5H591.5V340.25V332.75V332.5H592.5V332.25V326.75V326.5H593.5V326.25V319.75V319.5H594.5V319.25V312.75V312.5H595.5V312.25V305.75V305.5H596.5V305.25V298.75V298.5H597.5V298.25V290.75V290.5H598.5V290.25V283.75V283.5H599.5V283.25V276.75V276.5H600.5V276.25V267.75V267.5H601.5V267.25V264.75V264.5ZM627.5 318.5V319.5H626.5V320V330.5H625.5V331V339.5H624.5V340V348.5H623.5V349V358.5H622.5V359V368.5H621.5V369V375.5H620.5V376.5H621.5V377.5H620.5V378V385.5H619.5V386V394.5H618.5V395V400.5H619.5V401.5H620.5V400.5H621.5V401.5H622H634.5V400.5H636.5V394V393.5H635.5V385V384.5H634.5V375V374.5H633.5V367V366.5H632.5V357V356.5H631.5V346V345.5H630.5V336V335.5H629.5V327V326.5H628.5V319V318.5H627.5Z" fill="#DA0714" stroke="#DA0714"/>
<path d="M678.5 264.5H678.75H768.25C768.5 264.417 768.583 264.5 768.5 264.75V280.25V280.5H769.5V281.5H768.5V282.5H769.5V283.5H768.5V285.5H769.5V286.5H768.5V286.75V291.25V291.5H769.5V292.5H768.5V294.5H769.5V295.5H768.5V295.75V299.25V299.5H767.5V300.5H765.5V299.5H763.5V300.5H762.5V299.5H761.5V300.5H760.5V299.5H759.5V300.5H758.5V299.5H757.5V300.5H756.5V299.5H755.5V300.5H753.5V299.5H751.5V300.5H751.25H748.75H748.5V299.5H747.5V300.5H747.25H743.75C743.5 300.417 743.417 300.5 743.5 300.75V466.25V466.5H742.5V467.5H742.25H703.75H703.5V467.25V456.75V456.5H702.5V455.5H703.5V453.5H702.5V452.5H703.5V450.5H702.5V448.5H703.5V447.5H702.5V446.5H703.5V444.5H702.5V443.5H703.5V442.5H702.5V440.5H703.5V439.5H702.5V437.5H703.5V436.5H702.5V435.5H703.5V433.5H702.5V432.5H703.5V430.5H702.5V429.5H703.5V428.5H702.5V427.5H703.5V426.5H702.5V424.5H703.5V423.5H702.5V422.5H703.5V421.5H702.5V420.5H703.5V419.5H702.5V417.5H703.5V416.5H702.5V414.5H703.5V413.5H702.5V412.5H703.5V411.5H702.5V409.5H703.5V408.5H702.5V407.5H703.5V406.5H702.5V404.5H703.5V402.5H702.5V401.5H703.5V399.5H702.5V398.5H703.5V396.5H702.5V395.5H703.5V395.25V392.75V392.5H702.5V391.5H703.5V389.5H702.5V388.5H703.5V386.5H702.5V385.5H703.5V383.5H702.5V382.5H703.5V382.25V377.75V377.5H702.5V376.5H703.5V374.5H702.5V373.5H703.5V373.25V369.75V369.5H702.5V368.5H703.5V367.5H702.5V366.5H703.5V366.25V359.75V359.5H702.5V358.5H703.5V356.5H702.5V355.5H703.5V353.5H702.5V352.5H703.5V350.5H702.5V349.5H703.5V349.25V345.75V345.5H702.5V344.5H703.5V342.5H702.5V340.5H703.5V339.5H702.5V338.5H703.5V336.5H702.5V334.5H703.5V334.25V331.75V331.5H702.5V330.5H703.5V328.5H702.5V327.5H703.5V325.5H702.5V324.5H703.5V324.25V321.75V321.5H702.5V320.5H703.5V318.5H702.5V317.5H703.5V315.5H702.5V314.5H703.5V312.5H702.5V311.5H703.5V309.5H702.5V308.5H703.5V308.25V301.75V301.5H702.5V300.5H702.25H696.75H696.5V299.5H695.5V300.5H695.25H692.75H692.5V299.5H691.5V300.5H691.25H679.75H679.5V299.5H678.5V299.25V293.75V293.5H677.5V292.5H678.5V292.25V264.75V264.5Z" fill="#DA0714" stroke="#DA0714"/>
<path d="M893.5 264.5H893.75H961.25H961.5V265.5H961.75H966.25H966.5V266.5H966.75H969.25H969.5V267.5H971.5V268.5H971.75H974.25H974.5V269.5H975.5V270.5H977.5V271.5H978.5V272.5H980.5V273.5H981.5V274.5H982.5V275.5H983.5V276.5H984.5V277.5H985.5V279.5H986.5V281.5H987.5V283.5H988.5V283.75V286.25V286.5H989.5V286.75V289.25V289.5H990.5V289.75V295.25V295.5H991.5V295.75V346.25V346.5H990.5V346.75V352.25V352.5H989.5V352.75V355.25V355.5H988.5V357.5H987.5C987.5 357.75 987.5 358.333 987.5 359.25V359.5H986.5V361.5H985.5V362.5H984.5V364.5H983.5V365.5H981.5V366.5H980.5V367.5H979.5V368.5C979.25 368.5 978.667 368.5 977.75 368.5H977.5V369.5H975.5V371.5H977.5V372.5H979.5V373.5H980.5V374.5H982.5V375.5H983.5V376.5H984.5V377.5H985.5V378.5H986.5V379.5H987.5V381.5H988.5V383.5H989.5V385.5H990.5V385.75V389.25V389.5H991.5V389.75V467.25V467.5H991.25H951.75H951.5V467.25V394.75V394.5H950.5V392.5H949.5V391.5H948.5V390.5H946.5V389.5H946.25H933.75H933.5V389.75V467.25V467.5H933.25H893.75H893.5V467.25V264.75V264.5ZM933.5 299.5V300V353.5H934.5V354.5H935H946.5V353.5H948.5V352.5H949.5V350.5H950.5V347V346.5H951.5V308V307.5H950.5V304V303.5H949.5V302.5H948.5V301.5H947.5V300.5H945.5V299.5H934H933.5Z" fill="#DA0714" stroke="#DA0714"/>
<path d="M1005.5 264.5H1005.75H1072.25H1072.5V265.5H1072.75H1077.25H1077.5V266.5H1077.75H1080.25H1080.5V267.5H1080.75H1083.25H1083.5V268.5H1085.5V269.5C1085.75 269.5 1086.33 269.5 1087.25 269.5H1087.5V270.5H1089.5V271.5H1090.5V272.5H1091.5V273.5H1092.5V274.5H1094.5V276.5H1095.5V277.5H1096.5V278.5H1097.5V280.5H1098.5V282.5H1099.5V284.5H1100.5V284.75V287.25V287.5H1101.5V287.75V290.25V290.5H1102.5V290.75V296.25V296.5H1103.5V296.75V361.25V361.5H1102.5V361.75V368.25V368.5H1101.5V368.75V372.25V372.5H1100.5V372.75V375.25V375.5H1099.5V377.5H1098.5V377.75V380.25V380.5H1097.5V382.5H1096.5V383.5H1095.5V385.5H1094.5V386.5H1093.5V387.5H1092.5V388.5H1091.5V389.5H1089.5V390.5H1088.5V391.5H1086.5V392.5H1084.5V393.5H1082.5V394.5H1082.25H1078.75H1078.5V395.5H1078.25H1075.75H1075.5V396.5H1075.25H1064.75H1064.5V397.5H1064.25H1046.75H1046.5V398.5H1045.5V398.75V467.25V467.5H1045.25H1005.75H1005.5V467.25V264.75V264.5ZM1046.5 299.5V301.5H1045.5V302.5H1046.5V304.5H1045.5V305.5H1046.5V307.5H1045.5V308.5H1046.5V309V312.5H1045.5V313.5H1046.5V314V320.5H1045.5V321.5H1046.5V323.5H1045.5V324.5H1046.5V325V330.5H1045.5V331.5H1046.5V333.5H1045.5V334.5H1046.5V336.5H1045.5V337.5H1046.5V338.5H1045.5V340.5H1046.5V341.5H1045.5V343.5H1046.5V344.5H1045.5V346.5H1046.5V347.5H1045.5V349.5H1046.5V350.5H1045.5V351V355.5H1046.5V356.5H1045.5V357V360.5H1046.5V361.5H1047.5V362.5H1048.5V361.5H1049.5V362.5H1050H1053.5V361.5H1054H1059.5V360.5H1060.5V359.5H1061.5V358.5H1062.5V356.5H1063.5V306V305.5H1062.5V303.5H1061.5V301.5H1059.5V300.5H1058.5V299.5H1047H1046.5Z" fill="#DA0714" stroke="#DA0714"/>
<path d="M1231.5 264.5H1231.75H1299.25H1299.5V265.5H1299.75H1303.25H1303.5V266.5H1303.75H1306.25H1306.5V267.5H1306.75H1309.25H1309.5V268.5C1309.75 268.5 1310.33 268.5 1311.25 268.5H1311.5V269.5H1313.5V270.5H1314.5V271.5H1316.5V272.5H1317.5V273.5H1318.5V274.5H1319.5V275.5H1320.5V276.5H1321.5V277.5H1322.5V278.5H1323.5V280.5H1324.5V282.5H1325.5V282.75V285.25V285.5H1326.5V285.75V288.25V288.5H1327.5V288.75V291.25V291.5H1328.5V291.75V299.25V299.5H1329.5V301.5H1328.5V302.5H1329.5V302.75V344.25V344.5H1328.5V344.75V349.25V349.5H1327.5V349.75V353.25V353.5H1326.5V353.75V356.25V356.5H1325.5C1325.5 356.75 1325.5 357.333 1325.5 358.25V358.5H1324.5V360.5H1323.5V361.5H1322.5V362.5H1321.5V364.5H1320.5V365.5H1319.5V366.5H1317.5V367.5H1316.5V368.5H1315.5V369.5H1313.5V370.5H1312.5V371.5H1313.5V372.5H1313.75H1316.25H1316.5V373.5H1318.5V374.5H1319.5V375.5H1320.5V376.5H1321.5V377.5H1322.5V378.5H1323.5V379.5H1324.5V381.5H1325.5V382.5H1326.5V384.5H1327.5V384.75V387.25V387.5H1328.5V387.75V392.25V392.5H1329.5V392.75V466.25V466.5H1328.5V467.5H1328.25H1289.75H1289.5V467.25V463.75V463.5H1288.5V462.5H1289.5V460.5H1288.5V459.5H1289.5V458.5H1288.5V456.5H1289.5V455.5H1288.5V454.5H1289.5V454.25V449.75V449.5H1288.5V448.5H1289.5V447.5H1288.5V445.5H1289.5V444.5H1288.5V443.5H1289.5V441.5H1288.5V440.5H1289.5V439.5H1288.5V438.5H1289.5V437.5H1288.5V436.5H1289.5V435.5H1288.5V433.5H1289.5V432.5H1288.5V432.25V429.75V429.5H1289.5V428.5H1288.5V427.5H1289.5V425.5H1288.5V424.5H1289.5V423.5H1288.5V421.5H1289.5V419.5H1288.5V419.25V414.75V414.5H1289.5V413.5H1288.5V411.5H1289.5V410.5H1288.5V410.25V405.75V405.5H1289.5V404.5H1288.5V403.5H1289.5V401.5H1288.5V401.25V395.75V395.5H1287.5V393.5H1286.5V392.5H1285.5V391.5H1284.5V390.5H1284.25H1281.75H1281.5V389.5H1281.25H1271.75H1271.5V390.5H1270.5V390.75V397.25V397.5H1271.5V398.5H1270.5V400.5H1271.5V401.5H1270.5V403.5H1271.5V404.5H1270.5V405.5H1271.5V406.5H1270.5V408.5H1271.5V409.5H1270.5V411.5H1271.5V412.5H1270.5V413.5H1271.5V414.5H1270.5V415.5H1271.5V417.5H1270.5V418.5H1271.5V419.5H1270.5V421.5H1271.5V422.5H1270.5V423.5H1271.5V425.5H1270.5V425.75V428.25V428.5H1271.5V430.5H1270.5V431.5H1271.5V433.5H1270.5V433.75V467.25V467.5H1270.25H1230.75H1230.5V467.25V265.75V265.5H1231.5V264.5ZM1271.5 299.5V301.5H1270.5V302V334.5H1271.5V335.5H1270.5V337.5H1271.5V339.5H1270.5V341.5H1271.5V342.5H1270.5V344.5H1271.5V345.5H1270.5V346V353.5H1271.5V354.5H1272H1283.5V353.5H1285.5V352.5H1286.5V351.5H1287.5V349.5H1288.5V305V304.5H1287.5V302.5H1286.5V301.5H1285.5V300.5H1283.5V299.5H1272H1271.5Z" fill="#DA0714" stroke="#DA0714"/>
<path d="M1337.5 264.5H1337.75H1428.25H1428.5V264.75V299.25V299.5H1427.5V300.5H1426.5V299.5H1425.5V300.5H1425.25H1402.75C1402.5 300.417 1402.42 300.5 1402.5 300.75V467.25V467.5H1402.25H1362.75H1362.5V467.25V300.75C1362.58 300.5 1362.5 300.417 1362.25 300.5H1338.75H1338.5V299.5H1337.5V299.25V264.75V264.5Z" fill="#DA0714" stroke="#DA0714"/>
<path d="M1477.5 264.5H1477.75H1516.25H1516.5V265.5H1517.5V266.5H1516.5V267.5H1517.5V267.75V274.25V274.5H1516.5V275.5H1517.5V275.75V279.25V279.5H1516.5V280.5H1517.5V280.75V288.25V288.5H1516.5V289.5H1517.5V289.75V292.25V292.5H1516.5V293.5H1517.5V293.75V296.25V296.5H1516.5V297.5H1517.5V297.75V305.25V305.5H1516.5V306.5H1517.5V306.75V311.25V311.5H1516.5V312.5H1517.5V312.75V328.25V328.5H1516.5V329.5H1517.5V329.75V344.25V344.5H1517.75H1520.25H1520.5V345.5H1522.5V344.5H1523.5V345.5H1525.5V344.5H1526.5V345.5H1528.5V344.5H1529.5V345.5H1530.5V344.5H1530.75H1533.25H1533.5V345.5H1534.5V344.5H1535.5V345.5H1536.5V344.5C1536.75 344.5 1537.33 344.5 1538.25 344.5C1538.5 344.583 1538.58 344.5 1538.5 344.25V264.75V264.5H1538.75H1577.25H1577.5V264.75V268.25V268.5H1578.5V269.5H1577.5V271.5H1578.5V273.5H1577.5V274.5H1578.5V275.5H1577.5V276.5H1578.5V278.5H1577.5V280.5H1578.5V281.5H1577.5V283.5H1578.5V284.5H1577.5V285.5H1578.5V286.5H1577.5V288.5H1578.5V289.5H1577.5V291.5H1578.5V292.5H1577.5V293.5H1578.5V294.5H1577.5V295.5H1578.5V296.5H1577.5V296.75V299.25V299.5H1578.5V300.5H1577.5V302.5H1578.5V303.5H1577.5V303.75V306.25V306.5H1578.5V307.5H1577.5V309.5H1578.5V310.5H1577.5V310.75V313.25V313.5H1578.5V314.5H1577.5V315.5H1578.5V317.5H1577.5V318.5H1578.5V319.5H1577.5V320.5H1578.5V321.5H1577.5V323.5H1578.5V324.5H1577.5V326.5H1578.5V328.5H1577.5V329.5H1578.5V331.5H1577.5V333.5H1578.5V334.5H1577.5V336.5H1578.5V337.5H1577.5V337.75V341.25V341.5H1578.5V342.5H1577.5V344.5H1578.5V345.5H1577.5V347.5H1578.5V348.5H1577.5V350.5H1578.5V351.5H1577.5V351.75V354.25V354.5H1578.5V355.5H1577.5V357.5H1578.5V358.5H1577.5V360.5H1578.5V361.5H1577.5V363.5H1578.5V364.5H1577.5V364.75V372.25V372.5H1578.5V373.5H1577.5V375.5H1578.5V376.5H1577.5V378.5H1578.5V379.5H1577.5V381.5H1578.5V382.5H1577.5V384.5H1578.5V385.5H1577.5V387.5H1578.5V388.5H1577.5V389.5H1578.5V391.5H1577.5V392.5H1578.5V394.5H1577.5V395.5H1578.5V396.5H1577.5V398.5H1578.5V400.5H1577.5V401.5H1578.5V403.5H1577.5V404.5H1578.5V406.5H1577.5V408.5H1578.5V409.5H1577.5V409.75V412.25V412.5H1578.5V413.5H1577.5V415.5H1578.5V416.5H1577.5V418.5H1578.5V419.5H1577.5V420.5H1578.5V422.5H1577.5V423.5H1578.5V425.5H1577.5V427.5H1578.5V429.5H1577.5V430.5H1578.5V432.5H1577.5V434.5H1578.5V435.5H1577.5V437.5H1578.5V438.5H1577.5V440.5H1578.5V441.5H1577.5V443.5H1578.5V444.5H1577.5V444.75V467.25V467.5H1577.25H1538.75H1538.5V467.25V383.75V383.5H1537.5V382.5H1537.25H1517.75H1517.5V382.75V396.25V396.5H1516.5V397.5H1517.5V397.75V400.25V400.5H1516.5V401.5H1517.5V401.75V404.25V404.5H1516.5V405.5H1517.5V405.75V414.25V414.5H1516.5V415.5H1517.5V417.5H1516.5V418.5H1517.5V420.5H1516.5V421.5H1517.5V421.75V425.25V425.5H1516.5V426.5H1517.5V428.5H1516.5V429.5H1517.5V431.5H1516.5V432.5H1517.5V433.5H1516.5V435.5H1517.5V435.75V439.25V439.5H1516.5V441.5H1517.5V443.5H1516.5V444.5H1517.5V446.5H1516.5V448.5H1517.5V450.5H1516.5V451.5H1517.5V453.5H1516.5V454.5H1517.5V455.5H1516.5V456.5H1517.5V458.5H1516.5V459.5H1517.5V460.5H1516.5V461.5H1517.5V461.75V465.25V465.5H1516.5C1516.5 465.75 1516.5 466.333 1516.5 467.25C1516.58 467.5 1516.5 467.583 1516.25 467.5H1477.75H1477.5V467.25V281.75V281.5H1476.5V280.5H1477.5V279.5H1476.5V277.5H1477.5V275.5H1476.5V274.5H1477.5V274.25V264.75V264.5Z" fill="#DA0714" stroke="#DA0714"/>
<path d="M1593.5 264.5H1593.75H1632.25H1632.5V264.75V352.25V352.5H1633.5V350.5H1634.5V350.25V346.75V346.5H1635.5V346.25V342.75V342.5H1636.5V342.25V338.75V338.5H1637.5V338.25V334.75V334.5H1638.5V334.25V331.75V331.5H1639.5V331.25V326.75V326.5H1640.5V326.25V323.75V323.5H1641.5V323.25V318.75V318.5H1642.5V318.25V315.75V315.5H1643.5V315.25V311.75V311.5H1644.5V311.25V306.75V306.5H1645.5V306.25V302.75V302.5H1646.5V302.25V298.75V298.5H1647.5V298.25V295.75V295.5H1648.5V295.25V291.75V291.5H1649.5V291.25V287.75V287.5H1650.5V287.25V284.75V284.5H1651.5V284.25V280.75V280.5H1652.5V280.25V276.75V276.5H1653.5V276.25V272.75V272.5H1654.5V272.25V268.75V268.5H1655.5V268.25V265.75V265.5H1656.5V264.5H1656.75H1697.25H1697.5V264.75V270.25V270.5H1696.5V270.75V273.25V273.5H1695.5V273.75V277.25V277.5H1694.5V277.75V280.25V280.5H1693.5V280.75V283.25V283.5H1692.5V283.75V287.25V287.5H1691.5V287.75V290.25V290.5H1690.5V290.75V293.25V293.5H1689.5V293.75V297.25V297.5H1688.5V297.75V300.25V300.5H1687.5V300.75V304.25V304.5H1686.5V304.75V307.25V307.5H1685.5V307.75V311.25V311.5H1684.5V311.75V314.25V314.5H1683.5V314.75V318.25V318.5H1682.5V318.75V321.25V321.5H1681.5V321.75V324.25V324.5H1680.5V324.75V327.25V327.5H1679.5V327.75V331.25V331.5H1678.5V331.75V334.25V334.5H1677.5V334.75V337.25V337.5H1676.5V337.75V340.25V340.5H1675.5V340.75V344.25V344.5H1674.5V344.75V348.25V348.5H1673.5V348.75V352.25V352.5H1672.5V352.75V355.25V355.5H1671.5V355.75V359.25V359.5H1670.5V359.75V363.25V363.5H1669.5V365.5H1670.5V365.75V369.25V369.5H1671.5V369.75V373.25V373.5H1672.5V373.75V376.25V376.5H1673.5V376.75V380.25V380.5H1674.5V380.75V384.25V384.5H1675.5V384.75V388.25V388.5H1676.5V388.75V391.25V391.5H1677.5V391.75V395.25V395.5H1678.5V395.75V399.25V399.5H1679.5V399.75V402.25V402.5H1680.5V402.75V405.25V405.5H1681.5V405.75V409.25V409.5H1682.5V409.75V413.25V413.5H1683.5V413.75V417.25V417.5H1684.5V417.75V420.25V420.5H1685.5V420.75V424.25V424.5H1686.5V424.75V427.25V427.5H1687.5V427.75V431.25V431.5H1688.5V431.75V435.25V435.5H1689.5V435.75V439.25V439.5H1690.5V439.75V442.25V442.5H1691.5V442.75V446.25V446.5H1692.5V446.75V449.25V449.5H1693.5V449.75V453.25V453.5H1694.5V453.75V457.25V457.5H1695.5V457.75V461.25V461.5H1696.5V461.75V464.25V464.5H1697.5V466.5H1696.5V467.5H1696.25H1655.75H1655.5V466.5H1654.5V466.25V463.75V463.5H1653.5V463.25V460.75V460.5H1652.5V460.25V455.75V455.5H1651.5V455.25V451.75V451.5H1650.5V451.25V447.75V447.5H1649.5V447.25V443.75V443.5H1648.5V443.25V439.75V439.5H1647.5V439.25V435.75V435.5H1646.5V435.25V431.75V431.5H1645.5V431.25V427.75V427.5H1644.5V427.25V422.75V422.5H1643.5V422.25V417.75V417.5H1642.5V417.25V413.75V413.5H1641.5V413.25V409.75V409.5H1640.5V409.25V404.75V404.5H1639.5V404.25V400.75V400.5H1638.5V400.25V395.75V395.5H1637.5V395.25V392.75V392.5H1636.5V392.25V387.75V387.5H1635.5V387.25V383.75V383.5H1634.5V383.25V378.75V378.5H1633.5V377.5H1632.5V377.75V467.25V467.5H1632.25H1593.75H1593.5V467.25V264.75V264.5Z" fill="#DA0714" stroke="#DA0714"/>
<path d="M542.5 112.5H543.5V113.5H543.75H546.25H546.5V112.5H547.5V113.5H547.75H558.25H558.5V114.5H558.75H562.25H562.5V115.5C562.75 115.5 563.333 115.5 564.25 115.5H564.5V116.5H566.5V117.5H567.5V118.5H568.5V119.5H569.5V120.5H570.5V122.5H571.5V123.5H572.5V123.75V126.25V126.5H573.5V126.75V131.25V131.5H574.5V131.75V157.25V157.5H574.25H550.75C550.5 157.583 550.417 157.5 550.5 157.25V153.75V153.5H549.5V152.5H550.5V150.5H549.5V149.5H550.5V147.5H549.5V146.5H550.5V145.5H549.5V145.25V135.75V135.5H548.5V133.5H548.25H540.75H540.5V135.5H539.5V135.75V152.25V152.5H540.5V154.5H541.5V155.5H542.5V156.5H543.5V157.5H544.5V158.5H546.5V159.5H547.5V160.5H549.5V161.5H550.5V162.5H552.5V163.5H553.5V164.5H555.5V165.5H556.5V166.5H558.5V167.5H559.5V168.5H560.5V169.5H562.5V170.5H563.5V171.5H564.5V172.5H566.5V173.5H567.5V174.5H568.5V175.5H569.5V177.5H570.5V178.5H571.5V180.5H572.5V181.5H573.5V181.75V185.25V185.5H574.5V185.75V221.25V221.5H573.5V221.75V224.25V224.5H572.5C572.5 224.75 572.5 225.333 572.5 226.25V226.5H571.5V228.5H570.5V229.5H569.5V231.5H568.5V232.5H566.5V233.5H565.5V234.5H563.5V235.5H563.25H560.75H560.5V236.5H560.25H553.75H553.5V237.5H552.5V236.5H550.5V237.5H550.25H544.75H544.5V236.5H543.5V237.5H543.25H539.75H539.5V236.5H539.25H530.75H530.5V235.5H530.25H526.75H526.5V234.5H524.5V233.5H523.5V232.5H522.5V231.5H521.5V230.5H520.5V229.5H519.5V228.5H518.5V226.5H517.5V224.5H516.5V222.5H515.5V222.25V207.75V207.5H514.5V206.5H515.5V206.25V201.75V201.5H514.5V200.5H515.5V198.5H514.5V197.5H515.5V195.5H514.5V194.5H515.5V194.25V190.75V190.5H514.5V189.5H515.5V188.5H515.75H539.25H539.5V188.75V196.25V196.5H538.5V197.5H539.5V197.75V202.25V202.5H538.5V203.5H539.5V205.5H538.5V206.5H539.5V207.5H538.5V209.5H539.5V209.75V214.25V214.5H540.5V215.5H541.5V216.5H541.75H548.25H548.5V215.5H549.5V213.5H550.5V213.25V197.75V197.5H549.5V197.25V192.75V192.5H548.5V191.5H547.5V190.5H546.5V189.5H545.5V188.5H543.5V187.5H542.5V186.5H541.5V185.5H539.5V184.5H538.5V183.5H537.5V182.5H535.5V181.5H534.5V180.5H533.5V179.5C533.25 179.5 532.667 179.5 531.75 179.5H531.5V178.5H529.5V177.5H528.5V176.5H527.5V175.5H525.5V174.5H524.5V173.5H523.5V172.5H522.5V171.5H521.5V170.5H520.5V169.5H519.5V168.5H518.5V166.5H517.5V164.5H516.5V162.5H515.5V162.25V154.75V154.5H514.5V154.25V145.75V145.5H515.5V143.5H514.5V142.5H515.5V142.25V128.75V128.5H516.5V128.25V125.75V125.5H517.5C517.5 125.25 517.5 124.667 517.5 123.75V123.5H518.5V121.5H519.5V120.5H520.5V119.5H521.5V118.5H522.5V117.5H523.5V116.5H525.5V115.5H527.5V114.5H527.75H532.25H532.5V113.5H532.75H542.25H542.5V112.5Z" fill="#0B4F90" stroke="#0B4F90"/>
<path d="M736.5 113.5H736.75H763.25H763.5V114.5H763.75H767.25H767.5V115.5H769.5V116.5H771.5V117.5H772.5V118.5H773.5V119.5H774.5V120.5H775.5V121.5H776.5V123.5H777.5V125.5H778.5V125.75V128.25V128.5H779.5V128.75V161.25V161.5H780.5V162.5H779.5V163.5H779.25H756.75H756.5V162.5H755.5V162.25V153.75V153.5H756.5V152.5H755.5V152.25V135.75V135.5H754.5V134.5H753.5V133.5H753.25H746.75H746.5V134.5H744.5V136.5H743.5V136.75V213.25V213.5H744.5V214.5H745.5V215.5H747.5V216.5H747.75H753.25H753.5V215.5H754.5V214.5H755.5V214.25V182.75V182.5H755.75H779.25H779.5V182.75V192.25V192.5H780.5V193.5H779.5V195.5H780.5V196.5H779.5V198.5H780.5V199.5H779.5V201.5H780.5V202.5H779.5V203.5H780.5V204.5H779.5V205.5H780.5V206.5H779.5V207.5H780.5V209.5H779.5V210.5H780.5V211.5H779.5V211.75V222.25V222.5H778.5V222.75V225.25V225.5H777.5V227.5H776.5V228.5H775.5V230.5H774.5V231.5H773.5V232.5H771.5V233.5H770.5V234.5H770.25H767.75H767.5V235.5H767.25H764.75H764.5V236.5H764.25H755.75H755.5V237.5H754.5V236.5H754.25H751.75H751.5V237.5H750.5V236.5H748.5V237.5H746.5V236.5H745.5V237.5H744.5V236.5H744.25H735.75H735.5V235.5H735.25H731.75H731.5V234.5C731.25 234.5 730.667 234.5 729.75 234.5H729.5V233.5H727.5V232.5H726.5V231.5H725.5V230.5H724.5V229.5H723.5V228.5H722.5V227.5H721.5V225.5H720.5V225.25V221.75V221.5H719.5V221.25V185.75V185.5H718.5V184.5H719.5V182.5H718.5V181.5H719.5V180.5H718.5V179.5H719.5V177.5H718.5V176.5H719.5V175.5H718.5V175.25V171.75V171.5H719.5V170.5H718.5V169.5H719.5V167.5H718.5V166.5H719.5V165.5H718.5V164.5H719.5V164.25V161.75V161.5H718.5V160.5H719.5V159.5H718.5V158.5H719.5V156.5H718.5V155.5H719.5V155.25V128.75V128.5H720.5V128.25V125.75V125.5H721.5C721.5 125.25 721.5 124.667 721.5 123.75V123.5H722.5V121.5H723.5V120.5H724.5V119.5H725.5V118.5H726.5V117.5H728.5V116.5H730.5V115.5H732.5V114.5H732.75H736.25H736.5V113.5Z" fill="#0B4F90" stroke="#0B4F90"/>
<path d="M863.5 113.5H863.75H893.25H893.5V114.5H893.75H896.25H896.5V115.5H896.75H899.25H899.5V116.5H900.5V117.5H902.5V118.5H903.5V119.5H904.5V120.5H905.5V121.5H906.5V123.5H907.5V123.75V126.25V126.5H908.5V126.75V130.25V130.5H909.5V130.75V219.25V219.5H908.5V219.75V223.25V223.5H907.5V223.75V226.25V226.5H906.5V228.5H905.5V229.5H904.5V230.5H903.5V231.5H902.5V232.5H901.5V233.5H899.5V234.5H897.5V235.5H897.25H894.75H894.5V236.5H894.25H885.75H885.5V237.5H883.5V236.5H882.5V237.5H882.25H874.75H874.5V236.5H873.5V237.5H872.5V236.5H871.5V237.5H870.5V236.5H870.25H862.75H862.5V235.5H862.25H859.75H859.5V234.5C859.25 234.5 858.667 234.5 857.75 234.5H857.5V233.5H855.5V232.5H854.5V231.5H853.5V230.5H852.5V229.5H851.5V227.5H850.5V226.5H849.5V224.5H848.5V224.25V220.75V220.5H847.5V220.25V130.75V130.5H848.5V130.25V126.75V126.5H849.5V126.25V123.75V123.5H850.5V121.5H851.5V120.5H852.5V119.5H853.5V118.5H854.5V117.5H856.5V116.5H858.5V115.5H860.5V114.5H860.75H863.25H863.5V113.5ZM874.5 133.5V134.5H873.5V135.5H872.5V137.5H871.5V138V212.5H872.5V214.5H873.5V215.5H874H877.5V216.5H878.5V215.5H879H883.5V214.5H884.5V212V211.5H885.5V140V139.5H884.5V136V135.5H883.5V134.5H881.5V133.5H875H874.5Z" fill="#0B4F90" stroke="#0B4F90"/>
<path d="M1060.5 113.5H1060.75H1088.25H1088.5V114.5H1088.75H1092.25H1092.5V115.5H1094.5V116.5H1096.5V117.5H1097.5V118.5H1099.5V119.5H1100.5V121.5H1101.5V122.5H1102.5C1102.5 122.75 1102.5 123.333 1102.5 124.25V124.5H1103.5V126.5H1104.5V126.75V131.25V131.5H1105.5V131.75V217.25V217.5H1104.5V217.75V222.25V222.5H1103.5V222.75V225.25V225.5H1102.5C1102.5 225.75 1102.5 226.333 1102.5 227.25V227.5H1101.5V229.5H1100.5V230.5H1099.5V231.5H1098.5V232.5H1097.5V233.5H1095.5V234.5H1093.5V235.5H1093.25H1090.75H1090.5V236.5H1090.25H1078.75H1078.5V237.5H1076.5V236.5H1075.5V237.5H1073.5V236.5H1072.5V237.5H1072.25H1069.75H1069.5V236.5H1069.25H1058.75H1058.5V235.5H1058.25H1055.75H1055.5V234.5C1055.25 234.5 1054.67 234.5 1053.75 234.5H1053.5V233.5H1051.5V232.5H1050.5V231.5H1049.5V230.5H1048.5V229.5H1047.5V227.5H1046.5V226.5H1045.5V226.25V223.75V223.5H1044.5V223.25V219.75V219.5H1043.5V219.25V129.75V129.5H1044.5V129.25V125.75V125.5H1045.5V123.5H1046.5V121.5H1047.5V120.5H1048.5V119.5H1049.5V118.5H1050.5V117.5H1052.5V116.5H1053.5V115.5H1053.75H1056.25H1056.5V114.5H1056.75H1060.25H1060.5V113.5ZM1071.5 133.5V134.5H1069.5V135.5H1068.5V136V138.5H1067.5V139V209.5H1068.5V210.5H1067.5V211.5H1068.5V212V214.5H1069.5V215.5H1070H1079.5V214.5H1080.5V211V210.5H1081.5V198V197.5H1080.5V196.5H1081.5V192V191.5H1080.5V190.5H1081.5V188.5H1080.5V186.5H1081.5V175V174.5H1080.5V173.5H1081.5V148V147.5H1080.5V146.5H1081.5V144.5H1080.5V143.5H1081.5V141.5H1080.5V136V135.5H1079.5V134.5H1078.5V133.5H1072H1071.5Z" fill="#0B4F90" stroke="#0B4F90"/>
<path d="M1132.5 113.5H1132.75H1157.25H1157.5V114.5H1157.75H1161.25H1161.5V115.5H1161.75H1164.25H1164.5V116.5H1165.5V117.5H1167.5V118.5H1168.5V119.5H1169.5V120.5H1170.5V121.5H1171.5V123.5H1172.5V125.5H1173.5V125.75V129.25V129.5H1174.5V129.75V157.25V157.5H1174.25H1150.75H1150.5V157.25V135.75V135.5H1149.5V134.5H1148.5V133.5H1147.5V132.5H1147.25H1142.75H1142.5V133.5H1141.5V134.5H1140.5V136.5H1139.5V136.75V149.25V149.5H1140.5V149.75V153.25V153.5H1141.5V154.5H1142.5V155.5H1143.5V156.5H1144.5V157.5H1145.5V158.5H1146.5V159.5H1148.5V160.5H1149.5V161.5H1150.5V162.5H1152.5V163.5H1153.5V164.5H1155.5V165.5H1156.5V166.5H1158.5V167.5H1159.5V168.5H1160.5V169.5H1162.5V170.5H1163.5V171.5H1164.5V172.5H1165.5V173.5H1167.5V174.5H1168.5V175.5H1169.5V177.5H1170.5V178.5H1171.5V179.5H1172.5V181.5H1173.5V181.75V184.25V184.5H1174.5V184.75V196.25V196.5H1175.5V197.5H1174.5V199.5H1175.5V200.5H1174.5V201.5H1175.5V201.75V204.25V204.5H1174.5V206.5H1175.5V208.5H1174.5V208.75V221.25V221.5H1173.5V221.75V225.25V225.5H1172.5V227.5H1171.5V228.5H1170.5V229.5H1169.5V231.5H1168.5V232.5H1166.5V233.5H1165.5V234.5H1165.25H1162.75H1162.5V235.5H1162.25H1159.75H1159.5V236.5H1159.25H1151.75H1151.5V237.5H1151.25H1138.75H1138.5V236.5H1138.25H1130.75H1130.5V235.5H1130.25H1127.75H1127.5V234.5C1127.25 234.5 1126.67 234.5 1125.75 234.5H1125.5V233.5H1123.5V232.5H1122.5V231.5H1121.5V230.5H1120.5V229.5H1119.5V228.5H1118.5V226.5H1117.5V224.5H1116.5V224.25V220.75V220.5H1115.5V220.25V188.75V188.5H1115.75H1139.25H1139.5V188.75V214.25V214.5H1140.5V215.5H1141.5V216.5H1141.75H1148.25H1148.5V215.5H1149.5V214.5H1150.5V214.25V194.75V194.5H1149.5C1149.5 194.25 1149.5 193.667 1149.5 192.75V192.5H1148.5V190.5H1147.5V189.5H1146.5V188.5H1145.5V187.5H1143.5V186.5H1142.5V185.5H1141.5V184.5H1139.5V183.5H1138.5V182.5C1138.25 182.5 1137.67 182.5 1136.75 182.5H1136.5V181.5H1134.5V180.5H1133.5V179.5H1131.5V178.5H1130.5V177.5H1128.5V176.5H1127.5V175.5H1126.5V174.5H1124.5V173.5H1123.5V172.5H1122.5V171.5H1121.5V170.5H1120.5V169.5H1119.5V167.5H1118.5V165.5H1117.5V163.5H1116.5V163.25V160.75V160.5H1115.5V160.25V130.75V130.5H1116.5V130.25V126.75V126.5H1117.5V126.25V123.75V123.5H1118.5V121.5H1119.5V120.5H1120.5V119.5H1121.5V118.5H1122.5V117.5H1124.5V116.5H1125.5V115.5H1125.75H1128.25H1128.5V114.5H1128.75H1132.25H1132.5V113.5Z" fill="#0B4F90" stroke="#0B4F90"/>
<path d="M1199.5 113.5H1199.75H1227.25H1227.5V114.5H1227.75H1230.25H1230.5V115.5H1232.5V116.5C1232.75 116.5 1233.33 116.5 1234.25 116.5H1234.5V117.5H1236.5V118.5H1237.5V119.5H1238.5V121.5H1239.5V122.5H1240.5V124.5H1241.5V124.75V127.25V127.5H1242.5V127.75V132.25V132.5H1243.5V132.75V157.25V157.5H1243.25H1219.75H1219.5V156.5H1218.5V156.25V135.75V135.5H1217.5V133.5H1217.25H1214.75H1214.5V132.5H1214.25H1211.75H1211.5V133.5H1209.5V135.5H1208.5V135.75V152.25V152.5H1209.5V154.5H1210.5V155.5H1211.5V156.5H1212.5V157.5H1213.5V158.5H1215.5V159.5H1216.5V160.5H1217.5V161.5H1219.5V162.5H1220.5V163.5H1222.5V164.5H1223.5V165.5H1224.5V166.5H1226.5V167.5H1227.5V168.5H1229.5V169.5H1230.5V170.5H1231.5V171.5H1233.5V172.5H1234.5V173.5H1235.5V174.5H1236.5V175.5H1237.5V176.5H1238.5V177.5H1239.5V179.5H1240.5V180.5H1241.5V180.75V183.25V183.5H1242.5V183.75V187.25V187.5H1243.5V187.75V221.25V221.5H1242.5V221.75V224.25V224.5H1241.5C1241.5 224.75 1241.5 225.333 1241.5 226.25V226.5H1240.5V228.5H1239.5V229.5H1238.5V230.5H1237.5V232.5H1235.5V233.5H1234.5V234.5H1232.5V235.5H1232.25H1229.75H1229.5V236.5H1229.25H1223.75H1223.5V237.5H1223.25H1207.75H1207.5V236.5H1207.25H1198.75H1198.5V235.5H1198.25H1195.75H1195.5V234.5H1193.5V233.5H1192.5V232.5H1190.5V231.5H1189.5V230.5H1188.5V229.5H1187.5V227.5H1186.5V225.5H1185.5V223.5H1184.5V223.25V217.75V217.5H1183.5V217.25V188.75V188.5H1183.75H1207.25H1207.5V188.75V212.25V212.5H1208.5V212.75V215.25V215.5H1210.5V216.5H1210.75H1217.25H1217.5V215.5H1218.5V213.5H1219.5V213.25V195.75V195.5H1218.5C1218.5 195.25 1218.5 194.667 1218.5 193.75V193.5H1217.5V191.5H1216.5V190.5H1215.5V189.5H1214.5V188.5H1213.5V187.5H1211.5V186.5H1210.5V185.5H1208.5V184.5H1207.5V183.5H1205.5V182.5H1204.5V181.5H1203.5V180.5H1201.5V179.5H1200.5V178.5H1198.5V177.5H1197.5V176.5H1195.5V175.5H1194.5V174.5H1193.5V173.5H1192.5V172.5H1191.5V171.5H1190.5V170.5H1189.5V169.5H1188.5V168.5H1187.5V166.5H1186.5V165.5H1185.5V165.25V162.75V162.5H1184.5V162.25V158.75V158.5H1183.5V158.25V132.75V132.5H1184.5V132.25V126.75V126.5H1185.5C1185.5 126.25 1185.5 125.667 1185.5 124.75V124.5H1186.5V122.5H1187.5V121.5H1188.5V119.5H1189.5V118.5H1190.5V117.5H1192.5V116.5H1194.5V115.5H1196.5V114.5H1196.75H1199.25H1199.5V113.5Z" fill="#0B4F90" stroke="#0B4F90"/>
<path d="M1655.5 113.5H1655.75H1681.25H1681.5V114.5H1681.75H1685.25H1685.5V115.5H1687.5V116.5H1689.5V117.5H1690.5V118.5H1691.5V119.5H1692.5V120.5H1693.5V121.5H1694.5V122.5H1695.5V124.5H1696.5V124.75V127.25V127.5H1697.5V127.75V137.25V137.5H1698.5V137.75V150.25V150.5H1697.5V152.5H1698.5V154.5H1697.5V154.75V157.25C1697.58 157.5 1697.5 157.583 1697.25 157.5H1674.75H1674.5V157.25V153.75V153.5H1673.5V151.5H1674.5V150.5H1673.5V150.25V135.75V135.5H1672.5V133.5H1672.25H1664.75H1664.5V134.5H1663.5V134.75V141.25V141.5H1662.5V143.5H1663.5V144.5H1662.5V144.75V149.25V149.5H1663.5V149.75V153.25V153.5H1664.5V155.5H1666.5V156.5H1667.5V157.5H1668.5V158.5H1669.5V159.5C1669.75 159.5 1670.33 159.5 1671.25 159.5H1671.5V160.5H1673.5V161.5H1674.5V162.5H1675.5V163.5H1677.5V164.5H1678.5V165.5H1680.5V166.5H1681.5V167.5H1682.5V168.5H1684.5V169.5H1685.5V170.5H1686.5V171.5H1687.5V172.5H1688.5V173.5H1690.5V174.5H1691.5V175.5H1692.5V176.5H1693.5V177.5H1694.5V179.5H1695.5V181.5H1696.5V183.5H1697.5V183.75V187.25V187.5H1698.5V187.75V218.25V218.5H1697.5V218.75V224.25V224.5H1696.5V225.5H1695.5C1695.5 225.75 1695.5 226.333 1695.5 227.25V227.5H1694.5V229.5H1693.5V230.5H1692.5V231.5H1691.5V232.5H1690.5V233.5H1688.5V234.5H1687.5V235.5H1687.25H1684.75H1684.5V236.5H1684.25H1676.75H1676.5V237.5H1676.25H1663.75H1663.5V236.5H1663.25H1654.75H1654.5V235.5H1654.25H1651.75H1651.5V234.5H1649.5V233.5C1649.25 233.5 1648.67 233.5 1647.75 233.5H1647.5V232.5H1645.5V231.5H1644.5V230.5H1643.5V229.5H1642.5V227.5H1641.5V225.5H1640.5V223.5H1639.5V223.25V219.75V219.5H1638.5V219.25V188.75V188.5H1638.75H1662.25H1662.5V188.75V212.25V212.5H1663.5V214.5H1664.5V215.5H1665.5V216.5H1665.75H1671.25H1671.5V215.5H1672.5V214.5H1673.5V212.5H1674.5V212.25V198.75V198.5H1673.5V198.25V193.75V193.5H1672.5V191.5H1671.5V190.5H1670.5V189.5H1668.5V188.5H1667.5V187.5H1665.5V186.5H1664.5V185.5H1663.5V184.5H1661.5V183.5H1660.5V182.5H1659.5V181.5H1658.5V180.5H1656.5V179.5H1655.5V178.5H1653.5V177.5H1652.5V176.5H1650.5V175.5H1649.5V174.5H1648.5V173.5H1647.5V172.5H1646.5V171.5H1645.5V170.5H1644.5V169.5H1643.5V168.5H1642.5V167.5H1641.5V165.5H1640.5V163.5H1639.5V163.25V160.75V160.5H1638.5V160.25V129.75V129.5H1639.5V129.25V125.75V125.5H1640.5V123.5H1641.5V121.5H1642.5V120.5H1643.5V119.5H1644.5V118.5H1645.5V117.5H1646.5V116.5H1648.5V115.5H1648.75H1651.25H1651.5V114.5H1651.75H1655.25H1655.5V113.5Z" fill="#0B4F90" stroke="#0B4F90"/>
<path d="M584.5 114.5H584.75H627.25H627.5V115.5H627.75H630.25H630.5V116.5H630.75H633.25H633.5V117.5H635.5V118.5H636.5V119.5H637.5V120.5H638.5V121.5H639.5V122.5H640.5V124.5H641.5V125.5H642.5V125.75V128.25V128.5H643.5V128.75V135.25V135.5H644.5V135.75V175.25V175.5H643.5V175.75V180.25V180.5H642.5V180.75V183.25V183.5H641.5V184.5H640.5V186.5H639.5V187.5H638.5V188.5H637.5V189.5H635.5V190.5H633.5V191.5H631.5V192.5H631.25H626.75H626.5V193.5H626.25H609.75H609.5V193.75V235.25V235.5H608.5V236.5H608.25H590.75H590.5V235.5H589.5V236.5H589.25H585.75H585.5V235.5H584.5V235.25V114.75V114.5ZM610.5 134.5V135.5H609.5V136V171.5H610.5V172.5H611H615.5V171.5H617.5V170.5H618.5V168.5H619.5V140V139.5H618.5V137V136.5H617.5V135.5H615H614.5V134.5H613.5V135.5H611.5V134.5H610.5Z" fill="#0B4F90" stroke="#0B4F90"/>
<path d="M662.5 114.5H662.75H695.25H695.5V115.5H696.5V115.75V123.25V123.5H697.5V123.75V130.25V130.5H698.5V130.75V136.25V136.5H699.5V136.75V145.25V145.5H700.5V145.75V152.25V152.5H701.5V152.75V158.25V158.5H702.5V158.75V165.25V165.5H703.5V165.75V173.25V173.5H704.5V173.75V179.25V179.5H705.5V179.75V186.25V186.5H706.5V186.75V193.25V193.5H707.5V193.75V199.25V199.5H708.5V199.75V206.25V206.5H709.5V206.75V213.25V213.5H710.5V213.75V221.25V221.5H711.5V221.75V227.25V227.5H712.5V227.75V235.25V235.5H712.25H693.75H693.5V236.5H692.5V235.5H692.25H688.75H688.5V233.5H687.5V233.25V223.75V223.5H686.5V223.25V218.75V218.5H685.5V217.5H683.5V218.5H682.5V217.5H682.25H678.75H678.5V218.5H677.5V217.5H677.25H673.75H673.5V218.5H672.5V217.5H671.5V218.5H670.5V220.5H669.5V220.75V229.25V229.5H668.5V229.75V235.25V235.5H668.25H662.75H662.5V236.5H661.5V235.5H659.5V236.5H658.5V235.5H658.25H649.75H649.5V236.5H649.25H646.75H646.5V235.5H645.5V235.25V228.75V228.5H646.5V228.25V220.75V220.5H647.5V220.25V214.75V214.5H648.5V214.25V206.75V206.5H649.5V206.25V198.75V198.5H650.5V198.25V192.75V192.5H651.5V192.25V184.75V184.5H652.5V184.25V178.75V178.5H653.5V178.25V170.75V170.5H654.5V170.25V162.75V162.5H655.5V162.25V156.75V156.5H656.5V156.25V149.75V149.5H657.5V149.25V142.75V142.5H658.5V142.25V135.75V135.5H659.5V135.25V128.75V128.5H660.5V128.25V120.75V120.5H661.5V120.25V115.75V115.5H662.5V114.5ZM677.5 146.5V147V151.5H676.5V152V161.5H675.5V162V171.5H674.5V172V180.5H673.5V181V191.5H672.5V192V195.5H673H683.5V190V189.5H682.5V181V180.5H681.5V172V171.5H680.5V162V161.5H679.5V153V152.5H678.5V147V146.5H677.5Z" fill="#0B4F90" stroke="#0B4F90"/>
<path d="M790.5 114.5H790.75H836.25H836.5V115.5H837.5V115.75V136.25V136.5H837.25H815.75H815.5V136.75V162.25V162.5H815.75H835.25H835.5V163.5H836.5V163.75V184.25V184.5H836.25H815.75H815.5V184.75V213.25V213.5H815.75H821.25H821.5V214.5H822.5V213.5H823.5V214.5H823.75H838.25H838.5V214.75V235.25V235.5H838.25H825.75H825.5V236.5H824.5V235.5H822.5V236.5H821.5V235.5H821.25H802.75H802.5V236.5H801.5V235.5H801.25H794.75H794.5V236.5H793.5V235.5H792.5V236.5H791.5V235.5H790.5V235.25V114.75V114.5Z" fill="#0B4F90" stroke="#0B4F90"/>
<path d="M920.5 114.5H920.75H965.25H965.5V115.5H966.5V115.75V136.25V136.5H966.25H945.75H945.5V136.75V163.25V163.5H945.75H965.25H965.5V163.75V185.25V185.5H965.25H945.75H945.5V186.5H944.5V187.5H945.5V189.5H944.5V190.5H945.5V191.5H944.5V193.5H945.5V195.5H944.5V196.5H945.5V198.5H944.5V200.5H945.5V201.5H944.5V203.5H945.5V205.5H944.5V207.5H945.5V208.5H944.5V209.5H945.5V210.5H944.5V211.5H945.5V212.5H944.5V214.5H945.5V215.5H944.5V217.5H945.5V218.5H944.5V219.5H945.5V221.5H944.5V222.5H945.5V224.5H944.5V225.5H945.5V227.5H944.5V229.5H945.5V230.5H944.5V232.5H945.5V233.5H944.5V233.75V236.25V236.5H942.5V235.5H942.25H939.75H939.5V236.5H938.5V235.5H938.25H935.75H935.5V236.5H933.5V235.5H932.5V236.5H932.25H921.75H921.5V235.5H920.5V235.25V114.75V114.5Z" fill="#0B4F90" stroke="#0B4F90"/>
<path d="M975.5 114.5H975.75H1018.25H1018.5V115.5H1018.75H1022.25H1022.5V116.5H1024.5V117.5H1026.5V118.5H1027.5V119.5H1028.5V120.5H1029.5V121.5H1030.5V122.5H1031.5V124.5H1032.5V125.5H1033.5V125.75V129.25V129.5H1034.5V129.75V177.25V177.5H1033.5V177.75V181.25V181.5H1032.5V183.5H1031.5V185.5H1030.5V186.5H1029.5V187.5H1028.5V188.5H1027.5V189.5H1025.5V190.5H1024.5V191.5H1024.25H1021.75H1021.5V192.5H1021.25H1016.75H1016.5V193.5H1016.25H1000.75H1000.5V194.5H999.5V195.5H1000.5V197.5H999.5V197.75V201.25V201.5H1000.5V202.5H999.5V203.5H1000.5V204.5H999.5V205.5H1000.5V207.5H999.5V208.5H1000.5V209.5H999.5V210.5H1000.5V211.5H999.5V213.5H1000.5V214.5H999.5V216.5H1000.5V217.5H999.5V219.5H1000.5V220.5H999.5V222.5H1000.5V223.5H999.5V225.5H1000.5V226.5H999.5V227.5H1000.5V228.5H999.5V228.75V231.25V231.5H1000.5V232.5H999.5V233.5H1000.5V234.5H999.5V235.5H998.5V236.5H997.5V235.5H996.5V236.5H995.5V235.5H993.5V236.5H992.5V235.5H990.5V236.5H988.5V235.5H988.25H985.75H985.5V236.5H984.5V235.5H982.5V236.5H980.5V235.5H979.5V236.5H979.25H976.75H976.5V235.5H975.5V235.25V200.75V200.5H974.5V199.5H975.5V197.5H974.5V196.5H975.5V196.25V193.75V193.5H974.5V192.5H975.5V191.5H974.5V190.5H975.5V189.5H974.5V188.5H975.5V188.25V114.75V114.5ZM1000.5 135.5V136.5H999.5V137.5H1000.5V138.5H999.5V139.5H1000.5V141.5H999.5V142.5H1000.5V144.5H999.5V145.5H1000.5V147.5H999.5V148.5H1000.5V150.5H999.5V151.5H1000.5V152.5H999.5V153.5H1000.5V154.5H999.5V156.5H1000.5V157.5H999.5V159.5H1000.5V160.5H999.5V162.5H1000.5V163.5H999.5V165.5H1000.5V166.5H999.5V167.5H1000.5V168.5H999.5V169.5H1000.5V170.5H999.5V171.5H1000.5V172.5H1001H1006.5V171.5H1008.5V170.5H1009.5V168.5H1010.5V145V144.5H1009.5V142.5H1010.5V141.5H1009.5V137V136.5H1008.5V135.5H1001H1000.5Z" fill="#0B4F90" stroke="#0B4F90"/>
<path d="M1253.5 114.5H1253.75H1277.25H1277.5V115.5H1278.5V115.75V235.25V235.5H1278.25H1253.75C1253.5 235.583 1253.42 235.5 1253.5 235.25V114.75V114.5Z" fill="#0B4F90" stroke="#0B4F90"/>
<path d="M1289.5 114.5H1289.75H1333.25H1333.5V115.5H1333.75H1336.25H1336.5V116.5C1336.75 116.5 1337.33 116.5 1338.25 116.5H1338.5V117.5H1340.5V118.5H1341.5V119.5H1343.5V120.5H1344.5V121.5H1345.5V123.5H1346.5C1346.5 123.75 1346.5 124.333 1346.5 125.25V125.5H1347.5V127.5H1348.5V127.75V132.25V132.5H1349.5V132.75V159.25V159.5H1348.5V159.75V163.25V163.5H1347.5V165.5H1346.5V167.5H1345.5V168.5H1344.5V169.5H1343.5V170.5H1342.5V171.5H1340.5V172.5H1341.5V173.5H1343.5V174.5H1344.5V175.5H1345.5V176.5H1346.5V178.5H1347.5V179.5H1348.5V179.75V182.25V182.5H1349.5V182.75V188.25V188.5H1350.5V189.5H1349.5V191.5H1350.5V191.75V207.25V207.5H1349.5V209.5H1350.5V210.5H1349.5V210.75V220.25V220.5H1348.5V220.75V223.25V223.5H1347.5C1347.5 223.75 1347.5 224.333 1347.5 225.25V225.5H1346.5V227.5H1345.5V228.5H1344.5V229.5H1343.5V230.5H1342.5V231.5H1341.5V232.5H1339.5V233.5H1339.25H1336.75H1336.5V234.5H1336.25H1333.75H1333.5V235.5H1333.25H1318.75H1318.5V236.5H1317.5V235.5H1317.25H1312.75H1312.5V236.5H1311.5V235.5H1309.5V236.5H1308.5V235.5H1308.25H1305.75H1305.5V236.5H1304.5V235.5H1304.25H1293.75H1293.5V236.5H1292.5V235.5H1292.25H1289.75C1289.5 235.583 1289.42 235.5 1289.5 235.25V114.75V114.5ZM1317.5 134.5V135.5H1315H1314.5V136.5H1313.5V138.5H1314.5V139V141.5H1313.5V142.5H1314.5V143V156.5H1313.5V157.5H1314.5V158V162.5H1315.5V163.5H1316.5V162.5H1317.5V163.5H1318.5V162.5H1319H1323.5V161.5H1324.5V156V155.5H1325.5V154.5H1324.5V137V136.5H1323.5V135.5H1320H1319.5V134.5H1317.5ZM1314.5 183.5V185.5H1313.5V187.5H1314.5V188.5H1313.5V190.5H1314.5V191.5H1313.5V193.5H1314.5V195.5H1313.5V196.5H1314.5V197.5H1313.5V198.5H1314.5V200.5H1313.5V201.5H1314.5V202.5H1313.5V204.5H1314.5V205.5H1313.5V206.5H1314.5V207.5H1313.5V208V211.5H1314.5V212.5H1313.5V213.5H1314.5V214.5H1315H1323.5V213.5H1324.5V212.5H1325.5V188V187.5H1324.5V185.5H1323.5V184.5H1322.5V183.5H1315H1314.5Z" fill="#0B4F90" stroke="#0B4F90"/>
<path d="M1360.5 114.5H1360.75H1383.25H1383.5V115.5H1384.5V115.75V235.25V235.5H1383.5V236.5H1383.25H1378.75H1378.5V235.5H1377.5V236.5H1375.5V235.5H1373.5V236.5H1372.5V235.5H1372.25H1366.75H1366.5V236.5H1365.5V235.5H1365.25H1360.75H1360.5V233.5H1359.5V232.5H1360.5V231.5H1359.5V230.5H1360.5V228.5H1359.5V227.5H1360.5V225.5H1359.5V224.5H1360.5V223.5H1359.5V221.5H1360.5V221.25V217.75V217.5H1359.5V216.5H1360.5V216.25V202.75V202.5H1359.5V201.5H1360.5V199.5H1359.5V198.5H1360.5V197.5H1359.5V195.5H1360.5V193.5H1359.5V192.5H1360.5V191.5H1359.5V189.5H1360.5V188.5H1359.5V188.25V183.75V183.5H1360.5V182.5H1359.5V182.25V174.75V174.5H1360.5V172.5H1359.5V171.5H1360.5V171.25V117.75V117.5H1359.5V115.5H1360.5V114.5Z" fill="#0B4F90" stroke="#0B4F90"/>
<path d="M1396.5 114.5H1396.75H1419.25H1419.5V115.5H1420.5V115.75V213.25C1420.42 213.5 1420.5 213.583 1420.75 213.5H1439.25H1439.5V214.5H1440.5V214.75V235.25V235.5H1439.5V236.5H1438.5V235.5H1438.25H1417.75H1417.5V236.5H1416.5V235.5H1414.5V236.5H1413.5V235.5H1411.5V236.5H1410.5V235.5H1408.5V236.5H1407.5V235.5H1405.5V236.5H1404.5V235.5H1404.25H1401.75H1401.5V236.5H1400.5V235.5H1400.25H1396.75H1396.5V235.25V228.75V228.5H1395.5V227.5H1396.5V225.5H1395.5V224.5H1396.5V223.5H1395.5V222.5H1396.5V222.25V155.75V155.5H1395.5V154.5H1396.5V153.5H1395.5V152.5H1396.5V150.5H1395.5V148.5H1396.5V147.5H1395.5V146.5H1396.5V144.5H1395.5V144.25V115.75V115.5H1396.5V114.5Z" fill="#0B4F90" stroke="#0B4F90"/>
<path d="M1449.5 114.5H1449.75H1472.25H1472.5V115.5H1473.5V117.5H1472.5V118.5H1473.5V118.75V235.25V235.5H1472.5V236.5H1471.5V235.5H1470.5V236.5H1468.5V235.5H1468.25H1459.75H1459.5V236.5H1458.5V235.5H1458.25H1453.75H1453.5V236.5H1451.5V235.5H1451.25H1448.75C1448.5 235.583 1448.42 235.5 1448.5 235.25V115.75V115.5H1449.5V114.5Z" fill="#0B4F90" stroke="#0B4F90"/>
<path d="M1482.5 114.5H1482.75H1536.25H1536.5V115.5H1537.5V115.75V135.25V135.5H1536.5V136.5H1536.25H1521.75C1521.5 136.417 1521.42 136.5 1521.5 136.75V235.25C1521.58 235.5 1521.5 235.583 1521.25 235.5H1517.75H1517.5V236.5H1516.5V235.5H1516.25H1513.75H1513.5V236.5H1512.5V235.5H1510.5V236.5H1509.5V235.5H1507.5V236.5H1507.25H1498.75H1498.5V235.5H1497.5V235.25V136.75C1497.58 136.5 1497.5 136.417 1497.25 136.5H1482.75H1482.5V135.5H1481.5V135.25V115.75V115.5H1482.5V114.5Z" fill="#0B4F90" stroke="#0B4F90"/>
<path d="M1546.5 114.5H1546.75H1570.25C1570.5 114.417 1570.58 114.5 1570.5 114.75V235.25V235.5H1570.25H1561.75H1561.5V236.5H1560.5V235.5H1558.5V236.5H1556.5V235.5H1556.25H1551.75H1551.5V236.5H1550.5V235.5H1549.5V236.5H1548.5V235.5H1548.25H1545.75C1545.5 235.583 1545.42 235.5 1545.5 235.25V226.75V226.5H1546.5V224.5H1545.5V222.5H1546.5V221.5H1545.5V221.25V217.75V217.5H1546.5V216.5H1545.5V215.5H1546.5V214.5H1545.5V212.5H1546.5V211.5H1545.5V209.5H1546.5V208.5H1545.5V207.5H1546.5V205.5H1545.5V204.5H1546.5V202.5H1545.5V201.5H1546.5V200.5H1545.5V198.5H1546.5V196.5H1545.5V194.5H1546.5V193.5H1545.5V192.5H1546.5V191.5H1545.5V190.5H1546.5V188.5H1545.5V187.5H1546.5V185.5H1545.5V183.5H1546.5V182.5H1545.5V180.5H1546.5V179.5H1545.5V177.5H1546.5V176.5H1545.5V174.5H1546.5V173.5H1545.5V172.5H1546.5V170.5H1545.5V169.5H1546.5V168.5H1545.5V168.25V164.75V164.5H1546.5V163.5H1545.5V161.5H1546.5V160.5H1545.5V158.5H1546.5V157.5H1545.5V157.25V153.75V153.5H1546.5V152.5H1545.5V151.5H1546.5V150.5H1545.5V150.25V145.75V145.5H1546.5V144.5H1545.5V142.5H1546.5V141.5H1545.5V141.25V135.75V135.5H1546.5V134.5H1545.5V134.25V129.75V129.5H1546.5V128.5H1545.5V128.25V115.75V115.5H1546.5V114.5Z" fill="#0B4F90" stroke="#0B4F90"/>
<path d="M1582.5 114.5H1582.75H1628.25H1628.5V114.75V136.25V136.5H1628.25H1607.75H1607.5V136.75V144.25V144.5H1606.5V145.5H1607.5V147.5H1606.5V148.5H1607.5V149.5H1606.5V151.5H1607.5V152.5H1606.5V153.5H1607.5V154.5H1606.5V154.75V161.25V161.5H1607.5V162.5H1607.75H1627.25H1627.5V163.5H1628.5V165.5H1627.5V166.5H1628.5V167.5H1627.5V168.5H1628.5V169.5H1627.5V171.5H1628.5V172.5H1627.5V173.5H1628.5V174.5H1627.5V174.75V184.25V184.5H1627.25H1607.75H1607.5V185.5H1606.5V187.5H1607.5V189.5H1606.5V190.5H1607.5V192.5H1606.5V193.5H1607.5V194.5H1606.5V196.5H1607.5V197.5H1606.5V199.5H1607.5V200.5H1606.5V201.5H1607.5V202.5H1606.5V202.75V205.25V205.5H1607.5V206.5H1606.5V206.75V213.25V213.5H1606.75H1629.25H1629.5V213.75V235.25V235.5H1628.5V236.5H1626.5V235.5H1624.5V236.5H1622.5V235.5H1620.5V236.5H1618.5V235.5H1618.25H1582.75C1582.5 235.583 1582.42 235.5 1582.5 235.25V114.75V114.5Z" fill="#0B4F90" stroke="#0B4F90"/>
</svg>
