<svg xmlns="http://www.w3.org/2000/svg" viewBox="0 0 32 32">
  <rect width="32" height="32" rx="6" fill="#0a0a0f"/>
  <svg x="4" y="2" width="24" height="28" viewBox="0 0 420 737.88">
    <g transform="translate(1998.7445,358.09744)">
      <path fill="#ffffff" d="m -1902.35,378.8312 c -4.675,-0.4292 -13,-1.7641 -18.5,-2.9663 -31.1971,-6.8195 -52.4882,-22.1187 -65.3352,-46.9481 -9.8391,-19.016 -12.6779,-31.5705 -12.5556,-55.5263 0.076,-14.7813 0.4908,-19.0229 3.1827,-32.5 4.1486,-20.7704 11.0288,-56.579 17.1963,-89.5 4.8788,-26.042 13.0621,-68.611398 26.5284,-137.999998 3.5224,-18.1500001 7.1251,-37.05 8.0061,-42 1.8701,-10.5069 14.3909,-75.712502 21.6024,-112.500002 5.1985,-26.5192 6.6222,-34.0779 9.8883,-52.49997 3.2761,-18.47883 11.9905,-61.6682 13.6197,-67.5 5.8909,-21.08757 13.9152,-37.00991 26.5011,-52.58555 19.3082,-23.89469 49.0901,-39.57706 82.3658,-43.37171 5.4997,-0.62717 44.0028,-1.02795 99,-1.03051 97.3362,-0.005 98.0694,0.0299 116.9302,5.49559 35.6348,10.32654 57.8908,34.71944 64.0846,70.23756 3.0855,17.69335 1.9502,35.12662 -4.4773,68.75462 -1.0512,5.5 -3.5523,19 -5.5579,30 -2.0056,10.99997 -5.4089,28.98017 -7.563,39.95587 -2.1541,10.9757 -3.9166,20.0882 -3.9166,20.25 0,0.1618 -29.25,0.2941 -65,0.2941 -58.767,0 -65,-0.1525 -65,-1.5912 0,-2.194 5.37,-32.9668 9.7563,-55.90877 6.1114,-31.96429 4.7776,-45.06417 -5.6496,-55.48631 -3.5996,-3.59793 -6.1985,-5.11609 -11.8879,-6.94455 l -7.2812,-2.34 -30.7188,-0.0631 c -27.2593,-0.056 -31.3382,0.1439 -36.2188,1.77462 -24.1146,8.05718 -34.0058,21.06515 -39.0426,51.34514 -1.0717,6.44279 -3.2925,18.68917 -4.9352,27.21417 -1.6426,8.525 -5.0503,26.75 -7.5725,40.5 -8.0094,43.663002 -15.4679,83.767402 -16.9238,91.000002 -1.497,7.4367 -2.4981,12.8387 -7.9686,42.9999999 -1.8953,10.4500001 -4.8071,25.9750001 -6.4705,34.5000001 -1.6634,8.525 -4.365,22.925 -6.0037,32 -1.6387,9.075 -4.1012,22.575 -5.4722,29.999998 -1.3711,7.425 -3.1674,17.325 -3.9917,22 -1.4594,8.2761 -10.1747,54.9634 -13.0673,70 -6.3309,32.9104 -6.7232,40.2901 -2.6344,49.5612 2.8308,6.4185 9.0887,12.7358 15.4837,15.6307 l 5.0988,2.3081 33.75,0.321 c 36.4909,0.347 38.614,0.1199 50.2654,-5.3778 9.5788,-4.5197 18.7427,-15.3267 24.0175,-28.324 2.6231,-6.4635 3.6514,-11.2127 11.934,-55.1192 2.5419,-13.475 5.0837,-26.8625 5.6483,-29.75 l 1.0266,-5.25 h 65.3355 c 61.7044,0 65.314,0.097 64.95,1.75 -0.212,0.9625 -1.7714,9.625 -3.4653,19.25 -1.6939,9.625 -4.1974,23.125 -5.5634,30 -1.366,6.875 -3.6011,19.025 -4.967,27 -2.7858,16.266 -3.3021,19.0132 -10.4314,55.5 -5.7115,29.2314 -7.3472,35.0016 -13.7306,48.4377 -5.6336,11.8579 -10.418,18.4426 -20.7529,28.5623 -9.9128,9.7063 -21.114,16.6049 -34.2542,21.0963 -18.6043,6.3591 -19.8048,6.419 -125.5059,6.2643 -52.3911,-0.077 -99.0816,-0.4907 -103.7566,-0.9199 z"/>
    </g>
  </svg>
</svg>
